<?xml version="1.0" standalone="no"?>
<!DOCTYPE svg PUBLIC "-//W3C//DTD SVG 1.1//EN" "http://www.w3.org/Graphics/SVG/1.1/DTD/svg11.dtd" >
<svg xmlns="http://www.w3.org/2000/svg">
<metadata></metadata>
<defs>
<font id="shiftbold" horiz-adv-x="600" >
<font-face units-per-em="1000" ascent="750" descent="-250" />
<missing-glyph horiz-adv-x="205" />
<glyph unicode="fi" horiz-adv-x="807" d="M529 669q0 18 7 34.5t19.5 28.5t29.5 19t35 7q19 0 35.5 -7t29 -19t19.5 -28.5t7 -34.5t-7 -34.5t-19.5 -28.5t-29 -19t-35.5 -7q-18 0 -35 7t-29.5 19t-19.5 28.5t-7 34.5v0zM23 467l96 26v52q0 58 15.5 99t43 66t63.5 36.5t78 11.5q32 0 61 -8.5t50.5 -24t33.5 -36 t12 -43.5q0 -15 -5.5 -27.5t-15 -21.5t-21.5 -13.5t-25 -4.5q-21 0 -33 8.5t-23.5 25.5t-19.5 24.5t-23 7.5q-11 0 -19.5 -3.5t-14.5 -10.5t-9.5 -18t-3.5 -26q0 -10 0.5 -20t3 -34t3.5 -33h115v-99h-113v-310l117 -15v-76h-360v76l90 13v312h-96v66zM444 76l94 14v287 q-15 -2 -29.5 -2t-28.5 2.5t-26 6t-22 9.5v61q24 -3 48.5 -0.5t48 11t45.5 23t41 33.5l76 -11v-421l91 -13v-76h-338v76z" />
<glyph unicode="fl" horiz-adv-x="817" d="M452 76l96 14v521q-11 -1 -22 -0.5t-21 2.5t-20 5.5t-18 8.5v61q28 -1 51.5 3.5t43.5 13.5t36 21.5t30 28.5l74 -10v-657l88 -12v-76h-338v76zM23 467l96 26v52q0 58 16.5 99.5t44 66.5t61 36t69.5 11q33 0 58.5 -8.5t41.5 -22.5t23.5 -30.5t7.5 -33.5q0 -15 -5 -26.5 t-13 -19.5t-19 -12.5t-22 -4.5q-15 0 -24.5 5t-20 15.5t-17.5 15t-18 4.5q-10 0 -18 -3.5t-13.5 -11t-9 -19t-3.5 -26.5q0 -7 1 -16.5t2 -16.5t4 -23t4 -24h123v-99h-120v-310l126 -15v-76h-369v76l90 13v312h-96v66z" />
<glyph unicode=" "  horiz-adv-x="205" />
<glyph unicode="&#x09;" horiz-adv-x="205" />
<glyph unicode="&#xa0;" horiz-adv-x="205" />
<glyph unicode="!" horiz-adv-x="276" d="M52 732h172q0 -44 -5.5 -124t-13.5 -167t-15 -152.5t-9 -76.5h-86q-2 11 -9 76.5t-15 152.5t-13.5 167t-5.5 124v0zM51 69q0 17 6.5 32.5t18.5 27t27.5 18t33.5 6.5t33.5 -6.5t27.5 -18t18.5 -27t6.5 -32.5t-6.5 -32.5t-18.5 -27t-27.5 -18t-33.5 -6.5t-33.5 6.5 t-27.5 18t-18.5 27t-6.5 32.5v0z" />
<glyph unicode="&#x22;" horiz-adv-x="386" d="M350 451h-128l-12 295h155zM164 451h-127l-16 295h155z" />
<glyph unicode="#" horiz-adv-x="696" d="M296 392l-29 -111h127l29 111h-127zM638 673l-49 -181h107l-26 -100h-108l-30 -111h112l-27 -101h-112l-48 -180h-138l48 180h-127l-48 -180h-137l48 180h-103l26 101h104l29 111h-107l26 100h108l49 181h137l-49 -181h127l49 181h139z" />
<glyph unicode="$" horiz-adv-x="633" d="M197 506q0 -14 5.5 -26t15.5 -21.5t24.5 -18t33.5 -15.5v151q-20 -2 -34.5 -7.5t-24.5 -14.5t-15 -21t-5 -27v0zM422 181q0 16 -6.5 28.5t-18.5 22t-27 17t-35 14.5v-152q23 3 39.5 9t27 15t15.5 20.5t5 25.5v0zM276 -96v92q-34 3 -65 11t-57 20.5t-46.5 29t-33.5 36.5 q-5 7 -9 14.5t-7 15.5t-4.5 16t-1.5 15q0 14 5 26.5t13.5 21.5t21 14.5t26.5 5.5q15 0 26.5 -4t19 -11t12.5 -15.5t12 -21.5q7 -15 16.5 -25.5t20.5 -17.5t23.5 -10.5t27.5 -5.5v172l-9 4q-47 16 -81.5 32.5t-62.5 40t-44.5 57.5t-16.5 80q0 42 15.5 76.5t44.5 59.5t68 39.5 t86 16.5v91h59v-92q32 -3 60 -9.5t52 -17.5t43 -26t33 -34q5 -7 9.5 -15t8 -15.5t5 -15.5t1.5 -16q0 -13 -4.5 -25.5t-13.5 -22t-21 -15t-27 -5.5q-16 0 -27.5 4t-18.5 11.5t-11.5 14t-13.5 23.5q-6 11 -14 20t-17 15.5t-20 10.5t-24 6v-172h1.5t1.5 -0.5t1.5 -0.5h1.5 q53 -17 88 -31t66.5 -37t51 -57.5t19.5 -83.5q0 -44 -15.5 -80t-46 -62t-73.5 -41t-96 -17v-90h-59z" />
<glyph unicode="%" horiz-adv-x="1023" d="M23 490q0 49 13.5 89.5t39 69t61 44t79.5 15.5q43 0 78.5 -15.5t60.5 -44t38 -69t13 -89.5t-13.5 -89t-39 -69t-61.5 -44.5t-79 -15.5q-44 0 -79.5 15.5t-60 44.5t-37.5 69t-13 89v0zM407 0h-119l325 691h119zM123 491q0 -32 6.5 -57.5t19 -42.5t29 -25.5t36.5 -8.5 t36.5 8.5t28.5 25.5t19 42.5t7 57.5t-7 57t-19 41.5t-29 25t-37 8.5t-36.5 -8.5t-28.5 -25t-18.5 -41.5t-6.5 -57v0zM808 -15q-44 0 -79.5 15.5t-60 44.5t-37.5 69t-13 89t13.5 89.5t39 69t61 44t79.5 15.5q43 0 78.5 -15.5t60.5 -44t38 -69t13 -89.5t-13.5 -89t-39 -69 t-61.5 -44.5t-79 -15.5v0zM809 70q20 0 36.5 8.5t28.5 25.5t19 42.5t7 57.5t-7 57t-19 41.5t-29 25t-37 8.5t-36.5 -8.5t-28.5 -25t-18.5 -41.5t-6.5 -57t6.5 -57.5t19 -42.5t29 -25.5t36.5 -8.5v0z" />
<glyph unicode="&#x26;" horiz-adv-x="764" d="M237 534q0 -10 1.5 -20.5t3.5 -21t5.5 -22t8.5 -23.5q24 14 41.5 25t30.5 23t20.5 25.5t7.5 27.5q0 11 -4 20.5t-11.5 16.5t-18.5 10.5t-24 3.5q-14 0 -25.5 -4t-19.5 -12t-12 -20t-4 -29v0zM273 89q14 0 26 2t22.5 5.5t20 9t17.5 13.5q-22 16 -42 34t-39 37t-36 39 t-32 41q-13 -11 -23.5 -22t-17.5 -23.5t-11 -25.5t-4 -27q0 -19 8 -34.5t23.5 -26.5t37.5 -16.5t50 -5.5v0zM478 325q20 34 39.5 58.5t41 42.5t46.5 28t55 10q24 0 41.5 -6t29.5 -17t17.5 -25.5t5.5 -30.5q0 -18 -6.5 -32.5t-18 -23.5t-26 -14t-29.5 -5q-6 0 -19 1t-20.5 -1 t-16 -9.5t-19.5 -24.5q-8 -12 -15.5 -26t-13.5 -27t-15.5 -34.5t-14.5 -33.5q24 -12 48.5 -21.5t50 -16t51.5 -10t52 -3.5v-105q-36 -3 -71.5 -1t-69.5 8.5t-66.5 17.5t-63.5 26q-17 -17 -37 -30t-45 -23t-55.5 -15t-66.5 -5q-58 0 -105.5 12.5t-81.5 37.5t-52.5 62 t-18.5 85q0 36 10.5 67t29 56t42.5 46t54 40q-9 20 -16 40t-11.5 39t-7 37.5t-2.5 36.5q0 41 13.5 74t39.5 55.5t63.5 34t84.5 11.5q46 0 81.5 -11t59 -31t35.5 -47t12 -59q0 -37 -15 -68.5t-39.5 -57t-54 -47t-71.5 -47.5q11 -15 24 -30t27 -29t29 -28t31 -27 q3 6 10.5 21.5t13 26.5t12.5 23.5t14 24.5v0z" />
<glyph unicode="'" horiz-adv-x="200" d="M163 451h-126l-16 295h158z" />
<glyph unicode="(" horiz-adv-x="361" d="M328 615q-46 -21 -77 -50.5t-50 -70t-28 -94t-9 -124.5t9 -124.5t28 -94t50 -70t77 -50.5l-31 -84q-56 11 -105 43.5t-86 86t-58 127.5t-21 166t21 166t58 127.5t86 86t105 43.5z" />
<glyph unicode=")" horiz-adv-x="361" d="M197 276q0 71 -9 124.5t-28 94t-50 70t-77 50.5l31 84q56 -11 105 -43.5t86 -86t58 -127.5t21 -166t-21 -166t-58 -127.5t-86 -86t-105 -43.5l-31 84q46 21 77 50.5t50 70t28 94t9 124.5v0z" />
<glyph unicode="*" horiz-adv-x="464" d="M232 464l-69 -105l-105 62l79 101l-120 36l30 103l125 -43l-9 127h138l-10 -127l126 43l30 -103l-120 -36l79 -101l-105 -63z" />
<glyph unicode="+" horiz-adv-x="494" d="M190 507h115v-148h139v-95h-139v-147h-115v147h-140v95h140v148z" />
<glyph unicode="," horiz-adv-x="272" d="M68 -119q14 11 25.5 23t19.5 25t13.5 27t8.5 29q-18 0 -33.5 6t-26.5 17.5t-17 26t-6 30.5q0 18 6.5 33.5t18 27.5t27 18.5t32.5 6.5q19 0 35 -7t27.5 -20.5t18 -31.5t6.5 -40q0 -37 -8 -70t-23 -60.5t-37 -49t-49 -35.5z" />
<glyph unicode="-" horiz-adv-x="385" d="M50 369h285v-103h-285v103z" />
<glyph unicode="." horiz-adv-x="270" d="M49 69q0 17 6.5 32.5t18.5 27t27.5 18t32.5 6.5q18 0 33.5 -6.5t28 -18t19 -27t6.5 -32.5t-6.5 -32.5t-19 -27t-28 -18t-33.5 -6.5q-17 0 -32.5 6.5t-27.5 18t-18.5 27t-6.5 32.5v0z" />
<glyph unicode="/" horiz-adv-x="484" d="M512 760l-417 -929h-160l418 929h159z" />
<glyph unicode="0" horiz-adv-x="694" d="M40 338q0 82 21.5 148.5t62.5 114.5t98 73t127 25t126.5 -25t97 -72.5t61.5 -114.5t21 -149t-22 -148.5t-62.5 -114.5t-98 -73t-127.5 -25q-71 0 -127.5 25t-96.5 72.5t-60.5 114.5t-20.5 149v0zM194 339q0 -59 11 -104.5t31.5 -76t48.5 -46t62 -15.5q33 0 60.5 15.5 t48 46t31.5 76t11 104.5q0 58 -11 103.5t-31.5 75.5t-48.5 45t-62 15q-33 0 -60.5 -15t-48 -45.5t-31.5 -75.5t-11 -103v0z" />
<glyph unicode="1" horiz-adv-x="477" d="M39 76l125 16v410l-110 -60l-46 72l225 177l84 -12v-588l122 -15v-76h-400v76z" />
<glyph unicode="2" horiz-adv-x="612" d="M332 235q-27 -18 -47 -34t-34.5 -31t-24 -30.5t-15.5 -31.5h232l65 145l77 -20l-44 -233h-502v26q0 53 17.5 97t47 80.5t64 66t84.5 66.5q40 28 64.5 48t40.5 38t23.5 36.5t7.5 39.5q0 19 -6 35.5t-18.5 28.5t-31.5 18.5t-44 6.5q-31 0 -54.5 -11t-38 -31t-20 -46.5 t-2.5 -57.5l-114 -14q-12 58 -2.5 107.5t41 86.5t83.5 57.5t122 20.5q60 0 105.5 -14t76 -40t45.5 -61.5t15 -79.5q0 -42 -13.5 -76t-39.5 -64.5t-64 -60t-96 -68.5v0z" />
<glyph unicode="3" horiz-adv-x="589" d="M283 -20q-60 0 -107.5 14.5t-78 37.5t-46 49t-15.5 49q0 13 4.5 25.5t13.5 22t22 15.5t30 6q15 0 25 -4t17 -11t11.5 -14t11.5 -21q7 -15 17 -25.5t23 -18t29 -11t35 -3.5q30 0 52.5 7.5t37.5 21.5t22 33t7 43q0 23 -8.5 42t-25 32.5t-39.5 20.5t-52 7h-77v102h76 q27 0 48.5 7.5t36 20.5t21.5 30.5t7 37.5t-7 36t-20 28t-33 18.5t-46 6.5q-22 0 -40.5 -5.5t-33.5 -16.5t-25.5 -29t-16.5 -42l-109 23q5 42 22 76t46.5 58t72 37t95.5 13q61 0 108 -15.5t77.5 -42.5t45.5 -62t15 -73q0 -22 -5.5 -43t-17 -41t-30.5 -37t-45 -29 q29 -8 50.5 -24t36.5 -38t22 -48t7 -54q0 -48 -18.5 -87.5t-53.5 -67.5t-84.5 -42.5t-110.5 -14.5v0z" />
<glyph unicode="4" horiz-adv-x="636" d="M257 76l94 14v86h-329v94l329 407h154v-397h96v-104h-96v-87l96 -13v-76h-344v76zM171 280h180v224z" />
<glyph unicode="5" horiz-adv-x="591" d="M286 -20q-57 0 -103.5 13.5t-78.5 35.5t-48.5 48.5t-16.5 52.5q0 13 4.5 25.5t13 22t21.5 15.5t30 6q15 0 25.5 -4t17.5 -11t11.5 -14.5t11.5 -20.5q8 -15 18 -26t23 -18.5t29 -11t36 -3.5q31 0 55.5 9.5t41 26.5t24.5 40t8 49q0 27 -8 50t-24.5 40t-41.5 26t-57 9 q-19 0 -35.5 -3t-31.5 -8.5t-27.5 -13.5t-22.5 -19l-104 19l38 358h432v-108h-319l-16 -148q13 8 27.5 14t30.5 10t33.5 6t36.5 2q48 0 91 -13t77.5 -40t54 -70.5t19.5 -101.5q0 -56 -19.5 -101t-55.5 -77t-87.5 -49t-113.5 -17v0z" />
<glyph unicode="6" horiz-adv-x="634" d="M348 585q-37 0 -65 -15t-47 -44t-29.5 -71t-12.5 -97q15 19 34.5 33.5t42 24t47 14t50.5 4.5q49 0 91 -15t72.5 -43t47 -67.5t16.5 -87.5q0 -51 -18.5 -96t-53.5 -78t-83.5 -51.5t-106.5 -18.5q-64 0 -117.5 23t-92.5 68t-60 111.5t-21 150.5q0 79 19.5 146.5t58.5 117.5 t97.5 77.5t134.5 27.5q31 0 59 -4.5t52 -13.5t43.5 -22t34.5 -30q6 -7 10.5 -14t8 -15t5.5 -16.5t2 -17.5q0 -14 -5 -26.5t-14 -22.5t-22.5 -15.5t-29.5 -5.5q-12 0 -22 3.5t-17.5 9.5t-14 13.5t-12.5 17.5q-7 12 -15 20t-17.5 13.5t-21.5 8.5t-28 3v0zM327 326 q-22 0 -42.5 -6t-37.5 -17.5t-29.5 -27t-20.5 -33.5q6 -40 18.5 -68.5t29.5 -46.5t38 -26t45 -8q26 0 47.5 8.5t37 25t23.5 39t8 49.5q0 28 -9.5 49.5t-25.5 35t-37 20t-45 6.5v0z" />
<glyph unicode="7" horiz-adv-x="577" d="M151 0q3 71 21 146t50 148.5t73.5 142t91.5 129.5h-214l-62 -143l-83 23l45 227h476v-79q-58 -63 -102 -136.5t-73 -151t-45 -154.5t-20 -152h-158z" />
<glyph unicode="8" horiz-adv-x="625" d="M312 -22q-61 0 -111 15t-85.5 43.5t-54.5 68.5t-19 90q0 28 8.5 54t25 49t39 39t49.5 24q-21 11 -37 26.5t-26.5 34.5t-16 40t-5.5 44q0 38 14 72t43 61.5t73.5 43t103.5 15.5t103 -15.5t73 -43t43 -62t14 -71.5q0 -23 -5.5 -44.5t-16.5 -40t-27 -33.5t-37 -27 q28 -8 50.5 -24.5t39 -39t25 -48.5t8.5 -54q0 -50 -19 -90t-55 -68.5t-86 -43.5t-111 -15v0zM312 410q23 0 41 7t30.5 19.5t18.5 28.5t6 33q0 19 -6.5 35.5t-19 28.5t-30.5 18.5t-40 6.5t-40.5 -6.5t-31 -18.5t-19 -28.5t-6.5 -35.5q0 -17 6 -33t18 -28.5t30.5 -19.5 t42.5 -7v0zM195 192q0 -23 8.5 -42t24.5 -32.5t37.5 -21t46.5 -7.5t46.5 7.5t37.5 21t24.5 32.5t8.5 42t-8 41.5t-23.5 32t-37.5 20.5t-48 7t-48 -7t-37.5 -20.5t-23.5 -32t-8 -41.5v0z" />
<glyph unicode="9" horiz-adv-x="628" d="M300 343q22 0 42.5 6t37 17.5t29.5 27t20 34.5q-5 42 -17 72t-29 48t-37.5 26.5t-45.5 8.5q-26 0 -47 -8.5t-36.5 -25t-23.5 -39.5t-8 -50q0 -30 9 -52.5t25 -36.5t37 -21t44 -7v0zM281 91q36 0 64 14.5t46.5 42t29 68t12.5 93.5q-15 -19 -34 -33.5t-41.5 -23.5 t-46.5 -13.5t-50 -4.5q-49 0 -90 15.5t-71 44.5t-46 70t-16 91q0 51 18 96t52.5 78t82 51.5t105.5 18.5q64 0 117.5 -23t92.5 -68t60 -111t21 -150q0 -80 -19.5 -147.5t-58.5 -117.5t-97.5 -77.5t-134.5 -27.5q-31 0 -59 4.5t-52 13t-43.5 21t-34.5 28.5q-5 6 -9.5 13.5 t-8.5 15.5t-6 17t-2 18q0 14 5 26.5t14 22t22.5 15t29.5 5.5q12 0 22 -3.5t17.5 -9.5t13.5 -13.5t13 -17.5q7 -11 14.5 -18.5t17 -13t22 -8t28.5 -2.5v0z" />
<glyph unicode=":" horiz-adv-x="270" d="M49 433q0 17 6.5 32.5t18.5 27t27.5 18t32.5 6.5q18 0 33.5 -6.5t28 -18t19 -27t6.5 -32.5t-6.5 -32.5t-19 -27t-28 -18t-33.5 -6.5q-17 0 -32.5 6.5t-27.5 18t-18.5 27t-6.5 32.5v0zM49 69q0 17 6.5 32.5t18.5 27t27.5 18t32.5 6.5q18 0 33.5 -6.5t28 -18t19 -27 t6.5 -32.5t-6.5 -32.5t-19 -27t-28 -18t-33.5 -6.5q-17 0 -32.5 6.5t-27.5 18t-18.5 27t-6.5 32.5v0z" />
<glyph unicode=";" horiz-adv-x="270" d="M49 433q0 17 6.5 32.5t18.5 27t27.5 18t32.5 6.5q18 0 33.5 -6.5t28 -18t19 -27t6.5 -32.5t-6.5 -32.5t-19 -27t-28 -18t-33.5 -6.5q-17 0 -32.5 6.5t-27.5 18t-18.5 27t-6.5 32.5v0zM67 -119q14 11 25.5 23t19.5 25t13.5 27t8.5 29q-18 0 -33.5 6t-26.5 17.5t-17 26 t-6 30.5q0 18 6.5 33.5t18 27.5t27 18.5t32.5 6.5q19 0 35 -7t27.5 -20.5t18 -31.5t6.5 -40q0 -37 -8 -70t-23 -60.5t-37 -49t-49 -35.5z" />
<glyph unicode="&#x3c;" horiz-adv-x="494" d="M396 470l-170 -160l174 -159l-69 -70l-238 219v16l239 221z" />
<glyph unicode="=" horiz-adv-x="494" d="M50 329v96h394v-96h-394zM50 193v95h394v-95h-394z" />
<glyph unicode="&#x3e;" horiz-adv-x="494" d="M162 81l-65 66l170 160l-174 160l70 70l237 -219v-16z" />
<glyph unicode="?" horiz-adv-x="513" d="M305 302q0 -6 2.5 -10.5t6.5 -8t9 -5t11 -1.5h5l-19 -62q-5 -2 -9.5 -3t-9.5 -1.5l-10 -1t-10 -0.5q-21 0 -40 6t-34 17.5t-23.5 29.5t-8.5 40q0 42 23 69.5t69 59t68.5 56t22.5 63.5q0 19 -6.5 35.5t-19.5 28.5t-32.5 18.5t-43.5 6.5q-18 0 -32.5 -3.5t-25 -10t-17 -15 t-10.5 -18.5q-3 -7 -4.5 -13t-2.5 -12.5t-1.5 -13t-0.5 -13.5q0 -12 -3.5 -23.5t-11.5 -22t-22 -17t-34 -6.5q-15 0 -28.5 6t-23.5 17t-16 27.5t-6 36.5q0 45 21 81t56.5 61t79.5 37.5t91 12.5q62 0 109 -14.5t77.5 -40.5t45.5 -61t15 -77q0 -57 -28 -96.5t-103.5 -89.5 t-75.5 -69v0zM178 69q0 17 6.5 32.5t18 27t27 18t33.5 6.5t33.5 -6.5t28 -18t19 -27t6.5 -32.5t-6.5 -32.5t-19 -27t-28 -18t-33.5 -6.5t-33.5 6.5t-27 18t-18 27t-6.5 32.5v0z" />
<glyph unicode="@" horiz-adv-x="814" d="M593 69q-19 0 -35.5 3t-29.5 9t-23 15t-16 21q-9 -17 -22.5 -30t-29.5 -21.5t-34 -12.5t-36 -4q-35 0 -64.5 14t-51.5 39.5t-33.5 59.5t-11.5 74q0 43 13.5 79t37 61.5t54 39t64.5 13.5q15 0 29.5 -3t28.5 -9t26.5 -15.5t21.5 -22.5l17 42h87v-227q0 -15 4 -26.5t11 -19 t16.5 -11t20.5 -3.5q16 0 30 8.5t24 25.5t16 43.5t6 61.5q0 67 -21 122t-60.5 93.5t-94.5 58.5t-122 20q-66 0 -123 -21t-100 -62.5t-67 -101.5t-24 -136q0 -77 25 -138.5t69.5 -103t103 -63t124.5 -21.5q30 0 60 4.5t57.5 13t52 21t44.5 27.5l24 -35q-20 -18 -46 -32.5 t-57 -25.5t-65.5 -16.5t-69.5 -5.5q-77 0 -146 24.5t-122 73t-82.5 119t-29.5 158.5q0 87 28.5 156.5t79.5 117.5t119 73t146 25q80 0 145.5 -24.5t112.5 -69.5t71.5 -107.5t24.5 -137.5q0 -54 -13.5 -94t-38 -65.5t-56.5 -38t-69 -12.5v0zM409 137q8 0 16 1.5t15.5 4.5 t14 7.5t12.5 10.5v158q-5 7 -11.5 12t-14 8.5t-15.5 5t-17 1.5q-19 0 -35 -7t-27 -20.5t-17 -33.5t-6 -44q0 -26 6.5 -45.5t18 -32.5t27 -19.5t33.5 -6.5v0z" />
<glyph unicode="A" horiz-adv-x="788" d="M390 531l-79 -239h158l-77 239h-2zM360 79v-79h-339v79l80 14l179 503l-110 15v79h449v-79l-111 -14l179 -504l80 -14v-79h-340v79l106 14l-32 101h-222l-33 -100z" />
<glyph unicode="B" horiz-adv-x="754" d="M691 510q0 -28 -8 -52t-23 -44t-36 -35.5t-48 -26.5q34 -7 60 -22.5t42.5 -37t24.5 -47t8 -52.5q0 -42 -14.5 -77.5t-42.5 -61.5t-68 -40t-89 -14h-468v79l115 15v501l-115 16v79h457q47 0 85.5 -13.5t65 -37.5t40.5 -57t14 -72v0zM421 589h-114v-185h121q24 0 43 6 t32.5 17.5t21 29t7.5 39.5q0 23 -7.5 40.5t-22 29t-35 17.5t-46.5 6v0zM428 296h-121v-195h122q27 0 48.5 6t36.5 18.5t23 31t8 43.5q0 24 -8 42t-23 30t-36.5 18t-49.5 6v0z" />
<glyph unicode="C" horiz-adv-x="704" d="M363 -23q-68 0 -128 24.5t-105.5 72.5t-71 117t-24.5 156q0 82 24.5 149.5t68 115.5t100.5 73.5t121 25.5q25 0 49.5 -5t47 -15t41 -24.5t32.5 -32.5l13 74h78l46 -270l-80 -19l-24 47q-16 32 -35 55.5t-40 38.5t-44 22t-49 7q-42 0 -75.5 -16t-57 -47t-36 -77 t-12.5 -105q0 -63 15 -109.5t42 -76t62.5 -43.5t77.5 -14q31 0 56 8t44.5 23t35 37t27.5 51l88 -33q-14 -49 -38 -87.5t-59.5 -66t-82.5 -42t-107 -14.5v0z" />
<glyph unicode="D" horiz-adv-x="773" d="M418 690q71 0 131 -22t103.5 -65.5t67 -106.5t23.5 -144q0 -83 -24 -148.5t-68.5 -111t-105.5 -69t-134 -23.5h-382v79l115 15v501l-115 16v79h389zM395 589h-88v-488h96q40 0 71.5 15.5t54 46.5t34.5 77.5t12 107.5q0 56 -12.5 101t-36 76.5t-57 47.5t-74.5 16v0z" />
<glyph unicode="E" horiz-adv-x="744" d="M29 0v79l115 15v501l-115 16v79h619l55 -229l-79 -24l-84 152h-233v-194h118l20 94h80v-281h-80l-20 87h-118v-194h260l75 189l76 -16l-38 -274h-651z" />
<glyph unicode="F" horiz-adv-x="711" d="M424 79v-79h-395v79l115 15v501l-115 16v79h618l56 -235l-77 -24l-87 158h-232v-201h121l20 94h80v-281h-80l-20 87h-121v-193z" />
<glyph unicode="G" horiz-adv-x="770" d="M753 271l-71 -11v-266h-78l-37 101q-14 -29 -34.5 -51.5t-47 -37t-58 -22t-67.5 -7.5q-64 0 -123 23.5t-105 70t-72.5 114.5t-26.5 154t26 155.5t72 118t105.5 73.5t124.5 25q32 0 59.5 -7t50 -19t39 -27.5t29.5 -34.5l15 86h79l46 -271l-83 -19l-24 47q-16 30 -33 52.5 t-38.5 38.5t-47.5 24t-58 8q-43 0 -78.5 -15t-61 -45.5t-39.5 -76.5t-14 -107q0 -59 13.5 -106t38 -78.5t59 -48t75.5 -16.5q27 0 51.5 9.5t44.5 29t32.5 50t14.5 71.5l-110 15v78h332v-78z" />
<glyph unicode="H" horiz-adv-x="888" d="M473 79l109 14v206h-275v-206l109 -14v-79h-387v79l115 15v501l-115 16v79h387v-79l-109 -15v-192h275v192l-109 15v79h386v-79l-115 -16v-501l115 -15v-79h-386v79z" />
<glyph unicode="I" horiz-adv-x="451" d="M422 0h-393v79l115 15v501l-115 16v79h393v-79l-115 -16v-500l115 -16v-79z" />
<glyph unicode="J" horiz-adv-x="602" d="M226 -23q-33 0 -61.5 5t-52 14.5t-42 23t-32.5 30.5q-9 10 -15 20t-10 19.5t-5.5 18.5t-1.5 17q0 15 5 28t14 23t22.5 15.5t30.5 5.5q15 0 26 -4.5t18.5 -12t12 -15t14.5 -24.5q6 -10 12 -18t14.5 -14t21 -10t28.5 -4q22 0 39.5 8.5t29.5 25.5t18 41.5t6 55.5v370 l-116 15v79h379v-79l-101 -15v-385q0 -52 -16.5 -95t-49 -74.5t-80.5 -48t-108 -16.5v0z" />
<glyph unicode="K" horiz-adv-x="808" d="M386 0h-357v79l115 15v501l-115 16v79h362v-79l-87 -13v-249l227 251l-82 11v79h333v-79l-90 -17l-193 -201l197 -298l86 -16v-79h-338v79l76 10l-126 195l-90 -94v-98l82 -13v-79z" />
<glyph unicode="L" horiz-adv-x="712" d="M29 690h403v-79l-125 -16v-494h237l83 189l77 -16l-49 -274h-626v79l115 15v501l-115 16v79z" />
<glyph unicode="M" horiz-adv-x="1114" d="M651 690h435v-79l-111 -14v-504l111 -14v-79h-347v79l90 15v385l-225 -483h-98l-223 475l1 -378l91 -14v-79h-346v79l111 15v502l-111 15v79h443v-79l-105 -12l195 -425l193 423l-104 14v79z" />
<glyph unicode="N" horiz-adv-x="886" d="M480 690h378v-79l-112 -16v-599h-117l-343 447l1 -348l121 -16v-79h-379v79l111 16v500l-111 16v79h393v-79l-97 -12l277 -368v363l-122 17v79z" />
<glyph unicode="O" horiz-adv-x="776" d="M742 344q0 -82 -26 -149.5t-74.5 -116.5t-114 -75t-143.5 -26q-75 0 -139.5 26t-112 75t-73.5 117t-26 149q0 82 26.5 149.5t75 116.5t114.5 75t143 26q75 0 139 -26t111.5 -75t73.5 -117t26 -149v0zM201 343q0 -59 14 -105t39 -78t59.5 -48t74.5 -16t74.5 16t59.5 48 t39 78t14 105t-14 105.5t-39 78t-59.5 47.5t-74.5 16q-41 0 -75 -16t-59.5 -47.5t-39 -78t-13.5 -105.5v0z" />
<glyph unicode="P" horiz-adv-x="728" d="M433 79v-79h-404v79l115 15v501l-115 16v79h462q49 0 87.5 -15t65.5 -44t41 -69.5t14 -90.5q0 -52 -18.5 -94t-50.5 -71t-74.5 -43.5t-89.5 -14.5h-159v-153zM420 588h-113v-238h111q25 0 45.5 8t35.5 23.5t23.5 38.5t8.5 53t-8 52.5t-22.5 36t-35 20t-45.5 6.5v0z" />
<glyph unicode="Q" horiz-adv-x="775" d="M757 3l30 -48q-6 -16 -18.5 -30.5t-30 -25t-38.5 -16.5t-45 -6t-44.5 4t-42 15.5t-43 34t-41.5 58.5q-12 -3 -24 -5t-24.5 -3.5t-25 -2.5t-25.5 -1q-75 0 -140 26t-112.5 75t-73.5 117t-26 149q0 82 26.5 149.5t75 116.5t114 75t142.5 26q76 0 140.5 -26t112 -75 t73.5 -117t26 -149q0 -49 -9.5 -93.5t-28 -83t-45 -69.5t-59.5 -55q10 -19 20 -32.5t20 -22t22 -12.5t26 -4q9 0 18 2t18 6t17 9.5t15 13.5v0zM199 343q0 -22 2 -42.5t5.5 -39t8.5 -35t12 -31.5q6 23 19.5 42.5t32.5 33.5t41 21.5t45 7.5q22 0 42 -4.5t41 -17.5t43.5 -38.5 t44.5 -66.5q10 16 18 34.5t13.5 40t8 45.5t2.5 50q0 59 -14 105.5t-39.5 78t-60.5 47.5t-76 16t-76 -16t-60 -47.5t-39 -78t-14 -105.5v0zM388 91q6 0 11.5 0.5l11 1t11 1.5t10.5 2q-13 26 -24 43t-22 27.5t-23 15t-27 4.5q-10 0 -20 -2.5t-19.5 -8t-18 -14t-13.5 -20.5 q12 -12 26 -21.5t29.5 -16t32.5 -9.5t35 -3v0z" />
<glyph unicode="R" horiz-adv-x="810" d="M436 588h-129v-205h130q25 0 46 6.5t35.5 19t22.5 32t8 45.5q0 27 -8 46.5t-23 32t-35.5 18t-46.5 5.5v0zM425 79v-79h-396v79l115 15v501l-115 16v79h481q48 0 86.5 -14.5t65.5 -41.5t41 -65t14 -85q0 -37 -11 -69t-31 -57t-46.5 -43t-57.5 -28l96 -188l124 -20v-79 h-239l-137 275h-108v-181z" />
<glyph unicode="S" horiz-adv-x="642" d="M501 438l-25 48q-14 26 -32 46t-40 33t-47 19.5t-53 6.5q-26 0 -45.5 -5.5t-32.5 -15.5t-19 -24t-6 -31q0 -22 10.5 -38t29.5 -27.5t42.5 -20t61.5 -19.5q63 -19 106 -35.5t77.5 -41t54 -61.5t19.5 -88q0 -47 -16.5 -85t-48 -65.5t-75.5 -42t-98 -14.5q-34 0 -63.5 6 t-53.5 17t-43.5 27.5t-35.5 37.5l-11 -74h-83l-41 265l74 20l36 -65q16 -29 36 -51t43.5 -37t51 -22.5t58.5 -7.5q28 0 48.5 6t34 16.5t20 26t6.5 34.5q0 20 -8.5 35t-26 26.5t-45.5 21.5t-72 22q-45 12 -81.5 25.5t-74 38.5t-62 65.5t-24.5 95.5q0 47 17.5 85t49 65t73 41 t88.5 14q28 0 53.5 -5.5t47.5 -16t40.5 -26t32.5 -36.5l13 82h80l41 -252z" />
<glyph unicode="T" horiz-adv-x="719" d="M88 434l-75 21l49 235h594l49 -236l-74 -21l-83 156h-107v-495l115 -15v-79h-390v79l112 15v495h-108z" />
<glyph unicode="U" horiz-adv-x="817" d="M441 690h355v-79l-100 -15v-360q0 -57 -19.5 -104.5t-56.5 -82.5t-89.5 -53.5t-117.5 -18.5q-68 0 -122.5 17.5t-92 51t-57.5 80.5t-20 105v365l-100 15v79h363v-79l-101 -15v-360q0 -32 9 -58t26 -44t41.5 -27.5t55.5 -9.5q32 0 57 9.5t42 27.5t26 44t9 58v359l-108 16 v79z" />
<glyph unicode="V" horiz-adv-x="788" d="M429 611v79h338v-79l-81 -14l-215 -600h-155l-215 600l-80 14v79h340v-79l-101 -14l138 -426l138 425z" />
<glyph unicode="W" horiz-adv-x="1119" d="M309 -3l-201 599l-87 15v79h325v-79l-86 -14l118 -380h1l115 378l-89 16v79h320v-79l-89 -14l119 -386l114 386l-85 14v79h315v-79l-87 -15l-198 -599h-119l-137 432l-128 -432h-121z" />
<glyph unicode="X" horiz-adv-x="765" d="M22 611v79h331v-79l-75 -10l107 -165l108 164l-78 11v79h328v-79l-93 -17l-176 -240l196 -261l74 -14v-79h-337v79l97 12l-127 180l-122 -180l90 -12v-79h-324v79l73 14l193 260l-174 241z" />
<glyph unicode="Y" horiz-adv-x="747" d="M565 0h-383v79l110 15v146l-188 355l-83 16v79h322v-79l-81 -12l115 -240h1l113 238l-82 14v79h317v-79l-83 -13l-188 -360v-144l110 -15v-79z" />
<glyph unicode="Z" horiz-adv-x="647" d="M225 101h259l76 185l76 -16l-40 -270h-568v73l388 516h-237l-80 -156l-78 24l53 233l1 -1v1h536v-79z" />
<glyph unicode="[" horiz-adv-x="393" d="M42 690h301v-73l-161 -22v-630l161 -22v-73h-301v820z" />
<glyph unicode="\" horiz-adv-x="484" d="M375 -169l-418 929h164l418 -929h-164z" />
<glyph unicode="]" horiz-adv-x="393" d="M50 690h301v-820h-301v73l161 22v630l-161 22v73z" />
<glyph unicode="^" d="M246 672h107l184 -314v-3h-130l-108 188l-107 -188h-130v3z" />
<glyph unicode="_" horiz-adv-x="452" d="M-5 -78h462v-104h-462v104z" />
<glyph unicode="`" d="M312 576l-154 131v4h159l102 -131v-4h-107z" />
<glyph unicode="a" horiz-adv-x="572" d="M244 79q13 0 24.5 2.5t21.5 6.5t19 9.5t19 13.5v103q-41 1 -70.5 -4.5t-48 -15.5t-27.5 -24.5t-9 -32.5q0 -14 5 -24.5t14 -18t22.5 -11.5t29.5 -4v0zM264 522q48 0 87.5 -10.5t68.5 -34t45 -61t16 -90.5v-189q0 -15 2.5 -26t6.5 -17.5t10.5 -9.5t14.5 -3q4 0 7.5 1 t7 2.5t6.5 3.5l6 4l11 -53q-5 -10 -14 -19t-22.5 -16t-30 -11.5t-35.5 -4.5q-20 0 -37.5 4t-31.5 11.5t-24.5 19.5t-16.5 27q-11 -15 -26 -28t-33.5 -23t-41.5 -15.5t-49 -5.5q-34 0 -63.5 10t-51.5 29t-34.5 45.5t-12.5 57.5q0 50 25 84.5t67.5 54t95.5 27.5t111 7v46 q0 22 -5 38t-14.5 25.5t-23 13.5t-31.5 4q-12 0 -21 -2t-17.5 -7.5t-16 -15t-15.5 -24.5q-6 -12 -12 -20t-13.5 -14t-18 -9t-24.5 -3q-13 0 -25 5t-21.5 14t-14.5 21t-5 26q0 8 1.5 17t6 18.5t12.5 20t19 21.5q15 14 34.5 24.5t41.5 17t46.5 9.5t52.5 3v0z" />
<glyph unicode="b" horiz-adv-x="611" d="M581 258q0 -63 -19 -115t-53.5 -89t-80 -56.5t-98.5 -19.5q-26 0 -48.5 5t-41 14.5t-33 22.5t-26.5 29l-46 -49h-60v613q-16 -3 -32 -3.5t-30.5 1.5t-28 6t-23.5 10v61q28 -4 55 -0.5t52 12.5t47 23t40 32l74 -10v-300q11 19 26 33t33 24t38.5 15t43.5 5q47 0 86 -19.5 t67 -55.5t43 -84.5t15 -104.5v0zM312 412q-14 0 -26 -2.5t-22.5 -8t-19 -12.5t-15.5 -16v-263q7 -7 15.5 -12.5t18 -9t19.5 -5.5t21 -2q28 0 52 11t41 33t26 53.5t9 71.5q0 39 -8 69t-23.5 51t-37.5 31.5t-50 10.5v0z" />
<glyph unicode="c" horiz-adv-x="541" d="M292 -22q-59 0 -108 19.5t-83.5 56t-52.5 86.5t-18 110q0 62 19.5 113t55 86.5t84.5 54t107 18.5q53 0 93.5 -14.5t66.5 -37.5t38.5 -47.5t12.5 -44.5q0 -13 -5 -25.5t-14 -22t-21.5 -15t-28.5 -5.5q-14 0 -25 4t-18 10.5t-12 14.5t-10 19q-6 15 -13.5 25.5t-17 17.5 t-20.5 10.5t-25 3.5q-28 0 -50 -11t-37.5 -32.5t-24 -52.5t-8.5 -70t8.5 -69t25 -51t40.5 -32t56 -11q23 0 41.5 5t33.5 15t27.5 23.5t22.5 32.5l79 -32q-12 -38 -32 -67t-47.5 -47.5t-62.5 -28t-77 -9.5v0z" />
<glyph unicode="d" horiz-adv-x="626" d="M298 88q13 0 25 2.5t22 7.5t19 12.5t16 17.5v262q-7 7 -16 12.5t-18.5 9t-20 5.5t-21.5 2q-29 0 -52.5 -11.5t-40 -33.5t-25.5 -53t-9 -70q0 -41 9.5 -72t26 -51t38.5 -30t47 -10v0zM534 745v-667h74v-77l-210 -11l-7 4l-2 77q-12 -24 -28 -41.5t-35.5 -29t-42 -17 t-47.5 -5.5q-46 0 -84 20t-65.5 56t-42 84.5t-14.5 104.5q0 63 17.5 115t49.5 88.5t75 56t93 19.5q15 0 30 -2.5t30 -7.5t29 -13t26 -18v132q-16 -3 -32 -3.5t-31 1.5t-28.5 6t-23.5 10v61q28 -4 55 -0.5t52 12.5t47 23t40 32z" />
<glyph unicode="e" horiz-adv-x="559" d="M310 83q21 0 39 4.5t33 13t26.5 21.5t20.5 31l81 -36q-10 -32 -29 -57.5t-46 -44t-62.5 -28t-77.5 -9.5q-58 0 -106.5 19.5t-84.5 56t-55 86.5t-19 109t19 109.5t53.5 87t81.5 56.5t102 20q54 0 98 -19t75 -53.5t47.5 -79.5t16.5 -95v-12t-0.5 -14.5l-1 -15t-1.5 -12.5 h-346q3 -35 12.5 -60.5t26.5 -43t41.5 -26t55.5 -8.5v0zM286 419q-22 0 -40 -7.5t-31.5 -22t-22.5 -35.5t-13 -47h204q-1 28 -9 49.5t-21.5 35t-30.5 20.5t-36 7v0z" />
<glyph unicode="f" horiz-adv-x="416" d="M23 467l96 26v51q0 58 15.5 99t43 66.5t63.5 37t78 11.5q32 0 61 -8.5t50.5 -24t33.5 -36t12 -43.5q0 -15 -5.5 -27.5t-15 -21.5t-21.5 -13.5t-25 -4.5q-21 0 -33 9t-24 26t-20 25t-24 8q-10 0 -18.5 -3.5t-14.5 -11t-9.5 -18.5t-3.5 -26q0 -9 0.5 -19.5t1.5 -21t3 -27.5 t2 -20h119v-99h-116v-310l118 -15v-76h-361v76l90 13v312h-96v66z" />
<glyph unicode="g" horiz-adv-x="530" d="M272 149h-40q-16 0 -28.5 -2t-20 -5.5t-11 -8t-3.5 -9.5q0 -8 5.5 -13t17.5 -8.5t30.5 -6t48.5 -5.5q62 -6 108 -18.5t76 -32.5t45 -48.5t15 -64.5q0 -34 -16 -64.5t-49 -54t-84.5 -37t-120.5 -13.5q-59 0 -104.5 10t-76 28t-45.5 42t-15 52q0 20 6.5 38t19.5 33.5 t32.5 26.5t44.5 16q-14 6 -26 14.5t-20 19t-12.5 22t-4.5 23.5q0 15 5.5 29.5t16 27t27.5 22t39 14.5q-20 10 -37 25.5t-30.5 35.5t-21 44.5t-7.5 51.5q0 42 16 76.5t46 60t72 39t92 13.5q12 0 24 -1t23.5 -3t22 -5t21.5 -7v1q0 24 7.5 46t21.5 38t33 25t41 9q14 0 27 -4.5 t22.5 -13.5t14.5 -20.5t5 -24.5t-5 -24.5t-14 -20.5t-21.5 -14.5t-27.5 -5.5q-9 0 -16 -2.5t-11 -6t-6 -9t-2 -12.5q15 -13 27.5 -28.5t21 -32.5t13 -36t4.5 -38q0 -42 -16 -76t-45 -58t-68.5 -36.5t-86.5 -12.5v0zM262 429q-20 0 -36 -6.5t-28 -18.5t-18.5 -29.5 t-6.5 -39.5q0 -23 6.5 -41.5t18.5 -30.5t28.5 -18.5t35.5 -6.5q18 0 34 6.5t28 19t19 30.5t7 40t-7 40t-19 30t-28 18.5t-34 6.5v0zM263 -29l-76 10q-11 -5 -20 -13t-15 -16.5t-9 -17.5t-3 -17q0 -14 6 -25.5t19 -21t35 -14.5t53 -5q29 0 50.5 4.5t35 12.5t20 19t6.5 23 q0 10 -4.5 19t-15.5 17t-31 14.5t-51 10.5v0z" />
<glyph unicode="h" horiz-adv-x="732" d="M398 72l71 14v208q0 28 -5.5 48.5t-16.5 33.5t-26.5 19.5t-36.5 6.5q-17 0 -33 -4.5t-30 -12.5t-26 -19.5t-21 -26.5v-254l70 -13v-72h-315v76l91 14v523q-16 -3 -32 -3.5t-31 1.5t-28.5 6t-23.5 10v61q28 -4 55 -0.5t52 12.5t47.5 23t40.5 32l74 -10v-324q15 24 34 42.5 t42 31.5t49 20t54 7q39 0 70.5 -13.5t53.5 -38.5t33.5 -60.5t11.5 -78.5v-242l83 -13v-76h-307v72z" />
<glyph unicode="i" horiz-adv-x="391" d="M114 669q0 18 7 34.5t19.5 28.5t29 19t34.5 7q19 0 35.5 -7t29 -19t19.5 -28.5t7 -34.5t-7 -34.5t-19.5 -28.5t-29 -19t-35.5 -7q-18 0 -34.5 7t-29 19t-19.5 28.5t-7 34.5v0zM29 76l93 14v294q-16 -3 -32 -3t-31.5 1.5t-28.5 5.5t-23 10v61q24 -3 50 -0.5t51.5 10.5 t48.5 21.5t42 30.5l76 -11v-421l90 -13v-76h-336v76z" />
<glyph unicode="j" horiz-adv-x="340" d="M105 669q0 18 7 34.5t19.5 28.5t29 19t34.5 7q19 0 35.5 -7t29 -19t19.5 -28.5t7 -34.5t-7 -34.5t-19.5 -28.5t-29 -19t-35.5 -7q-18 0 -34.5 7t-29 19t-19.5 28.5t-7 34.5v0zM64 -242q-31 0 -57.5 7t-46 20t-30.5 31t-11 38q0 15 5 27t13.5 20.5t20 13t24.5 4.5 q15 0 25 -6t21.5 -18.5t19.5 -18t20 -5.5t21.5 4t16 12.5t10.5 22t4 32.5q0 12 -1 26.5t-2.5 38t-2.5 39.5t-1 30v308q-16 -3 -32 -3t-31 2t-28.5 5.5t-23.5 9.5v61q24 -3 50 -0.5t52 10.5t49 21.5t42 30.5l76 -11v-536q0 -55 -13.5 -95.5t-39 -67.5t-63.5 -40t-87 -13v0z " />
<glyph unicode="k" horiz-adv-x="681" d="M382 72l51 9l-84 127l-74 -68v-57l52 -11v-72h-298v76l92 14v523q-16 -3 -32 -3.5t-31.5 1.5t-29 6t-23.5 10v61q28 -4 55 -0.5t52 12.5t47.5 23t40.5 32l75 -10v-479l147 150l-70 11v73h295v-77l-77 -13l-124 -114l142 -209l71 -11v-76h-277v72z" />
<glyph unicode="l" horiz-adv-x="389" d="M29 76l92 14v523q-16 -3 -32 -3.5t-31.5 1.5t-29 6t-23.5 10v61q28 -4 55 -0.5t52 12.5t47.5 23t40.5 32l75 -10v-656l88 -13v-76h-334v76z" />
<glyph unicode="m" horiz-adv-x="1029" d="M385 72l59 12v209q0 28 -4.5 48.5t-13.5 33.5t-22.5 19.5t-32.5 6.5q-14 0 -28 -4t-26 -11.5t-22.5 -18t-19.5 -23.5v-260l55 -12v-72h-301v76l93 14v294q-16 -3 -32 -3t-31.5 1.5t-29 5.5t-23.5 10v61q26 -3 51.5 0t49.5 11t45 21t38 30l74 -10v-106q14 28 33 50 t41.5 37t47.5 22.5t52 7.5q26 0 49 -7.5t42 -22.5t33 -36t23 -47q14 26 32.5 47t41 35.5t49 22.5t55.5 8q37 0 66 -13.5t49 -38.5t30.5 -60.5t10.5 -78.5v-243l83 -13v-75h-292v72l56 12v210q0 28 -4.5 48.5t-14 33.5t-23.5 19t-33 6q-14 0 -26.5 -3t-24.5 -9.5t-23 -16 t-21 -22.5q0 -2 0.5 -4.5t0.5 -5v-4.5v-6v-246l58 -12v-72h-270v72z" />
<glyph unicode="n" horiz-adv-x="733" d="M400 72l70 14v208q0 28 -5.5 48.5t-16.5 33.5t-26.5 19.5t-35.5 6.5q-17 0 -33 -4.5t-30 -13t-26 -21t-21 -27.5v-251l70 -13v-72h-317v76l93 14v294q-16 -3 -32 -3t-31.5 1.5t-29 5.5t-23.5 10v61q26 -3 51.5 0t49.5 11t45 21t38 30l74 -10v-111q14 28 34 51t44.5 38.5 t53 24t59.5 8.5q39 0 70.5 -13.5t53.5 -38.5t33.5 -60.5t11.5 -78.5v-242l83 -13v-76h-307v72z" />
<glyph unicode="o" horiz-adv-x="602" d="M30 251q0 59 19.5 109t56 86.5t87 56t111.5 19.5q59 0 109 -19.5t85.5 -56t55 -86.5t19.5 -109t-19.5 -109.5t-56 -87t-87.5 -56.5t-112 -20q-59 0 -108.5 20t-85.5 56.5t-55 87t-19 109.5v0zM178 249q0 -39 8.5 -70.5t25 -53t39 -33t50.5 -11.5t50.5 11t38.5 33t24.5 53 t8.5 71q0 39 -8.5 70.5t-24.5 53t-38.5 33t-50.5 11.5t-51 -11t-39 -32.5t-24.5 -53t-8.5 -71.5v0z" />
<glyph unicode="p" horiz-adv-x="643" d="M338 82q28 0 51.5 11.5t40 33t25.5 53t9 70.5t-8 69t-23 51t-37 32t-49 11q-14 0 -27 -3.5t-23.5 -9.5t-19.5 -14t-16 -18v-256q7 -7 15.5 -13t18.5 -9.5t20.5 -5.5t22.5 -2v0zM17 -142l91 14v512q-16 -3 -32 -3t-31.5 1.5t-29 5.5t-23.5 10v61q26 -3 52 0t49.5 11 t44.5 21t38 30l75 -10v-79q11 22 26.5 38.5t35 28t42.5 17.5t48 6q47 0 86 -19.5t66.5 -55t42.5 -84t15 -104.5q0 -62 -18.5 -114t-52 -89.5t-76.5 -57.5t-92 -20q-15 0 -30.5 2t-29.5 6.5t-27.5 10.5t-25.5 15v-140l95 -14v-76h-339v76z" />
<glyph unicode="q" horiz-adv-x="610" d="M534 508v-636l94 -14v-76h-348v73l100 16v173q-12 -16 -27.5 -28t-33 -20.5t-37 -12.5t-40.5 -4q-48 0 -87.5 19.5t-67 55t-42.5 83t-15 102.5q0 64 18.5 117t52.5 90t79 57t98 20q24 0 45.5 -5t40 -15t33.5 -24t26 -32l51 61h60zM297 88q13 0 25 2.5t22.5 7t19.5 11 t16 14.5v256q-7 10 -16 17.5t-19.5 12.5t-21.5 7.5t-23 2.5q-29 0 -51.5 -11t-38.5 -32.5t-24.5 -52.5t-8.5 -71q0 -41 9.5 -72t26 -51.5t38 -30.5t46.5 -10v0z" />
<glyph unicode="r" horiz-adv-x="522" d="M345 377q-11 0 -21 -4t-18.5 -11t-16 -17.5t-13.5 -23.5v-232l98 -13v-76h-346v76l94 14v294q-16 -3 -32 -3t-31.5 1.5t-29 5.5t-23.5 10v61q26 -3 51.5 0t49.5 11t45 21t38 30l74 -10v-120q10 29 25 53t34 41.5t41.5 27t46.5 9.5q20 0 36.5 -6t28 -17.5t17.5 -26.5 t6 -33q0 -15 -5.5 -29.5t-16 -26t-25 -18t-31.5 -6.5q-11 0 -18.5 2t-18.5 6.5t-19.5 7t-19.5 2.5v0z" />
<glyph unicode="s" horiz-adv-x="514" d="M463 330l-77 -15l-21 34q-12 18 -25.5 31.5t-28 22t-30.5 12.5t-35 4q-20 0 -33.5 -4t-22 -10.5t-12 -15.5t-3.5 -19q0 -15 8.5 -25t24.5 -17.5t2.5 -3.5t91.5 -27q45 -14 77.5 -29t54 -34.5t32.5 -45t11 -59.5q0 -30 -11 -57.5t-33 -48.5t-55 -33t-75 -12q-24 0 -47 4 t-44 13t-40 22.5t-34 32.5l-5 -62h-78l-31 193l78 18l19 -35q13 -21 29 -37t34.5 -26.5t39 -15.5t41.5 -5q18 0 31.5 3t22.5 9t13.5 15t4.5 21t-6 22t-19 18t-33.5 15.5t-52.5 17.5q-40 12 -69.5 23.5t-57 30.5t-44 47.5t-16.5 68.5q0 34 12.5 62t35.5 48t54 30.5t67 10.5 q22 0 41.5 -4t37.5 -12t33 -19t28 -26l11 62h74z" />
<glyph unicode="t" horiz-adv-x="443" d="M361 141l74 -42q-8 -30 -23.5 -52.5t-38 -38t-51.5 -23t-64 -7.5q-38 0 -70.5 12.5t-57 38.5t-38.5 65.5t-14 91.5v215h-89v66l99 28l66 173h78v-168h153v-99h-153v-232q0 -20 4.5 -34.5t12.5 -24t19.5 -14t24.5 -4.5q12 0 22 3t18.5 9.5t15.5 15.5t12 21v0z" />
<glyph unicode="u" horiz-adv-x="678" d="M260 -22q-42 0 -73.5 13.5t-53 37.5t-32 57.5t-10.5 74.5v220q-14 -1 -27.5 -0.5t-26 2.5t-23 6t-19.5 9v61q23 -3 46.5 -0.5t46.5 10.5t44.5 21t39.5 31l73 -10v-311q0 -27 5.5 -47t16 -32.5t26.5 -19t37 -6.5q16 0 30.5 3.5t28 10.5t25 17t20.5 23v233 q-15 -2 -29.5 -1.5t-28 2.5t-25.5 6t-22 9v61q23 -3 47.5 -0.5t49 10.5t47 21t40.5 31l75 -10v-433h72v-77l-208 -11l-6 4l-3 93q-14 -26 -34 -46t-43.5 -34t-50.5 -21.5t-55 -7.5v0z" />
<glyph unicode="v" horiz-adv-x="629" d="M615 424l-56 -9l-176 -418h-137l-177 418l-56 9v76h274v-73l-72 -10l101 -279h1l101 279l-76 10v73h273v-76z" />
<glyph unicode="w" horiz-adv-x="881" d="M324 500h240v-73l-55 -11l84 -253h4l77 252l-55 12v73h248v-76l-58 -10l-154 -416h-120l-96 282l-96 -282h-116l-155 416l-59 10v76h256v-73l-55 -12l75 -252h4l86 253l-55 11v73z" />
<glyph unicode="x" horiz-adv-x="632" d="M19 76l66 8l135 168l-130 163l-67 9v76h270v-73l-50 -8l77 -103l75 103l-48 8v73h262v-76l-63 -9l-131 -163l136 -168l62 -8v-76h-272v72l53 9l-80 105l-79 -105l51 -9v-72h-267v76z" />
<glyph unicode="y" horiz-adv-x="628" d="M221 -37l20 51l-170 401l-58 8v77h272v-73l-65 -10l96 -246h1l98 246l-75 10v73h274v-77l-55 -8l-211 -485q-20 -45 -42.5 -77t-50.5 -53t-61.5 -31t-75.5 -10q-31 0 -56.5 7t-44.5 19.5t-29 29.5t-10 37q0 16 5.5 29t15 22t21.5 13.5t25 4.5q17 0 28 -6t22.5 -17 t18.5 -16t19 -5q11 0 22.5 4.5t23 14.5t22.5 26.5t20 40.5v0z" />
<glyph unicode="z" horiz-adv-x="547" d="M222 91h174l56 127l69 -16l-35 -202h-455v57l280 352h-147l-62 -106l-68 15l41 182h418v-62z" />
<glyph unicode="{" horiz-adv-x="418" d="M135 161q0 14 -3.5 25t-12.5 19.5t-23.5 13t-35.5 4.5h-49v103h49q21 0 35.5 5t23.5 13.5t12.5 19.5t3.5 25q0 19 -3.5 36t-10.5 46.5t-11 51.5t-4 47q0 48 25 77.5t63.5 42.5t80 13t74.5 -8v-92q-28 5 -49 4t-35 -7.5t-21.5 -18.5t-7.5 -31q0 -15 3.5 -30t10.5 -41 t10.5 -45t3.5 -38q0 -20 -6 -38.5t-16.5 -33.5t-25.5 -27.5t-34 -22.5q19 -9 34 -21t25.5 -27.5t16.5 -33.5t6 -38q0 -19 -3.5 -38t-10.5 -45.5t-10.5 -41.5t-3.5 -30q0 -18 7.5 -30.5t21.5 -19t35 -7.5t49 4v-91q-32 -8 -73.5 -7.5t-80 13t-64 42t-25.5 77.5q0 25 4 47 t11 51t10.5 46.5t3.5 36.5v0z" />
<glyph unicode="|" horiz-adv-x="233" d="M189 -167h-145v927h145v-927z" />
<glyph unicode="}" horiz-adv-x="418" d="M358 223q-21 0 -35.5 -4.5t-23.5 -13t-12.5 -19.5t-3.5 -25q0 -19 3.5 -36.5t10.5 -46.5t11 -51t4 -47q0 -48 -25.5 -77.5t-64 -42t-80 -13t-73.5 7.5v91q28 -5 49 -4t35 7.5t21.5 19t7.5 30.5q0 15 -3.5 30t-10.5 41.5t-10.5 45.5t-3.5 38q0 20 6 38t16.5 33.5 t25.5 27.5t34 21q-19 10 -34 22.5t-25.5 27.5t-16.5 33.5t-6 38.5q0 19 3.5 38t10.5 45t10.5 41t3.5 30q0 19 -7.5 31t-21.5 18.5t-35 7.5t-49 -4v92q33 8 74.5 8t80 -13t63.5 -42.5t25 -77.5q0 -25 -4 -47t-11 -51.5t-10.5 -46.5t-3.5 -36q0 -14 3.5 -25t12.5 -19.5 t23.5 -13.5t35.5 -5h49v-103h-49z" />
<glyph unicode="~" horiz-adv-x="556" d="M382 303q-28 0 -53.5 10t-58 29.5t-48.5 27.5t-33 8q-12 0 -22 -4.5t-16.5 -12.5t-10 -19.5t-3.5 -25.5h-104q-1 44 8.5 76.5t28 53.5t45.5 31.5t61 10.5q29 0 55 -10t59.5 -30t48 -27.5t30.5 -7.5q12 0 22 4.5t16.5 12.5t10 19.5t3.5 25.5h104q1 -43 -8 -76t-28 -54 t-46 -31.5t-61 -10.5v0z" />
<glyph unicode="&#xa1;" horiz-adv-x="276" d="M135 381q-18 0 -33.5 6.5t-27.5 18t-18.5 27t-6.5 32.5t6.5 32.5t18.5 27t27.5 18t33.5 6.5t33.5 -6.5t27.5 -18t18.5 -27t6.5 -32.5t-6.5 -32.5t-18.5 -27t-27.5 -18t-33.5 -6.5v0zM222 -198h-172q0 44 5.5 124t13.5 167t15 152.5t9 76.5h86q2 -11 9 -76.5t15 -152.5 t13.5 -167t5.5 -124v0z" />
<glyph unicode="&#xa2;" horiz-adv-x="538" d="M259 -100v93q-52 4 -95 25t-73 55.5t-46 80t-16 99.5q0 58 16.5 105.5t47.5 83t73 56.5t93 27v102h60v-100q30 -2 56 -9t47 -18t37 -25.5t28 -32.5q5 -7 9 -14t7 -14.5t4.5 -15t1.5 -15.5q0 -15 -5.5 -27.5t-15 -21.5t-21 -14t-23.5 -5q-15 0 -26 3.5t-18.5 9.5 t-13.5 14.5t-11 20.5q-6 11 -12.5 19t-13 14t-14 9.5t-16.5 5.5v-315q19 2 34.5 8t29 15.5t24 23.5t19.5 32l82 -33q-11 -34 -28 -60.5t-40.5 -45.5t-53.5 -30t-67 -14v-92h-60zM177 253q0 -30 5 -55t15.5 -44t25.5 -32t36 -20v307q-19 -6 -34.5 -19t-26 -33t-16 -46 t-5.5 -58v0z" />
<glyph unicode="&#xa3;" horiz-adv-x="652" d="M164 53q11 0 21 2t19 6.5t15.5 11t10.5 15.5q-10 7 -18.5 12.5t-18 10t-19 6.5t-20.5 2q-9 0 -16.5 -2t-13 -6t-8.5 -10t-3 -14t4 -14t10.5 -10.5t16 -7t20.5 -2.5v0zM51 277v72h71q-9 19 -17 37.5t-13.5 37.5t-8.5 37.5t-3 35.5q0 42 15 78.5t45 64t74.5 42.5t102.5 15 q47 0 88.5 -12t73 -34t48.5 -51.5t17 -63.5q0 -18 -5.5 -32.5t-15 -25t-22 -16t-27.5 -5.5q-16 0 -28 4.5t-20 12.5t-12.5 17t-6.5 18q-1 5 -3.5 16t-3.5 15l-2 8q-3 10 -9.5 18t-16.5 14t-24 9t-32 3q-22 0 -39 -6.5t-29 -18t-18 -28.5t-6 -38q0 -18 4 -36.5t11.5 -37.5 t16.5 -37.5t21 -40.5h172v-72h-133q9 -18 16 -34t12.5 -32t8.5 -31.5t3 -30.5v-4t-0.5 -5t-0.5 -5v-4q15 -11 27 -18.5t24.5 -13t26 -9t28.5 -3.5q18 0 31.5 4.5t24 13.5t17.5 22.5t12 31.5l79 -26q-3 -26 -14 -52t-31.5 -49t-52.5 -37t-74 -14q-24 0 -45 3.5t-39.5 10 t-34 15t-30.5 18.5q-14 -12 -30.5 -21.5t-35 -16t-37 -9.5t-36.5 -3q-32 0 -60.5 8t-49.5 23t-32.5 37t-11.5 50q0 26 10.5 47.5t29 37t44.5 23.5t56 8q6 0 12.5 -0.5t12.5 -1t11.5 -1t12.5 -1.5q-4 7 -7 12t-10.5 18.5t-12.5 21.5t-9 17h-110z" />
<glyph unicode="&#xa5;" horiz-adv-x="756" d="M407 670h324v-79l-89 -14l-88 -164h94v-72h-133l-25 -45h158v-72h-188v-130l109 -15v-79h-383v79l110 15v130h-190v72h158l-25 45h-133v72h94l-88 162l-87 16v79h328v-79l-83 -12l111 -220l110 218l-84 14v79z" />
<glyph unicode="&#xa6;" horiz-adv-x="233" d="M189 319h-145v441h145v-441zM189 -167h-145v440h145v-440z" />
<glyph unicode="&#xa7;" horiz-adv-x="519" d="M237 349q-4 2 -8.5 3.5t-14.5 5t-14 5.5q-12 -4 -20.5 -11t-14.5 -16.5t-8.5 -20.5t-2.5 -24q0 -22 9 -37.5t25.5 -26.5t37.5 -19t65 -23l18 -7q12 4 21 11t14.5 16.5t8.5 21t3 23.5q0 19 -6.5 32t-20 23.5t-34.5 20t-58 23.5v0zM493 265q0 -23 -5 -44t-14.5 -38.5 t-22.5 -32t-30 -25.5q13 -10 23 -21t17 -24.5t10.5 -30t3.5 -35.5q0 -42 -17 -73.5t-47 -52t-68.5 -30t-82.5 -9.5q-53 0 -95 12.5t-69.5 33t-41.5 45t-14 49.5q0 13 4.5 24.5t13 20.5t20.5 14.5t28 5.5q15 0 25.5 -4.5t17.5 -11.5t11 -14t9 -17q7 -15 16 -25t20 -16.5 t24 -9.5t29 -3q18 0 32 3.5t23.5 10.5t14.5 16.5t5 20.5q0 15 -8 26.5t-23 21t-35.5 18t-55.5 21.5q-41 15 -70 28t-55 34t-41.5 52t-15.5 74q0 25 5.5 47t15.5 40.5t24.5 33t31.5 25.5q-10 10 -17.5 21.5t-12.5 24.5t-8 28t-3 32q0 33 12 62.5t37 52.5t63.5 36.5t90.5 13.5 q44 0 81 -11t63 -30t40 -44t14 -52q0 -14 -5 -25.5t-14 -20t-21.5 -13t-26.5 -4.5t-24 4t-17 11t-11.5 14t-9.5 18q-6 13 -13.5 22t-16.5 14.5t-20 8t-25 2.5q-17 0 -30 -4t-21.5 -11.5t-13 -18t-4.5 -22.5q0 -16 7 -27.5t20.5 -21t33.5 -17.5t56 -20q43 -15 75 -31 t56.5 -37t38 -49.5t13.5 -65.5v0z" />
<glyph unicode="&#xa8;" d="M322 661q0 18 6.5 34t19 28t28 18.5t33.5 6.5t34.5 -6.5t28.5 -18.5t19 -28t7 -34q0 -17 -7 -32.5t-19 -27.5t-28.5 -18.5t-34.5 -6.5t-33.5 6.5t-28 18.5t-19 27.5t-6.5 32.5v0zM105 661q0 18 6.5 34t19 28t28 18.5t33.5 6.5t34 -6.5t28.5 -18.5t19 -28t6.5 -34 q0 -17 -6.5 -32.5t-19 -27.5t-28.5 -18.5t-34 -6.5t-33.5 6.5t-28 18.5t-19 27.5t-6.5 32.5v0z" />
<glyph unicode="&#xa9;" horiz-adv-x="769" d="M18 344q0 78 28 146t78.5 118t117 78t141.5 28t142 -28t117.5 -78.5t78.5 -118t28 -145.5t-28 -145.5t-78.5 -118t-117.5 -78t-142 -27.5t-141.5 27.5t-117 78t-78.5 118t-28 145.5v0zM72 344q0 -67 23.5 -126t66.5 -103t100 -68.5t121 -24.5t121 24.5t100 68.5t67 103 t24 126t-24 126t-67 103.5t-100 69t-121 24.5t-121 -24.5t-100 -69t-66.5 -103.5t-23.5 -126v0zM385 135q-45 0 -83 15.5t-64.5 43.5t-41 66.5t-14.5 83.5q0 49 15 88.5t42.5 67.5t65 43t81.5 15q23 0 45 -3.5t40.5 -11.5t34 -19t26.5 -26q5 -6 8.5 -11.5t6.5 -12.5 t4.5 -14.5t1.5 -15.5q0 -12 -4.5 -22t-12.5 -17.5t-17.5 -11.5t-19.5 -4t-18.5 2.5t-15 7t-11 11.5t-8.5 17q-5 12 -11 20t-13 13t-15.5 7t-18.5 2q-20 0 -36.5 -8.5t-27.5 -24.5t-17 -39.5t-6 -52.5q0 -30 6.5 -52.5t19 -38.5t31.5 -24t43 -8q16 0 30 4t25 11.5t20 19.5 t16 27l65 -28q-9 -30 -24.5 -52.5t-37 -37.5t-49 -22.5t-61.5 -7.5v0z" />
<glyph unicode="&#xaa;" horiz-adv-x="446" d="M194 382q8 0 16 1.5t15 4t13.5 6.5t13.5 9v77q-29 0 -50 -3.5t-34 -10.5t-19.5 -17.5t-6.5 -23.5q0 -10 3.5 -18t10.5 -13.5t16.5 -8.5t21.5 -3v0zM207 711q36 0 65.5 -8t51.5 -25.5t34.5 -45.5t12.5 -68v-140q0 -11 1.5 -19t4.5 -13t7.5 -7t10.5 -2q3 0 5.5 0.5t5.5 2 l5 2.5t4 3l8 -42q-3 -7 -10.5 -13.5t-17.5 -12t-22.5 -8.5t-26.5 -3q-16 0 -29 3t-24 8.5t-18.5 14t-12.5 20.5q-8 -11 -19 -20.5t-24.5 -17t-30.5 -11.5t-36 -4q-25 0 -47.5 7.5t-39 22t-25.5 34t-9 42.5q0 38 19 63.5t50.5 40t70 20.5t81.5 5v26q0 19 -3.5 31.5t-10.5 20 t-16.5 11t-21.5 3.5q-8 0 -14.5 -1.5t-12.5 -5t-12 -11t-12 -18.5q-4 -9 -9 -15t-10.5 -10.5t-13.5 -6.5t-19 -2q-10 0 -19.5 3.5t-16.5 10.5t-11 16.5t-4 20.5q0 6 1 12.5t4.5 13.5t9 14.5t13.5 15.5q12 11 26.5 19.5t31.5 13t35.5 7t39.5 2.5v0z" />
<glyph unicode="&#xab;" horiz-adv-x="598" d="M564 495l-182 -241l188 -254h-136l-188 246v4l189 245h129zM351 495l-186 -245l186 -250h-133l-190 244v7l193 244h130z" />
<glyph unicode="&#xad;" horiz-adv-x="385" d="M50 369h285v-103h-285v103z" />
<glyph unicode="&#xae;" horiz-adv-x="441" d="M14 506q0 44 16 82t44.5 67t66 44.5t79.5 15.5q43 0 80.5 -15.5t66 -44t44.5 -67t16 -82.5t-16 -82t-44.5 -66.5t-66 -44t-80.5 -15.5q-42 0 -79.5 15.5t-66 44t-44.5 66.5t-16 82v0zM49 506q0 -36 13 -68.5t37 -56.5t55.5 -37.5t66.5 -13.5t66.5 13t55 37.5t36.5 56.5 t13 69q0 36 -13 68.5t-37 57t-55.5 38t-66.5 13.5t-66.5 -13.5t-55 -37.5t-36.5 -56.5t-13 -69.5v0zM227 567h-33v-47h33q6 0 10.5 1t8 3.5t5.5 6.5t2 11t-2 12t-5.5 7.5t-8 4t-10.5 1.5v0zM225 436v-28h-117v28l30 4v131l-30 5v29h141q15 0 26.5 -4t20 -12t12.5 -19.5 t4 -26.5q0 -10 -2.5 -19t-7.5 -15.5t-11.5 -12t-13.5 -9.5l26 -46l27 -5v-28h-71l-37 72h-28v-39z" />
<glyph unicode="&#xaf;" d="M161 673h279v-74h-279v74z" />
<glyph unicode="&#xb0;" horiz-adv-x="371" d="M34 556q0 30 11 57t32 47.5t49 31.5t60 11q33 0 60.5 -11t48 -31t31.5 -47t11 -58q0 -30 -11 -56.5t-31.5 -47t-48.5 -31.5t-60 -11t-60 11t-49 31t-32 47t-11 57v0zM253 556q0 14 -5 27t-14 22.5t-21.5 15t-26.5 5.5q-15 0 -27.5 -5.5t-21.5 -15t-14 -22.5t-5 -27t5 -27 t14 -22.5t21.5 -15t27.5 -5.5q14 0 26.5 5.5t21.5 15t14 22.5t5 27v0z" />
<glyph unicode="&#xb1;" horiz-adv-x="494" d="M190 507h115v-133h139v-95h-139v-131h-115v131h-140v95h140v133zM50 0v95h394v-95h-394z" />
<glyph unicode="&#xb2;" horiz-adv-x="378" d="M206 424q-14 -9 -25 -17.5t-19.5 -16.5t-14.5 -15t-9 -13h136l39 81l49 -15l-26 -141h-315v18q0 33 11 60.5t30 49.5t39.5 39t51.5 40q26 19 41.5 31.5t25 22.5t13.5 19t4 20q0 9 -4 17t-12 14t-19.5 9t-26.5 3q-19 0 -33 -6t-23 -17t-12 -25t-1 -30l-74 -11 q-8 36 -1.5 66.5t26.5 53t52 35t74 12.5q39 0 68.5 -8.5t49 -24.5t29 -38t9.5 -49q0 -26 -9 -47.5t-26 -40t-40 -36t-58 -40.5v0z" />
<glyph unicode="&#xb3;" horiz-adv-x="364" d="M175 275q-24 0 -45 3.5t-39.5 10.5t-33.5 17t-25 23q-3 4 -5.5 8.5t-4.5 10t-3.5 11t-1.5 11.5q0 9 3 17t8.5 14.5t14 10.5t18.5 4q9 0 15.5 -2.5t11 -7t6 -6.5t10.5 -16q4 -7 10 -12.5t14 -9.5t18 -6.5t22 -2.5q18 0 32 4t22.5 11t13 16.5t4.5 20.5q0 12 -4.5 22 t-14 16.5t-23.5 10.5t-32 4l-48 1v70h47q16 0 29 4t22 10.5t13.5 15.5t4.5 20t-4.5 19.5t-12.5 14.5t-20.5 9.5t-28.5 3.5q-14 0 -25.5 -3t-21 -9t-16 -16.5t-10.5 -24.5l-71 16q3 27 14.5 49t30.5 38t46 24t60 8q39 0 69 -9.5t49.5 -26.5t29 -39t9.5 -46q0 -13 -3 -25 t-10 -23.5t-18.5 -21.5t-27.5 -18q17 -5 30 -15t22 -23t13 -28t4 -31q0 -29 -11.5 -52.5t-33.5 -40t-53 -25.5t-69 -9v0z" />
<glyph unicode="&#xb4;" d="M448 707l-163 -131h-107v4l110 131h160v-4z" />
<glyph unicode="&#xb6;" horiz-adv-x="808" d="M325 -63v246h-47q-50 0 -94.5 17t-78.5 50t-53 80.5t-19 107.5q0 57 17.5 103.5t49 80t74.5 51t94 17.5h511v-79l-131 -18v-656l134 -17v-79h-270v747h-51v-747h-269v79z" />
<glyph unicode="&#xb7;" horiz-adv-x="270" d="M49 316q0 17 6.5 32.5t18.5 27t27.5 18t32.5 6.5q18 0 33.5 -6.5t28 -18t19 -27t6.5 -32.5t-6.5 -32.5t-19 -27t-28 -18t-33.5 -6.5q-17 0 -32.5 6.5t-27.5 18t-18.5 27t-6.5 32.5v0z" />
<glyph unicode="&#xb8;" d="M168 -174l55 42q7 -11 13.5 -18.5t14.5 -13t17.5 -8.5t21.5 -3q11 0 20.5 2.5t17 7.5t11.5 12.5t4 17.5q0 9 -4.5 17t-13.5 13t-23.5 6.5t-33.5 -1.5l-18 11l36 89h70l-24 -55q20 0 38.5 -5t33.5 -15.5t23.5 -27t8.5 -37.5q0 -22 -10 -40.5t-28.5 -32t-43.5 -20.5t-53 -7 q-23 0 -42.5 3.5t-36 11.5t-30 20.5t-24.5 30.5v0z" />
<glyph unicode="&#xb9;" horiz-adv-x="296" d="M27 340l77 10v225l-66 -34l-30 51l141 110l55 -7v-345l74 -10v-53h-251v53z" />
<glyph unicode="&#xba;" horiz-adv-x="469" d="M31 508q0 44 14.5 81.5t42 64.5t65.5 42t84 15q44 0 81.5 -15t64.5 -42t41.5 -64.5t14.5 -81.5t-15 -81.5t-42.5 -64.5t-65.5 -42t-84 -15q-44 0 -81.5 15t-64 42t-41 64.5t-14.5 81.5v0zM146 507q0 -29 6 -51.5t18 -38t28.5 -23.5t36.5 -8t36 8t28 23t18 38t6 52t-6 52 t-18 39t-28 24t-36 8t-36.5 -8t-28.5 -24t-18 -39t-6 -52v0z" />
<glyph unicode="&#xbb;" horiz-adv-x="598" d="M32 0l182 241l-188 254h136l188 -246v-4l-189 -245h-129zM245 0l186 245l-186 250h133l190 -244v-7l-193 -244h-130z" />
<glyph unicode="&#xbc;" horiz-adv-x="870" d="M27 340l77 10v225l-66 -34l-30 51l141 110l55 -7v-345l74 -10v-53h-251v53zM310 0h-119l325 691h119zM850 0h-216v53l59 9v40h-203v65l203 239h99v-232h58v-72h-58v-40l58 -9v-53zM592 174h101v121z" />
<glyph unicode="&#xbd;" horiz-adv-x="895" d="M27 340l77 10v225l-66 -34l-30 51l141 110l55 -7v-345l74 -10v-53h-251v53zM310 0h-119l325 691h119zM723 137q-14 -9 -25 -17.5t-19.5 -16.5t-14.5 -15t-9 -13h136l39 81l49 -15l-26 -141h-315v18q0 33 11 60.5t30 49.5t39.5 39t51.5 40q26 19 41.5 31.5t25 22.5 t13.5 19t4 20q0 9 -4 17t-12 14t-19.5 9t-26.5 3q-19 0 -33 -6t-23 -17t-12 -25t-1 -30l-74 -11q-8 36 -1.5 66.5t26.5 53t52 35t74 12.5q39 0 68.5 -8.5t49 -24.5t29 -38t9.5 -49q0 -26 -9 -47.5t-26 -40t-40 -36t-58 -40.5v0z" />
<glyph unicode="&#xbe;" horiz-adv-x="973" d="M724 691l-325 -691h-119l325 691h119zM175 275q-24 0 -45 3.5t-39.5 10.5t-33.5 17t-25 23q-3 4 -5.5 8.5t-4.5 10t-3.5 11t-1.5 11.5q0 9 3 17t8.5 14.5t14 10.5t18.5 4q9 0 15.5 -2.5t11 -7t6 -6.5t10.5 -16q4 -7 10 -12.5t14 -9.5t18 -6.5t22 -2.5q18 0 32 4t22.5 11 t13 16.5t4.5 20.5q0 12 -4.5 22t-14 16.5t-23.5 10.5t-32 4l-48 1v70h47q16 0 29 4t22 10.5t13.5 15.5t4.5 20t-4.5 19.5t-12.5 14.5t-20.5 9.5t-28.5 3.5q-14 0 -25.5 -3t-21 -9t-16 -16.5t-10.5 -24.5l-71 16q3 27 14.5 49t30.5 38t46 24t60 8q39 0 69 -9.5t49.5 -26.5 t29 -39t9.5 -46q0 -13 -3 -25t-10 -23.5t-18.5 -21.5t-27.5 -18q17 -5 30 -15t22 -23t13 -28t4 -31q0 -29 -11.5 -52.5t-33.5 -40t-53 -25.5t-69 -9v0zM952 0h-216v53l59 9v40h-203v65l203 239h99v-232h58v-72h-58v-40l58 -9v-53zM694 174h101v121z" />
<glyph unicode="&#xbf;" horiz-adv-x="513" d="M341 467q0 -17 -6.5 -32.5t-18 -27t-27 -18t-33.5 -6.5t-33.5 6.5t-28 18t-19 27t-6.5 32.5t6.5 32.5t19 27t28 18t33.5 6.5t33.5 -6.5t27 -18t18 -27t6.5 -32.5v0zM214 234q0 6 -2.5 10.5t-6.5 8t-9 5t-11 1.5h-5l19 62q5 2 9.5 3t9.5 1.5l10 1t10 0.5q21 0 40 -6 t34 -17.5t23.5 -29.5t8.5 -40q0 -42 -23 -69.5t-69 -59t-68.5 -56t-22.5 -63.5q0 -19 6.5 -35.5t19.5 -28.5t32.5 -18.5t43.5 -6.5q18 0 32.5 3.5t25 10t17 15t10.5 18.5q3 7 4.5 13t2.5 12.5t1.5 13t0.5 13.5q0 12 3.5 23.5t11.5 22t22 17t34 6.5q15 0 28.5 -6t23.5 -17 t16 -27.5t6 -36.5q0 -45 -21 -81t-56.5 -61t-79.5 -37.5t-91 -12.5q-62 0 -109 14.5t-77.5 40.5t-45.5 61t-15 77q0 57 28 96.5t103.5 89.5t75.5 69v0z" />
<glyph unicode="&#xc0;" horiz-adv-x="788" d="M384 756l-154 131v4h159l102 -131v-4h-107zM390 531l-79 -239h158l-77 239h-2zM360 79v-79h-339v79l80 14l179 503l-110 15v79h449v-79l-111 -14l179 -504l80 -14v-79h-340v79l106 14l-32 101h-222l-33 -100z" />
<glyph unicode="&#xc1;" horiz-adv-x="788" d="M572 887l-163 -131h-107v4l110 131h160v-4zM390 531l-79 -239h158l-77 239h-2zM360 79v-79h-339v79l80 14l179 503l-110 15v79h449v-79l-111 -14l179 -504l80 -14v-79h-340v79l106 14l-32 101h-222l-33 -100z" />
<glyph unicode="&#xc2;" horiz-adv-x="788" d="M469 756l-77 63l-75 -63h-124v4l153 131h97l153 -131v-4h-127zM390 531l-79 -239h158l-77 239h-2zM360 79v-79h-339v79l80 14l179 503l-110 15v79h449v-79l-111 -14l179 -504l80 -14v-79h-340v79l106 14l-32 101h-222l-33 -100z" />
<glyph unicode="&#xc3;" horiz-adv-x="788" d="M291 762h-84q0 28 6.5 50t20 38.5t34 25.5t48.5 9q19 0 38 -6.5t44.5 -19t38 -17.5t23.5 -5q7 0 14 3t12 8.5t8 13.5t3 18h84q0 -33 -8.5 -57t-23.5 -38.5t-34 -21.5t-42 -7q-19 0 -38 6.5t-45 19t-37.5 17.5t-22.5 5q-8 0 -15 -3t-12.5 -8t-8.5 -13t-3 -18v0zM390 531 l-79 -239h158l-77 239h-2zM360 79v-79h-339v79l80 14l179 503l-110 15v79h449v-79l-111 -14l179 -504l80 -14v-79h-340v79l106 14l-32 101h-222l-33 -100z" />
<glyph unicode="&#xc4;" horiz-adv-x="788" d="M414 841q0 18 6.5 34t19 28t28 18.5t33.5 6.5t34.5 -6.5t28.5 -18.5t19 -28t7 -34q0 -17 -7 -32.5t-19 -27.5t-28.5 -18.5t-34.5 -6.5t-33.5 6.5t-28 18.5t-19 27.5t-6.5 32.5v0zM197 841q0 18 6.5 34t19 28t28 18.5t33.5 6.5t34 -6.5t28.5 -18.5t19 -28t6.5 -34 q0 -17 -6.5 -32.5t-19 -27.5t-28.5 -18.5t-34 -6.5t-33.5 6.5t-28 18.5t-19 27.5t-6.5 32.5v0zM390 531l-79 -239h158l-77 239h-2zM360 79v-79h-339v79l80 14l179 503l-110 15v79h449v-79l-111 -14l179 -504l80 -14v-79h-340v79l106 14l-32 101h-222l-33 -100z" />
<glyph unicode="&#xc5;" horiz-adv-x="788" d="M394 954q23 0 43 -7.5t34.5 -22t22.5 -33.5t8 -41t-8 -41t-22.5 -33.5t-34.5 -22t-43 -7.5t-43 7.5t-34.5 22t-22.5 33.5t-8 41t8 41t22.5 33.5t34.5 22t43 7.5v0zM394 904q-11 0 -20 -4.5t-15.5 -12t-10 -17t-3.5 -20.5t3.5 -21t10 -17.5t15.5 -11.5t20 -4t20 4 t15.5 11.5t10 17.5t3.5 21t-3.5 20.5t-10 17t-15.5 12t-20 4.5v0zM390 531l-79 -239h158l-77 239h-2zM360 79v-79h-339v79l80 14l179 503l-110 15v79h449v-79l-111 -14l179 -504l80 -14v-79h-340v79l106 14l-32 101h-222l-33 -100z" />
<glyph unicode="&#xc6;" horiz-adv-x="1062" d="M399 562l-90 -270h169l-75 270h-4zM427 0v79l106 14l-28 101h-229l-33 -99l117 -16v-79h-339v79l77 13l182 505l-112 14v79h813l42 -229l-78 -24l-74 152h-332l55 -186h156l19 93h81v-281h-81l-18 87h-127l60 -201h210l68 189l77 -16l-31 -274h-581z" />
<glyph unicode="&#xc7;" horiz-adv-x="704" d="M226 -174l55 42q7 -11 13.5 -18.5t14.5 -13t17.5 -8.5t21.5 -3q11 0 20.5 2.5t17 7.5t11.5 12.5t4 17.5q0 9 -4.5 17t-13.5 13t-23.5 6.5t-33.5 -1.5l-18 11l27 67q-64 5 -119 31.5t-96 74t-64 114.5t-22 149q0 82 24.5 149.5t68 115.5t100.5 73.5t121 25.5q25 0 49.5 -5 t47 -15t41 -24.5t32.5 -32.5l13 74h78l46 -270l-80 -19l-24 47q-16 32 -35 55.5t-40 38.5t-44 22t-49 7q-42 0 -75.5 -16t-57 -47t-36 -77t-12.5 -105q0 -63 15 -109.5t42 -76t62.5 -43.5t77.5 -14q31 0 56 8t44.5 23t35 37t27.5 51l88 -33q-13 -44 -34 -80t-51 -63 t-70 -43.5t-90 -21.5l-15 -34q20 0 38.5 -5t33.5 -15.5t23.5 -27t8.5 -37.5q0 -22 -10 -40.5t-28.5 -32t-43.5 -20.5t-53 -7q-23 0 -42.5 3.5t-36 11.5t-30 20.5t-24.5 30.5v0z" />
<glyph unicode="&#xc8;" horiz-adv-x="744" d="M384 756l-154 131v4h159l102 -131v-4h-107zM29 0v79l115 15v501l-115 16v79h619l55 -229l-79 -24l-84 152h-233v-194h118l20 94h80v-281h-80l-20 87h-118v-194h260l75 189l76 -16l-38 -274h-651z" />
<glyph unicode="&#xc9;" horiz-adv-x="744" d="M572 887l-163 -131h-107v4l110 131h160v-4zM29 0v79l115 15v501l-115 16v79h619l55 -229l-79 -24l-84 152h-233v-194h118l20 94h80v-281h-80l-20 87h-118v-194h260l75 189l76 -16l-38 -274h-651z" />
<glyph unicode="&#xca;" horiz-adv-x="744" d="M469 756l-77 63l-75 -63h-124v4l153 131h97l153 -131v-4h-127zM29 0v79l115 15v501l-115 16v79h619l55 -229l-79 -24l-84 152h-233v-194h118l20 94h80v-281h-80l-20 87h-118v-194h260l75 189l76 -16l-38 -274h-651z" />
<glyph unicode="&#xcb;" horiz-adv-x="744" d="M414 841q0 18 6.5 34t19 28t28 18.5t33.5 6.5t34.5 -6.5t28.5 -18.5t19 -28t7 -34q0 -17 -7 -32.5t-19 -27.5t-28.5 -18.5t-34.5 -6.5t-33.5 6.5t-28 18.5t-19 27.5t-6.5 32.5v0zM197 841q0 18 6.5 34t19 28t28 18.5t33.5 6.5t34 -6.5t28.5 -18.5t19 -28t6.5 -34 q0 -17 -6.5 -32.5t-19 -27.5t-28.5 -18.5t-34 -6.5t-33.5 6.5t-28 18.5t-19 27.5t-6.5 32.5v0zM29 0v79l115 15v501l-115 16v79h619l55 -229l-79 -24l-84 152h-233v-194h118l20 94h80v-281h-80l-20 87h-118v-194h260l75 189l76 -16l-38 -274h-651z" />
<glyph unicode="&#xcc;" horiz-adv-x="451" d="M215 756l-154 131v4h159l102 -131v-4h-107zM422 0h-393v79l115 15v501l-115 16v79h393v-79l-115 -16v-500l115 -16v-79z" />
<glyph unicode="&#xcd;" horiz-adv-x="451" d="M403 887l-163 -131h-107v4l110 131h160v-4zM422 0h-393v79l115 15v501l-115 16v79h393v-79l-115 -16v-500l115 -16v-79z" />
<glyph unicode="&#xce;" horiz-adv-x="451" d="M300 756l-77 63l-75 -63h-124v4l153 131h97l153 -131v-4h-127zM422 0h-393v79l115 15v501l-115 16v79h393v-79l-115 -16v-500l115 -16v-79z" />
<glyph unicode="&#xcf;" horiz-adv-x="451" d="M246 841q0 18 6.5 34t19 28t28 18.5t33.5 6.5t34.5 -6.5t28.5 -18.5t19 -28t7 -34q0 -17 -7 -32.5t-19 -27.5t-28.5 -18.5t-34.5 -6.5t-33.5 6.5t-28 18.5t-19 27.5t-6.5 32.5v0zM29 841q0 18 6.5 34t19 28t28 18.5t33.5 6.5t34 -6.5t28.5 -18.5t19 -28t6.5 -34 q0 -17 -6.5 -32.5t-19 -27.5t-28.5 -18.5t-34 -6.5t-33.5 6.5t-28 18.5t-19 27.5t-6.5 32.5v0zM422 0h-393v79l115 15v501l-115 16v79h393v-79l-115 -16v-500l115 -16v-79z" />
<glyph unicode="&#xd0;" horiz-adv-x="773" d="M418 690q71 0 131 -22t103.5 -65.5t67 -106.5t23.5 -144q0 -83 -24 -148.5t-68.5 -111t-105.5 -69t-134 -23.5h-382v79l115 15v212h-117v94h117v195l-115 16v79h389zM395 589h-88v-189h119v-94h-119v-205h96q40 0 71.5 15.5t54 46.5t34.5 77.5t12 107.5q0 56 -12.5 101 t-36 76.5t-57 47.5t-74.5 16v0z" />
<glyph unicode="&#xd1;" horiz-adv-x="886" d="M346 762h-84q0 28 6.5 50t20 38.5t34 25.5t48.5 9q19 0 38 -6.5t44.5 -19t38 -17.5t23.5 -5q7 0 14 3t12 8.5t8 13.5t3 18h84q0 -33 -8.5 -57t-23.5 -38.5t-34 -21.5t-42 -7q-19 0 -38 6.5t-45 19t-37.5 17.5t-22.5 5q-8 0 -15 -3t-12.5 -8t-8.5 -13t-3 -18v0zM480 690 h378v-79l-112 -16v-599h-117l-343 447l1 -348l121 -16v-79h-379v79l111 16v500l-111 16v79h393v-79l-97 -12l277 -368v363l-122 17v79z" />
<glyph unicode="&#xd2;" horiz-adv-x="776" d="M378 756l-154 131v4h159l102 -131v-4h-107zM742 344q0 -82 -26 -149.5t-74.5 -116.5t-114 -75t-143.5 -26q-75 0 -139.5 26t-112 75t-73.5 117t-26 149q0 82 26.5 149.5t75 116.5t114.5 75t143 26q75 0 139 -26t111.5 -75t73.5 -117t26 -149v0zM201 343q0 -59 14 -105 t39 -78t59.5 -48t74.5 -16t74.5 16t59.5 48t39 78t14 105t-14 105.5t-39 78t-59.5 47.5t-74.5 16q-41 0 -75 -16t-59.5 -47.5t-39 -78t-13.5 -105.5v0z" />
<glyph unicode="&#xd3;" horiz-adv-x="776" d="M566 887l-163 -131h-107v4l110 131h160v-4zM742 344q0 -82 -26 -149.5t-74.5 -116.5t-114 -75t-143.5 -26q-75 0 -139.5 26t-112 75t-73.5 117t-26 149q0 82 26.5 149.5t75 116.5t114.5 75t143 26q75 0 139 -26t111.5 -75t73.5 -117t26 -149v0zM201 343q0 -59 14 -105 t39 -78t59.5 -48t74.5 -16t74.5 16t59.5 48t39 78t14 105t-14 105.5t-39 78t-59.5 47.5t-74.5 16q-41 0 -75 -16t-59.5 -47.5t-39 -78t-13.5 -105.5v0z" />
<glyph unicode="&#xd4;" horiz-adv-x="776" d="M463 756l-77 63l-75 -63h-124v4l153 131h97l153 -131v-4h-127zM742 344q0 -82 -26 -149.5t-74.5 -116.5t-114 -75t-143.5 -26q-75 0 -139.5 26t-112 75t-73.5 117t-26 149q0 82 26.5 149.5t75 116.5t114.5 75t143 26q75 0 139 -26t111.5 -75t73.5 -117t26 -149v0z M201 343q0 -59 14 -105t39 -78t59.5 -48t74.5 -16t74.5 16t59.5 48t39 78t14 105t-14 105.5t-39 78t-59.5 47.5t-74.5 16q-41 0 -75 -16t-59.5 -47.5t-39 -78t-13.5 -105.5v0z" />
<glyph unicode="&#xd5;" horiz-adv-x="776" d="M285 762h-84q0 28 6.5 50t20 38.5t34 25.5t48.5 9q19 0 38 -6.5t44.5 -19t38 -17.5t23.5 -5q7 0 14 3t12 8.5t8 13.5t3 18h84q0 -33 -8.5 -57t-23.5 -38.5t-34 -21.5t-42 -7q-19 0 -38 6.5t-45 19t-37.5 17.5t-22.5 5q-8 0 -15 -3t-12.5 -8t-8.5 -13t-3 -18v0zM742 344 q0 -82 -26 -149.5t-74.5 -116.5t-114 -75t-143.5 -26q-75 0 -139.5 26t-112 75t-73.5 117t-26 149q0 82 26.5 149.5t75 116.5t114.5 75t143 26q75 0 139 -26t111.5 -75t73.5 -117t26 -149v0zM201 343q0 -59 14 -105t39 -78t59.5 -48t74.5 -16t74.5 16t59.5 48t39 78t14 105 t-14 105.5t-39 78t-59.5 47.5t-74.5 16q-41 0 -75 -16t-59.5 -47.5t-39 -78t-13.5 -105.5v0z" />
<glyph unicode="&#xd6;" horiz-adv-x="776" d="M408 841q0 18 6.5 34t19 28t28 18.5t33.5 6.5t34.5 -6.5t28.5 -18.5t19 -28t7 -34q0 -17 -7 -32.5t-19 -27.5t-28.5 -18.5t-34.5 -6.5t-33.5 6.5t-28 18.5t-19 27.5t-6.5 32.5v0zM191 841q0 18 6.5 34t19 28t28 18.5t33.5 6.5t34 -6.5t28.5 -18.5t19 -28t6.5 -34 q0 -17 -6.5 -32.5t-19 -27.5t-28.5 -18.5t-34 -6.5t-33.5 6.5t-28 18.5t-19 27.5t-6.5 32.5v0zM742 344q0 -82 -26 -149.5t-74.5 -116.5t-114 -75t-143.5 -26q-75 0 -139.5 26t-112 75t-73.5 117t-26 149q0 82 26.5 149.5t75 116.5t114.5 75t143 26q75 0 139 -26t111.5 -75 t73.5 -117t26 -149v0zM201 343q0 -59 14 -105t39 -78t59.5 -48t74.5 -16t74.5 16t59.5 48t39 78t14 105t-14 105.5t-39 78t-59.5 47.5t-74.5 16q-41 0 -75 -16t-59.5 -47.5t-39 -78t-13.5 -105.5v0z" />
<glyph unicode="&#xd7;" horiz-adv-x="494" d="M444 183l-71 -71l-130 129l-127 -126l-66 67l126 126l-125 125l71 71l125 -126l128 127l66 -66l-127 -127z" />
<glyph unicode="&#xd8;" horiz-adv-x="776" d="M744 344q0 -82 -26.5 -149.5t-75 -116.5t-115 -75t-143.5 -26q-29 0 -56.5 4t-53 12.5t-49 20t-45.5 26.5l-36 -40h-144l104 115q-17 23 -30.5 49t-23 54.5t-14 60t-4.5 65.5q0 82 26.5 149.5t75 116.5t114.5 75t144 26q28 0 54 -4t51 -11.5t48 -18.5t44 -26l36 40h145 l-103 -114q18 -23 32.5 -49t24.5 -55.5t15 -62t5 -66.5v0zM202 343q0 -15 1 -29t2.5 -27t4 -25t5.5 -24l283 313q-11 10 -24 17t-26.5 12t-28.5 7.5t-31 2.5q-41 0 -75 -16t-59 -47.5t-38.5 -78t-13.5 -105.5v0zM575 343q0 16 -1 31.5t-3.5 30t-5.5 27.5t-7 25l-287 -316 q12 -11 25.5 -19.5t28 -14t30.5 -8.5t33 -3q40 0 74.5 16t59.5 48t39 78t14 105v0z" />
<glyph unicode="&#xd9;" horiz-adv-x="817" d="M403 756l-154 131v4h159l102 -131v-4h-107zM441 690h355v-79l-100 -15v-360q0 -57 -19.5 -104.5t-56.5 -82.5t-89.5 -53.5t-117.5 -18.5q-68 0 -122.5 17.5t-92 51t-57.5 80.5t-20 105v365l-100 15v79h363v-79l-101 -15v-360q0 -32 9 -58t26 -44t41.5 -27.5t55.5 -9.5 q32 0 57 9.5t42 27.5t26 44t9 58v359l-108 16v79z" />
<glyph unicode="&#xda;" horiz-adv-x="817" d="M591 887l-163 -131h-107v4l110 131h160v-4zM441 690h355v-79l-100 -15v-360q0 -57 -19.5 -104.5t-56.5 -82.5t-89.5 -53.5t-117.5 -18.5q-68 0 -122.5 17.5t-92 51t-57.5 80.5t-20 105v365l-100 15v79h363v-79l-101 -15v-360q0 -32 9 -58t26 -44t41.5 -27.5t55.5 -9.5 q32 0 57 9.5t42 27.5t26 44t9 58v359l-108 16v79z" />
<glyph unicode="&#xdb;" horiz-adv-x="817" d="M488 756l-77 63l-75 -63h-124v4l153 131h97l153 -131v-4h-127zM441 690h355v-79l-100 -15v-360q0 -57 -19.5 -104.5t-56.5 -82.5t-89.5 -53.5t-117.5 -18.5q-68 0 -122.5 17.5t-92 51t-57.5 80.5t-20 105v365l-100 15v79h363v-79l-101 -15v-360q0 -32 9 -58t26 -44 t41.5 -27.5t55.5 -9.5q32 0 57 9.5t42 27.5t26 44t9 58v359l-108 16v79z" />
<glyph unicode="&#xdc;" horiz-adv-x="817" d="M433 841q0 18 6.5 34t19 28t28 18.5t33.5 6.5t34.5 -6.5t28.5 -18.5t19 -28t7 -34q0 -17 -7 -32.5t-19 -27.5t-28.5 -18.5t-34.5 -6.5t-33.5 6.5t-28 18.5t-19 27.5t-6.5 32.5v0zM216 841q0 18 6.5 34t19 28t28 18.5t33.5 6.5t34 -6.5t28.5 -18.5t19 -28t6.5 -34 q0 -17 -6.5 -32.5t-19 -27.5t-28.5 -18.5t-34 -6.5t-33.5 6.5t-28 18.5t-19 27.5t-6.5 32.5v0zM441 690h355v-79l-100 -15v-360q0 -57 -19.5 -104.5t-56.5 -82.5t-89.5 -53.5t-117.5 -18.5q-68 0 -122.5 17.5t-92 51t-57.5 80.5t-20 105v365l-100 15v79h363v-79l-101 -15 v-360q0 -32 9 -58t26 -44t41.5 -27.5t55.5 -9.5q32 0 57 9.5t42 27.5t26 44t9 58v359l-108 16v79z" />
<glyph unicode="&#xdd;" horiz-adv-x="747" d="M553 887l-163 -131h-107v4l110 131h160v-4zM565 0h-383v79l110 15v146l-188 355l-83 16v79h322v-79l-81 -12l115 -240h1l113 238l-82 14v79h317v-79l-83 -13l-188 -360v-144l110 -15v-79z" />
<glyph unicode="&#xde;" horiz-adv-x="712" d="M433 690v-80l-126 -16v-51h165q50 0 90 -13.5t68 -39t42.5 -61.5t14.5 -80q0 -47 -18.5 -84t-51 -62t-74.5 -38t-90 -13h-146v-57l126 -16v-79h-404v79l115 15v501l-115 15v80h404zM412 442h-105v-189h101q24 0 44.5 6t34.5 18.5t22 30t8 39.5q0 24 -7.5 42t-21.5 30 t-33 17.5t-43 5.5v0z" />
<glyph unicode="&#xdf;" horiz-adv-x="750" d="M29 76l90 13v311h-96v66l96 26v27q0 61 21.5 107t60 75t89 43t109.5 14q52 0 97 -11t79 -33.5t52.5 -56t18.5 -76.5q0 -49 -22 -80.5t-73.5 -66.5t-59 -40.5t-7.5 -26.5q0 -13 8.5 -23t22.5 -18t-2 -1.5t77 -29.5q30 -12 55 -26t45.5 -33.5t32.5 -46t12 -59.5 q0 -34 -13 -62t-36.5 -48t-54 -31t-65.5 -11q-20 0 -38 4t-35 11.5t-31.5 19t-27.5 27.5l-2 -41h-70l-19 182l56 7l15 -28q9 -17 20.5 -31t26 -25.5t31.5 -18t36 -6.5q14 0 26.5 3.5t22 10t14.5 16t5 21.5q0 11 -4 20.5t-13 17.5t-22 15.5t-32 15.5q-87 34 -113.5 51.5 t-44 45t-17.5 65.5q0 41 19.5 67t58 53.5t56 46t17.5 48.5q0 18 -8 32t-22.5 23.5t-34 14.5t-43.5 5q-30 0 -53 -8.5t-38 -25.5t-22.5 -42t-7.5 -58v-434l31 -7v-76h-274v76z" />
<glyph unicode="&#xe0;" horiz-adv-x="572" d="M254 576l-154 131v4h159l102 -131v-4h-107zM244 79q13 0 24.5 2.5t21.5 6.5t19 9.5t19 13.5v103q-41 1 -70.5 -4.5t-48 -15.5t-27.5 -24.5t-9 -32.5q0 -14 5 -24.5t14 -18t22.5 -11.5t29.5 -4v0zM264 522q48 0 87.5 -10.5t68.5 -34t45 -61t16 -90.5v-189q0 -15 2.5 -26 t6.5 -17.5t10.5 -9.5t14.5 -3q4 0 7.5 1t7 2.5t6.5 3.5l6 4l11 -53q-5 -10 -14 -19t-22.5 -16t-30 -11.5t-35.5 -4.5q-20 0 -37.5 4t-31.5 11.5t-24.5 19.5t-16.5 27q-11 -15 -26 -28t-33.5 -23t-41.5 -15.5t-49 -5.5q-34 0 -63.5 10t-51.5 29t-34.5 45.5t-12.5 57.5 q0 50 25 84.5t67.5 54t95.5 27.5t111 7v46q0 22 -5 38t-14.5 25.5t-23 13.5t-31.5 4q-12 0 -21 -2t-17.5 -7.5t-16 -15t-15.5 -24.5q-6 -12 -12 -20t-13.5 -14t-18 -9t-24.5 -3q-13 0 -25 5t-21.5 14t-14.5 21t-5 26q0 8 1.5 17t6 18.5t12.5 20t19 21.5q15 14 34.5 24.5 t41.5 17t46.5 9.5t52.5 3v0z" />
<glyph unicode="&#xe1;" horiz-adv-x="572" d="M442 707l-163 -131h-107v4l110 131h160v-4zM244 79q13 0 24.5 2.5t21.5 6.5t19 9.5t19 13.5v103q-41 1 -70.5 -4.5t-48 -15.5t-27.5 -24.5t-9 -32.5q0 -14 5 -24.5t14 -18t22.5 -11.5t29.5 -4v0zM264 522q48 0 87.5 -10.5t68.5 -34t45 -61t16 -90.5v-189q0 -15 2.5 -26 t6.5 -17.5t10.5 -9.5t14.5 -3q4 0 7.5 1t7 2.5t6.5 3.5l6 4l11 -53q-5 -10 -14 -19t-22.5 -16t-30 -11.5t-35.5 -4.5q-20 0 -37.5 4t-31.5 11.5t-24.5 19.5t-16.5 27q-11 -15 -26 -28t-33.5 -23t-41.5 -15.5t-49 -5.5q-34 0 -63.5 10t-51.5 29t-34.5 45.5t-12.5 57.5 q0 50 25 84.5t67.5 54t95.5 27.5t111 7v46q0 22 -5 38t-14.5 25.5t-23 13.5t-31.5 4q-12 0 -21 -2t-17.5 -7.5t-16 -15t-15.5 -24.5q-6 -12 -12 -20t-13.5 -14t-18 -9t-24.5 -3q-13 0 -25 5t-21.5 14t-14.5 21t-5 26q0 8 1.5 17t6 18.5t12.5 20t19 21.5q15 14 34.5 24.5 t41.5 17t46.5 9.5t52.5 3v0z" />
<glyph unicode="&#xe2;" horiz-adv-x="572" d="M339 576l-77 63l-75 -63h-124v4l153 131h97l153 -131v-4h-127zM244 79q13 0 24.5 2.5t21.5 6.5t19 9.5t19 13.5v103q-41 1 -70.5 -4.5t-48 -15.5t-27.5 -24.5t-9 -32.5q0 -14 5 -24.5t14 -18t22.5 -11.5t29.5 -4v0zM264 522q48 0 87.5 -10.5t68.5 -34t45 -61t16 -90.5 v-189q0 -15 2.5 -26t6.5 -17.5t10.5 -9.5t14.5 -3q4 0 7.5 1t7 2.5t6.5 3.5l6 4l11 -53q-5 -10 -14 -19t-22.5 -16t-30 -11.5t-35.5 -4.5q-20 0 -37.5 4t-31.5 11.5t-24.5 19.5t-16.5 27q-11 -15 -26 -28t-33.5 -23t-41.5 -15.5t-49 -5.5q-34 0 -63.5 10t-51.5 29 t-34.5 45.5t-12.5 57.5q0 50 25 84.5t67.5 54t95.5 27.5t111 7v46q0 22 -5 38t-14.5 25.5t-23 13.5t-31.5 4q-12 0 -21 -2t-17.5 -7.5t-16 -15t-15.5 -24.5q-6 -12 -12 -20t-13.5 -14t-18 -9t-24.5 -3q-13 0 -25 5t-21.5 14t-14.5 21t-5 26q0 8 1.5 17t6 18.5t12.5 20 t19 21.5q15 14 34.5 24.5t41.5 17t46.5 9.5t52.5 3v0z" />
<glyph unicode="&#xe3;" horiz-adv-x="572" d="M161 582h-84q0 28 6.5 50t20 38.5t34 25.5t48.5 9q19 0 38 -6.5t44.5 -19t38 -17.5t23.5 -5q7 0 14 3t12 8.5t8 13.5t3 18h84q0 -33 -8.5 -57t-23.5 -38.5t-34 -21.5t-42 -7q-19 0 -38 6.5t-45 19t-37.5 17.5t-22.5 5q-8 0 -15 -3t-12.5 -8t-8.5 -13t-3 -18v0zM244 79 q13 0 24.5 2.5t21.5 6.5t19 9.5t19 13.5v103q-41 1 -70.5 -4.5t-48 -15.5t-27.5 -24.5t-9 -32.5q0 -14 5 -24.5t14 -18t22.5 -11.5t29.5 -4v0zM264 522q48 0 87.5 -10.5t68.5 -34t45 -61t16 -90.5v-189q0 -15 2.5 -26t6.5 -17.5t10.5 -9.5t14.5 -3q4 0 7.5 1t7 2.5t6.5 3.5 l6 4l11 -53q-5 -10 -14 -19t-22.5 -16t-30 -11.5t-35.5 -4.5q-20 0 -37.5 4t-31.5 11.5t-24.5 19.5t-16.5 27q-11 -15 -26 -28t-33.5 -23t-41.5 -15.5t-49 -5.5q-34 0 -63.5 10t-51.5 29t-34.5 45.5t-12.5 57.5q0 50 25 84.5t67.5 54t95.5 27.5t111 7v46q0 22 -5 38 t-14.5 25.5t-23 13.5t-31.5 4q-12 0 -21 -2t-17.5 -7.5t-16 -15t-15.5 -24.5q-6 -12 -12 -20t-13.5 -14t-18 -9t-24.5 -3q-13 0 -25 5t-21.5 14t-14.5 21t-5 26q0 8 1.5 17t6 18.5t12.5 20t19 21.5q15 14 34.5 24.5t41.5 17t46.5 9.5t52.5 3v0z" />
<glyph unicode="&#xe4;" horiz-adv-x="572" d="M285 661q0 18 6.5 34t19 28t28 18.5t33.5 6.5t34.5 -6.5t28.5 -18.5t19 -28t7 -34q0 -17 -7 -32.5t-19 -27.5t-28.5 -18.5t-34.5 -6.5t-33.5 6.5t-28 18.5t-19 27.5t-6.5 32.5v0zM68 661q0 18 6.5 34t19 28t28 18.5t33.5 6.5t34 -6.5t28.5 -18.5t19 -28t6.5 -34 q0 -17 -6.5 -32.5t-19 -27.5t-28.5 -18.5t-34 -6.5t-33.5 6.5t-28 18.5t-19 27.5t-6.5 32.5v0zM244 79q13 0 24.5 2.5t21.5 6.5t19 9.5t19 13.5v103q-41 1 -70.5 -4.5t-48 -15.5t-27.5 -24.5t-9 -32.5q0 -14 5 -24.5t14 -18t22.5 -11.5t29.5 -4v0zM264 522q48 0 87.5 -10.5 t68.5 -34t45 -61t16 -90.5v-189q0 -15 2.5 -26t6.5 -17.5t10.5 -9.5t14.5 -3q4 0 7.5 1t7 2.5t6.5 3.5l6 4l11 -53q-5 -10 -14 -19t-22.5 -16t-30 -11.5t-35.5 -4.5q-20 0 -37.5 4t-31.5 11.5t-24.5 19.5t-16.5 27q-11 -15 -26 -28t-33.5 -23t-41.5 -15.5t-49 -5.5 q-34 0 -63.5 10t-51.5 29t-34.5 45.5t-12.5 57.5q0 50 25 84.5t67.5 54t95.5 27.5t111 7v46q0 22 -5 38t-14.5 25.5t-23 13.5t-31.5 4q-12 0 -21 -2t-17.5 -7.5t-16 -15t-15.5 -24.5q-6 -12 -12 -20t-13.5 -14t-18 -9t-24.5 -3q-13 0 -25 5t-21.5 14t-14.5 21t-5 26 q0 8 1.5 17t6 18.5t12.5 20t19 21.5q15 14 34.5 24.5t41.5 17t46.5 9.5t52.5 3v0z" />
<glyph unicode="&#xe5;" horiz-adv-x="572" d="M264 774q23 0 43 -7.5t34.5 -22t22.5 -33.5t8 -41t-8 -41t-22.5 -33.5t-34.5 -22t-43 -7.5t-43 7.5t-34.5 22t-22.5 33.5t-8 41t8 41t22.5 33.5t34.5 22t43 7.5v0zM264 724q-11 0 -20 -4.5t-15.5 -12t-10 -17t-3.5 -20.5t3.5 -21t10 -17.5t15.5 -11.5t20 -4t20 4 t15.5 11.5t10 17.5t3.5 21t-3.5 20.5t-10 17t-15.5 12t-20 4.5v0zM244 79q13 0 24.5 2.5t21.5 6.5t19 9.5t19 13.5v103q-41 1 -70.5 -4.5t-48 -15.5t-27.5 -24.5t-9 -32.5q0 -14 5 -24.5t14 -18t22.5 -11.5t29.5 -4v0zM264 522q48 0 87.5 -10.5t68.5 -34t45 -61t16 -90.5 v-189q0 -15 2.5 -26t6.5 -17.5t10.5 -9.5t14.5 -3q4 0 7.5 1t7 2.5t6.5 3.5l6 4l11 -53q-5 -10 -14 -19t-22.5 -16t-30 -11.5t-35.5 -4.5q-20 0 -37.5 4t-31.5 11.5t-24.5 19.5t-16.5 27q-11 -15 -26 -28t-33.5 -23t-41.5 -15.5t-49 -5.5q-34 0 -63.5 10t-51.5 29 t-34.5 45.5t-12.5 57.5q0 50 25 84.5t67.5 54t95.5 27.5t111 7v46q0 22 -5 38t-14.5 25.5t-23 13.5t-31.5 4q-12 0 -21 -2t-17.5 -7.5t-16 -15t-15.5 -24.5q-6 -12 -12 -20t-13.5 -14t-18 -9t-24.5 -3q-13 0 -25 5t-21.5 14t-14.5 21t-5 26q0 8 1.5 17t6 18.5t12.5 20 t19 21.5q15 14 34.5 24.5t41.5 17t46.5 9.5t52.5 3v0z" />
<glyph unicode="&#xe6;" horiz-adv-x="857" d="M583 419q-22 0 -40 -7.5t-32 -22.5t-23 -35.5t-13 -46.5h205q-1 28 -9 49.5t-21.5 35t-30.5 20.5t-36 7v0zM606 83q21 0 39.5 4.5t33.5 13t26.5 21.5t20.5 31l81 -36q-10 -32 -29 -57.5t-46 -44t-62.5 -28t-78.5 -9.5q-31 0 -59 5.5t-53 16t-46.5 26t-38.5 35.5 q-12 -17 -29 -32t-38.5 -26.5t-49 -18t-58.5 -6.5q-38 0 -72 10t-59.5 29t-39.5 46.5t-14 61.5q0 47 25 80.5t67.5 53t95 27.5t109.5 7v36q0 25 -5.5 42.5t-15.5 28.5t-24 15.5t-32 4.5q-13 0 -23 -2.5t-18 -8.5t-15 -15t-14 -23q-5 -10 -9.5 -17t-12 -14t-18 -11t-25.5 -4 q-16 0 -29 5.5t-22 14.5t-13.5 21t-4.5 25q0 25 14 48.5t41.5 42t66.5 29.5t88 11q26 0 50 -3.5t44.5 -11t38 -19.5t30.5 -28q15 16 33.5 28t39 19.5t42.5 11t45 3.5q55 0 99.5 -19t75 -53.5t46.5 -79t16 -95.5v-12t-0.5 -14.5l-1 -15t-1.5 -12.5h-346q3 -34 12.5 -59.5 t26 -43t41 -26.5t55.5 -9v0zM254 79q14 0 28 3t27 8t24.5 13t22.5 17q-5 11 -8.5 22.5t-7 23.5t-5.5 24.5t-3 25.5q-35 0 -63.5 -5t-48.5 -14.5t-31 -24.5t-11 -35q0 -13 5 -24t15 -18.5t24 -11.5t32 -4v0z" />
<glyph unicode="&#xe7;" horiz-adv-x="541" d="M275 -240q-23 0 -42.5 3.5t-36 11.5t-30 20.5t-24.5 30.5l55 42q7 -11 13.5 -18.5t14.5 -13t17.5 -8.5t21.5 -3q11 0 20.5 2.5t17 7.5t11.5 12.5t4 17.5q0 9 -4.5 17t-13.5 13t-23.5 6.5t-33.5 -1.5l-18 11l28 69q-51 6 -92.5 28.5t-70.5 58t-44 82.5t-15 101 q0 62 19.5 113t55 86.5t84.5 54t107 18.5q53 0 93.5 -14.5t66.5 -37.5t38.5 -47.5t12.5 -44.5q0 -13 -5 -25.5t-14 -22t-21.5 -15t-28.5 -5.5q-14 0 -25 4t-18 10.5t-12 14.5t-10 19q-6 15 -13.5 25.5t-17 17.5t-20.5 10.5t-25 3.5q-28 0 -50 -11t-37.5 -32.5t-24 -52.5 t-8.5 -70t8.5 -69t25 -51t40.5 -32t56 -11q23 0 41.5 5t33.5 15t27.5 23.5t22.5 32.5l79 -32q-11 -35 -28.5 -62t-41.5 -45.5t-54 -29.5t-66 -14l-15 -34q20 0 38.5 -5t33.5 -15.5t23.5 -27t8.5 -37.5q0 -22 -10 -40.5t-28.5 -32t-43.5 -20.5t-53 -7v0z" />
<glyph unicode="&#xe8;" horiz-adv-x="559" d="M275 576l-154 131v4h159l102 -131v-4h-107zM310 83q21 0 39 4.5t33 13t26.5 21.5t20.5 31l81 -36q-10 -32 -29 -57.5t-46 -44t-62.5 -28t-77.5 -9.5q-58 0 -106.5 19.5t-84.5 56t-55 86.5t-19 109t19 109.5t53.5 87t81.5 56.5t102 20q54 0 98 -19t75 -53.5t47.5 -79.5 t16.5 -95v-12t-0.5 -14.5l-1 -15t-1.5 -12.5h-346q3 -35 12.5 -60.5t26.5 -43t41.5 -26t55.5 -8.5v0zM286 419q-22 0 -40 -7.5t-31.5 -22t-22.5 -35.5t-13 -47h204q-1 28 -9 49.5t-21.5 35t-30.5 20.5t-36 7v0z" />
<glyph unicode="&#xe9;" horiz-adv-x="559" d="M468 707l-163 -131h-107v4l110 131h160v-4zM310 83q21 0 39 4.5t33 13t26.5 21.5t20.5 31l81 -36q-10 -32 -29 -57.5t-46 -44t-62.5 -28t-77.5 -9.5q-58 0 -106.5 19.5t-84.5 56t-55 86.5t-19 109t19 109.5t53.5 87t81.5 56.5t102 20q54 0 98 -19t75 -53.5t47.5 -79.5 t16.5 -95v-12t-0.5 -14.5l-1 -15t-1.5 -12.5h-346q3 -35 12.5 -60.5t26.5 -43t41.5 -26t55.5 -8.5v0zM286 419q-22 0 -40 -7.5t-31.5 -22t-22.5 -35.5t-13 -47h204q-1 28 -9 49.5t-21.5 35t-30.5 20.5t-36 7v0z" />
<glyph unicode="&#xea;" horiz-adv-x="559" d="M364 576l-77 63l-75 -63h-124v4l153 131h97l153 -131v-4h-127zM310 83q21 0 39 4.5t33 13t26.5 21.5t20.5 31l81 -36q-10 -32 -29 -57.5t-46 -44t-62.5 -28t-77.5 -9.5q-58 0 -106.5 19.5t-84.5 56t-55 86.5t-19 109t19 109.5t53.5 87t81.5 56.5t102 20q54 0 98 -19 t75 -53.5t47.5 -79.5t16.5 -95v-12t-0.5 -14.5l-1 -15t-1.5 -12.5h-346q3 -35 12.5 -60.5t26.5 -43t41.5 -26t55.5 -8.5v0zM286 419q-22 0 -40 -7.5t-31.5 -22t-22.5 -35.5t-13 -47h204q-1 28 -9 49.5t-21.5 35t-30.5 20.5t-36 7v0z" />
<glyph unicode="&#xeb;" horiz-adv-x="559" d="M311 661q0 18 6.5 34t19 28t28 18.5t33.5 6.5t34.5 -6.5t28.5 -18.5t19 -28t7 -34q0 -17 -7 -32.5t-19 -27.5t-28.5 -18.5t-34.5 -6.5t-33.5 6.5t-28 18.5t-19 27.5t-6.5 32.5v0zM94 661q0 18 6.5 34t19 28t28 18.5t33.5 6.5t34 -6.5t28.5 -18.5t19 -28t6.5 -34 q0 -17 -6.5 -32.5t-19 -27.5t-28.5 -18.5t-34 -6.5t-33.5 6.5t-28 18.5t-19 27.5t-6.5 32.5v0zM310 83q21 0 39 4.5t33 13t26.5 21.5t20.5 31l81 -36q-10 -32 -29 -57.5t-46 -44t-62.5 -28t-77.5 -9.5q-58 0 -106.5 19.5t-84.5 56t-55 86.5t-19 109t19 109.5t53.5 87 t81.5 56.5t102 20q54 0 98 -19t75 -53.5t47.5 -79.5t16.5 -95v-12t-0.5 -14.5l-1 -15t-1.5 -12.5h-346q3 -35 12.5 -60.5t26.5 -43t41.5 -26t55.5 -8.5v0zM286 419q-22 0 -40 -7.5t-31.5 -22t-22.5 -35.5t-13 -47h204q-1 28 -9 49.5t-21.5 35t-30.5 20.5t-36 7v0z" />
<glyph unicode="&#xec;" horiz-adv-x="391" d="M184 576l-154 131v4h159l102 -131v-4h-107zM29 76l93 14v294q-16 -3 -32 -3t-31.5 1.5t-28.5 5.5t-23 10v61q24 -3 50 -0.5t51.5 10.5t48.5 21.5t42 30.5l76 -11v-421l90 -13v-76h-336v76z" />
<glyph unicode="&#xed;" horiz-adv-x="391" d="M362 707l-163 -131h-107v4l110 131h160v-4zM29 76l93 14v294q-16 -3 -32 -3t-31.5 1.5t-28.5 5.5t-23 10v61q24 -3 50 -0.5t51.5 10.5t48.5 21.5t42 30.5l76 -11v-421l90 -13v-76h-336v76z" />
<glyph unicode="&#xee;" horiz-adv-x="391" d="M273 576l-77 63l-75 -63h-124v4l153 131h97l153 -131v-4h-127zM29 76l93 14v294q-16 -3 -32 -3t-31.5 1.5t-28.5 5.5t-23 10v61q24 -3 50 -0.5t51.5 10.5t48.5 21.5t42 30.5l76 -11v-421l90 -13v-76h-336v76z" />
<glyph unicode="&#xef;" horiz-adv-x="391" d="M220 661q0 18 6.5 34t19 28t28 18.5t33.5 6.5t34.5 -6.5t28.5 -18.5t19 -28t7 -34q0 -17 -7 -32.5t-19 -27.5t-28.5 -18.5t-34.5 -6.5t-33.5 6.5t-28 18.5t-19 27.5t-6.5 32.5v0zM3 661q0 18 6.5 34t19 28t28 18.5t33.5 6.5t34 -6.5t28.5 -18.5t19 -28t6.5 -34 q0 -17 -6.5 -32.5t-19 -27.5t-28.5 -18.5t-34 -6.5t-33.5 6.5t-28 18.5t-19 27.5t-6.5 32.5v0zM29 76l93 14v294q-16 -3 -32 -3t-31.5 1.5t-28.5 5.5t-23 10v61q24 -3 50 -0.5t51.5 10.5t48.5 21.5t42 30.5l76 -11v-421l90 -13v-76h-336v76z" />
<glyph unicode="&#xf0;" horiz-adv-x="603" d="M205 565l75 47q-13 9 -27.5 16t-30 12.5t-32 9.5t-33.5 7l25 100q31 -2 60.5 -7.5t56.5 -14.5t51.5 -21.5t46.5 -27.5l100 63l20 -34l-87 -55q34 -29 60 -66t44 -81t27.5 -93.5t9.5 -104.5v-19q0 -73 -20 -132.5t-57 -101t-87.5 -63t-111.5 -21.5q-59 0 -108 19t-84 54.5 t-54 83.5t-19 106q0 55 18.5 103t52 83t79 54t98.5 19q18 0 34 -2.5t30.5 -7.5t27 -13t24.5 -18q-7 19 -15.5 37t-18.5 34t-22 30t-25 26l-88 -55zM421 284q0 8 -0.5 16.5l-1 17t-1 16.5t-1.5 17q-10 13 -21.5 23t-25 16.5t-28.5 9.5t-32 3q-28 0 -52 -10.5t-42 -31 t-28 -50.5t-10 -67q0 -38 8.5 -68t24.5 -51.5t38.5 -32.5t50.5 -11t50 11.5t38 36t24.5 63.5t8.5 92v0z" />
<glyph unicode="&#xf1;" horiz-adv-x="733" d="M312 582h-84q0 28 6.5 50t20 38.5t34 25.5t48.5 9q19 0 38 -6.5t44.5 -19t38 -17.5t23.5 -5q7 0 14 3t12 8.5t8 13.5t3 18h84q0 -33 -8.5 -57t-23.5 -38.5t-34 -21.5t-42 -7q-19 0 -38 6.5t-45 19t-37.5 17.5t-22.5 5q-8 0 -15 -3t-12.5 -8t-8.5 -13t-3 -18v0zM400 72 l70 14v208q0 28 -5.5 48.5t-16.5 33.5t-26.5 19.5t-35.5 6.5q-17 0 -33 -4.5t-30 -13t-26 -21t-21 -27.5v-251l70 -13v-72h-317v76l93 14v294q-16 -3 -32 -3t-31.5 1.5t-29 5.5t-23.5 10v61q26 -3 51.5 0t49.5 11t45 21t38 30l74 -10v-111q14 28 34 51t44.5 38.5t53 24 t59.5 8.5q39 0 70.5 -13.5t53.5 -38.5t33.5 -60.5t11.5 -78.5v-242l83 -13v-76h-307v72z" />
<glyph unicode="&#xf2;" horiz-adv-x="602" d="M287 576l-154 131v4h159l102 -131v-4h-107zM30 251q0 59 19.5 109t56 86.5t87 56t111.5 19.5q59 0 109 -19.5t85.5 -56t55 -86.5t19.5 -109t-19.5 -109.5t-56 -87t-87.5 -56.5t-112 -20q-59 0 -108.5 20t-85.5 56.5t-55 87t-19 109.5v0zM178 249q0 -39 8.5 -70.5t25 -53 t39 -33t50.5 -11.5t50.5 11t38.5 33t24.5 53t8.5 71q0 39 -8.5 70.5t-24.5 53t-38.5 33t-50.5 11.5t-51 -11t-39 -32.5t-24.5 -53t-8.5 -71.5v0z" />
<glyph unicode="&#xf3;" horiz-adv-x="602" d="M479 707l-163 -131h-107v4l110 131h160v-4zM30 251q0 59 19.5 109t56 86.5t87 56t111.5 19.5q59 0 109 -19.5t85.5 -56t55 -86.5t19.5 -109t-19.5 -109.5t-56 -87t-87.5 -56.5t-112 -20q-59 0 -108.5 20t-85.5 56.5t-55 87t-19 109.5v0zM178 249q0 -39 8.5 -70.5t25 -53 t39 -33t50.5 -11.5t50.5 11t38.5 33t24.5 53t8.5 71q0 39 -8.5 70.5t-24.5 53t-38.5 33t-50.5 11.5t-51 -11t-39 -32.5t-24.5 -53t-8.5 -71.5v0z" />
<glyph unicode="&#xf4;" horiz-adv-x="602" d="M376 576l-77 63l-75 -63h-124v4l153 131h97l153 -131v-4h-127zM30 251q0 59 19.5 109t56 86.5t87 56t111.5 19.5q59 0 109 -19.5t85.5 -56t55 -86.5t19.5 -109t-19.5 -109.5t-56 -87t-87.5 -56.5t-112 -20q-59 0 -108.5 20t-85.5 56.5t-55 87t-19 109.5v0zM178 249 q0 -39 8.5 -70.5t25 -53t39 -33t50.5 -11.5t50.5 11t38.5 33t24.5 53t8.5 71q0 39 -8.5 70.5t-24.5 53t-38.5 33t-50.5 11.5t-51 -11t-39 -32.5t-24.5 -53t-8.5 -71.5v0z" />
<glyph unicode="&#xf5;" horiz-adv-x="602" d="M198 582h-84q0 28 6.5 50t20 38.5t34 25.5t48.5 9q19 0 38 -6.5t44.5 -19t38 -17.5t23.5 -5q7 0 14 3t12 8.5t8 13.5t3 18h84q0 -33 -8.5 -57t-23.5 -38.5t-34 -21.5t-42 -7q-19 0 -38 6.5t-45 19t-37.5 17.5t-22.5 5q-8 0 -15 -3t-12.5 -8t-8.5 -13t-3 -18v0zM30 251 q0 59 19.5 109t56 86.5t87 56t111.5 19.5q59 0 109 -19.5t85.5 -56t55 -86.5t19.5 -109t-19.5 -109.5t-56 -87t-87.5 -56.5t-112 -20q-59 0 -108.5 20t-85.5 56.5t-55 87t-19 109.5v0zM178 249q0 -39 8.5 -70.5t25 -53t39 -33t50.5 -11.5t50.5 11t38.5 33t24.5 53t8.5 71 q0 39 -8.5 70.5t-24.5 53t-38.5 33t-50.5 11.5t-51 -11t-39 -32.5t-24.5 -53t-8.5 -71.5v0z" />
<glyph unicode="&#xf6;" horiz-adv-x="602" d="M323 661q0 18 6.5 34t19 28t28 18.5t33.5 6.5t34.5 -6.5t28.5 -18.5t19 -28t7 -34q0 -17 -7 -32.5t-19 -27.5t-28.5 -18.5t-34.5 -6.5t-33.5 6.5t-28 18.5t-19 27.5t-6.5 32.5v0zM106 661q0 18 6.5 34t19 28t28 18.5t33.5 6.5t34 -6.5t28.5 -18.5t19 -28t6.5 -34 q0 -17 -6.5 -32.5t-19 -27.5t-28.5 -18.5t-34 -6.5t-33.5 6.5t-28 18.5t-19 27.5t-6.5 32.5v0zM30 251q0 59 19.5 109t56 86.5t87 56t111.5 19.5q59 0 109 -19.5t85.5 -56t55 -86.5t19.5 -109t-19.5 -109.5t-56 -87t-87.5 -56.5t-112 -20q-59 0 -108.5 20t-85.5 56.5t-55 87 t-19 109.5v0zM178 249q0 -39 8.5 -70.5t25 -53t39 -33t50.5 -11.5t50.5 11t38.5 33t24.5 53t8.5 71q0 39 -8.5 70.5t-24.5 53t-38.5 33t-50.5 11.5t-51 -11t-39 -32.5t-24.5 -53t-8.5 -71.5v0z" />
<glyph unicode="&#xf7;" horiz-adv-x="494" d="M164 480q0 17 6.5 32t17.5 26t26 17t31 6q17 0 32 -6t26.5 -17t17.5 -26t6 -32q0 -16 -6 -30.5t-17.5 -25.5t-26.5 -17t-32 -6q-16 0 -31 6t-26 17t-17.5 25.5t-6.5 30.5v0zM50 264v95h394v-95h-394zM166 141q0 17 6 31.5t17.5 25.5t26 17t31.5 6t32 -6t26.5 -17 t17.5 -25.5t6 -31.5t-6 -31.5t-17.5 -25.5t-26.5 -17t-32 -6t-31.5 6t-26 17t-17.5 25.5t-6 31.5v0z" />
<glyph unicode="&#xf8;" horiz-adv-x="602" d="M31 251q0 59 19.5 109t56 86.5t87 56t111.5 19.5q23 0 45 -3.5t42.5 -10.5t38.5 -16.5t35 -22.5l30 31h111l-86 -88q12 -17 22 -35.5t16.5 -39t10 -42t3.5 -44.5q0 -59 -19.5 -109.5t-56 -87t-87 -56.5t-111.5 -20q-22 0 -43 3t-40 9.5t-36.5 15.5t-33.5 20l-25 -26h-110 l78 80q-14 17 -25 36.5t-18 41t-11 45t-4 48.5v0zM178 249q0 -10 0.5 -19t1.5 -18t2.5 -17t3.5 -15l196 202q-8 9 -17 15.5t-19.5 11t-21.5 6.5t-23 2q-28 0 -51 -11t-39 -32.5t-24.5 -53t-8.5 -71.5v0zM424 249q0 8 -0.5 15.5t-1 14.5t-1.5 13.5t-3 13.5l-192 -198 q7 -7 16 -12t18.5 -8.5t19.5 -5t21 -1.5q28 0 50.5 11t39 33t25 53t8.5 71v0z" />
<glyph unicode="&#xf9;" horiz-adv-x="678" d="M325 576l-154 131v4h159l102 -131v-4h-107zM260 -22q-42 0 -73.5 13.5t-53 37.5t-32 57.5t-10.5 74.5v220q-14 -1 -27.5 -0.5t-26 2.5t-23 6t-19.5 9v61q23 -3 46.5 -0.5t46.5 10.5t44.5 21t39.5 31l73 -10v-311q0 -27 5.5 -47t16 -32.5t26.5 -19t37 -6.5q16 0 30.5 3.5 t28 10.5t25 17t20.5 23v233q-15 -2 -29.5 -1.5t-28 2.5t-25.5 6t-22 9v61q23 -3 47.5 -0.5t49 10.5t47 21t40.5 31l75 -10v-433h72v-77l-208 -11l-6 4l-3 93q-14 -26 -34 -46t-43.5 -34t-50.5 -21.5t-55 -7.5v0z" />
<glyph unicode="&#xfa;" horiz-adv-x="678" d="M518 707l-163 -131h-107v4l110 131h160v-4zM260 -22q-42 0 -73.5 13.5t-53 37.5t-32 57.5t-10.5 74.5v220q-14 -1 -27.5 -0.5t-26 2.5t-23 6t-19.5 9v61q23 -3 46.5 -0.5t46.5 10.5t44.5 21t39.5 31l73 -10v-311q0 -27 5.5 -47t16 -32.5t26.5 -19t37 -6.5q16 0 30.5 3.5 t28 10.5t25 17t20.5 23v233q-15 -2 -29.5 -1.5t-28 2.5t-25.5 6t-22 9v61q23 -3 47.5 -0.5t49 10.5t47 21t40.5 31l75 -10v-433h72v-77l-208 -11l-6 4l-3 93q-14 -26 -34 -46t-43.5 -34t-50.5 -21.5t-55 -7.5v0z" />
<glyph unicode="&#xfb;" horiz-adv-x="678" d="M414 576l-77 63l-75 -63h-124v4l153 131h97l153 -131v-4h-127zM260 -22q-42 0 -73.5 13.5t-53 37.5t-32 57.5t-10.5 74.5v220q-14 -1 -27.5 -0.5t-26 2.5t-23 6t-19.5 9v61q23 -3 46.5 -0.5t46.5 10.5t44.5 21t39.5 31l73 -10v-311q0 -27 5.5 -47t16 -32.5t26.5 -19 t37 -6.5q16 0 30.5 3.5t28 10.5t25 17t20.5 23v233q-15 -2 -29.5 -1.5t-28 2.5t-25.5 6t-22 9v61q23 -3 47.5 -0.5t49 10.5t47 21t40.5 31l75 -10v-433h72v-77l-208 -11l-6 4l-3 93q-14 -26 -34 -46t-43.5 -34t-50.5 -21.5t-55 -7.5v0z" />
<glyph unicode="&#xfc;" horiz-adv-x="678" d="M361 661q0 18 6.5 34t19 28t28 18.5t33.5 6.5t34.5 -6.5t28.5 -18.5t19 -28t7 -34q0 -17 -7 -32.5t-19 -27.5t-28.5 -18.5t-34.5 -6.5t-33.5 6.5t-28 18.5t-19 27.5t-6.5 32.5v0zM144 661q0 18 6.5 34t19 28t28 18.5t33.5 6.5t34 -6.5t28.5 -18.5t19 -28t6.5 -34 q0 -17 -6.5 -32.5t-19 -27.5t-28.5 -18.5t-34 -6.5t-33.5 6.5t-28 18.5t-19 27.5t-6.5 32.5v0zM260 -22q-42 0 -73.5 13.5t-53 37.5t-32 57.5t-10.5 74.5v220q-14 -1 -27.5 -0.5t-26 2.5t-23 6t-19.5 9v61q23 -3 46.5 -0.5t46.5 10.5t44.5 21t39.5 31l73 -10v-311 q0 -27 5.5 -47t16 -32.5t26.5 -19t37 -6.5q16 0 30.5 3.5t28 10.5t25 17t20.5 23v233q-15 -2 -29.5 -1.5t-28 2.5t-25.5 6t-22 9v61q23 -3 47.5 -0.5t49 10.5t47 21t40.5 31l75 -10v-433h72v-77l-208 -11l-6 4l-3 93q-14 -26 -34 -46t-43.5 -34t-50.5 -21.5t-55 -7.5v0z" />
<glyph unicode="&#xfd;" horiz-adv-x="628" d="M491 707l-163 -131h-107v4l110 131h160v-4zM221 -37l20 51l-170 401l-58 8v77h272v-73l-65 -10l96 -246h1l98 246l-75 10v73h274v-77l-55 -8l-211 -485q-20 -45 -42.5 -77t-50.5 -53t-61.5 -31t-75.5 -10q-31 0 -56.5 7t-44.5 19.5t-29 29.5t-10 37q0 16 5.5 29t15 22 t21.5 13.5t25 4.5q17 0 28 -6t22.5 -17t18.5 -16t19 -5q11 0 22.5 4.5t23 14.5t22.5 26.5t20 40.5v0z" />
<glyph unicode="&#xfe;" horiz-adv-x="610" d="M305 82q28 0 51.5 11.5t40 33t25.5 53t9 70.5t-8 69.5t-23.5 51t-37 31.5t-49.5 11q-14 0 -26 -3t-23 -9t-19.5 -13.5t-15.5 -17.5v-259q7 -7 15.5 -12.5t18 -9.5t20.5 -5.5t22 -1.5v0zM-16 -142l91 14v741q-16 -3 -32 -3.5t-31 1.5t-28 6t-23 10v61q27 -4 54 -0.5 t52.5 12.5t47.5 23t40 32l74 -10v-294q12 17 26.5 30.5t32.5 22.5t38.5 13.5t42.5 4.5q47 0 86 -19.5t67 -55t43 -84t15 -104.5q0 -62 -18.5 -114t-52 -89.5t-76.5 -57.5t-92 -20q-15 0 -30 2t-29 6t-27.5 10.5t-25.5 14.5v-139l94 -14v-76h-339v76z" />
<glyph unicode="&#xff;" horiz-adv-x="628" d="M335 661q0 18 6.5 34t19 28t28 18.5t33.5 6.5t34.5 -6.5t28.5 -18.5t19 -28t7 -34q0 -17 -7 -32.5t-19 -27.5t-28.5 -18.5t-34.5 -6.5t-33.5 6.5t-28 18.5t-19 27.5t-6.5 32.5v0zM118 661q0 18 6.5 34t19 28t28 18.5t33.5 6.5t34 -6.5t28.5 -18.5t19 -28t6.5 -34 q0 -17 -6.5 -32.5t-19 -27.5t-28.5 -18.5t-34 -6.5t-33.5 6.5t-28 18.5t-19 27.5t-6.5 32.5v0zM221 -37l20 51l-170 401l-58 8v77h272v-73l-65 -10l96 -246h1l98 246l-75 10v73h274v-77l-55 -8l-211 -485q-20 -45 -42.5 -77t-50.5 -53t-61.5 -31t-75.5 -10q-31 0 -56.5 7 t-44.5 19.5t-29 29.5t-10 37q0 16 5.5 29t15 22t21.5 13.5t25 4.5q17 0 28 -6t22.5 -17t18.5 -16t19 -5q11 0 22.5 4.5t23 14.5t22.5 26.5t20 40.5v0z" />
<glyph unicode="&#x131;" horiz-adv-x="391" d="M29 76l93 14v294q-16 -3 -32 -3t-31.5 1.5t-28.5 5.5t-23 10v61q24 -3 50 -0.5t51.5 10.5t48.5 21.5t42 30.5l76 -11v-421l90 -13v-76h-336v76z" />
<glyph unicode="&#x141;" horiz-adv-x="712" d="M29 690h403v-79l-125 -16v-181l189 95v-107l-189 -95v-206h237l83 189l77 -16l-49 -274h-626v79l115 15v131l-115 -58v107l115 58v263l-115 16v79z" />
<glyph unicode="&#x142;" horiz-adv-x="389" d="M29 76l87 13v140l-86 -57v107l86 57v277q-16 -3 -31.5 -3.5t-31 1.5t-28.5 6t-23 10v61q27 -4 54 -0.5t52 12.5t47 23t40 32l75 -10v-306l93 63v-107l-93 -63v-243l93 -13v-76h-334v76z" />
<glyph unicode="&#x152;" horiz-adv-x="1131" d="M202 343q0 -59 13.5 -105.5t38 -78t58.5 -47.5t74 -16t74 16t58.5 47.5t38 78t13.5 105.5t-13.5 105.5t-38 78t-58.5 47.5t-74 16q-41 0 -74.5 -16t-58 -47.5t-38 -78t-13.5 -105.5v0zM1022 437l-79 152h-289q15 -19 28 -40.5t22.5 -45t16.5 -50t10 -54.5h92l20 93h80 v-281h-80l-20 87h-90q-3 -30 -9.5 -57t-16 -52t-22 -47t-28.5 -41h303l69 189l76 -16l-31 -274h-559q-15 -6 -31 -10t-32.5 -7t-34 -4.5t-35.5 -1.5q-75 0 -139.5 26t-112 75t-73 116.5t-25.5 149.5t26 149.5t74 116.5t114 75t143 26q17 0 33 -1.5t31.5 -4t30.5 -6.5t29 -9 h541l47 -229z" />
<glyph unicode="&#x153;" horiz-adv-x="959" d="M710 83q21 0 39 4.5t33.5 13t27 21.5t20.5 31l80 -36q-10 -32 -28.5 -57.5t-46 -43.5t-62.5 -28t-77 -10q-31 0 -59 5.5t-53 17t-46.5 27.5t-38.5 37q-17 -21 -38.5 -37t-47 -27.5t-54.5 -17t-61 -5.5q-59 0 -108.5 20t-85.5 56.5t-55 87t-19 109.5t19.5 109t56 86.5 t87 56t111.5 19.5q31 0 59 -5.5t53 -16.5t45.5 -27t37.5 -37q16 21 36.5 37t44.5 27t50.5 16.5t55.5 5.5q54 0 98 -19.5t75.5 -53.5t48 -79t16.5 -95q0 -5 -0.5 -12t-1 -14.5t-1 -14.5t-1.5 -13h-346q3 -34 12.5 -60t27 -43.5t41.5 -26t55 -8.5v0zM687 419q-22 0 -40.5 -7.5 t-32 -22.5t-22.5 -35.5t-13 -46.5h204q-1 28 -9 49.5t-21 35t-30 20.5t-36 7v0zM175 249q0 -39 9 -70.5t25.5 -53t39 -33t50.5 -11.5t50.5 11t39 33t25 53t8.5 71q0 39 -8.5 70.5t-25 53t-39 33t-50.5 11.5t-51 -11t-39.5 -32.5t-25 -53t-8.5 -71.5v0z" />
<glyph unicode="&#x160;" horiz-adv-x="642" d="M102 891h127l76 -62l76 62h124v-3l-153 -132h-97l-153 132v3zM501 438l-25 48q-14 26 -32 46t-40 33t-47 19.5t-53 6.5q-26 0 -45.5 -5.5t-32.5 -15.5t-19 -24t-6 -31q0 -22 10.5 -38t29.5 -27.5t42.5 -20t61.5 -19.5q63 -19 106 -35.5t77.5 -41t54 -61.5t19.5 -88 q0 -47 -16.5 -85t-48 -65.5t-75.5 -42t-98 -14.5q-34 0 -63.5 6t-53.5 17t-43.5 27.5t-35.5 37.5l-11 -74h-83l-41 265l74 20l36 -65q16 -29 36 -51t43.5 -37t51 -22.5t58.5 -7.5q28 0 48.5 6t34 16.5t20 26t6.5 34.5q0 20 -8.5 35t-26 26.5t-45.5 21.5t-72 22 q-45 12 -81.5 25.5t-74 38.5t-62 65.5t-24.5 95.5q0 47 17.5 85t49 65t73 41t88.5 14q28 0 53.5 -5.5t47.5 -16t40.5 -26t32.5 -36.5l13 82h80l41 -252z" />
<glyph unicode="&#x161;" horiz-adv-x="514" d="M37 711h127l76 -62l76 62h124v-3l-153 -132h-97l-153 132v3zM463 330l-77 -15l-21 34q-12 18 -25.5 31.5t-28 22t-30.5 12.5t-35 4q-20 0 -33.5 -4t-22 -10.5t-12 -15.5t-3.5 -19q0 -15 8.5 -25t24.5 -17.5t2.5 -3.5t91.5 -27q45 -14 77.5 -29t54 -34.5t32.5 -45 t11 -59.5q0 -30 -11 -57.5t-33 -48.5t-55 -33t-75 -12q-24 0 -47 4t-44 13t-40 22.5t-34 32.5l-5 -62h-78l-31 193l78 18l19 -35q13 -21 29 -37t34.5 -26.5t39 -15.5t41.5 -5q18 0 31.5 3t22.5 9t13.5 15t4.5 21t-6 22t-19 18t-33.5 15.5t-52.5 17.5q-40 12 -69.5 23.5 t-57 30.5t-44 47.5t-16.5 68.5q0 34 12.5 62t35.5 48t54 30.5t67 10.5q22 0 41.5 -4t37.5 -12t33 -19t28 -26l11 62h74z" />
<glyph unicode="&#x178;" horiz-adv-x="747" d="M395 841q0 18 6.5 34t19 28t28 18.5t33.5 6.5t34.5 -6.5t28.5 -18.5t19 -28t7 -34q0 -17 -7 -32.5t-19 -27.5t-28.5 -18.5t-34.5 -6.5t-33.5 6.5t-28 18.5t-19 27.5t-6.5 32.5v0zM178 841q0 18 6.5 34t19 28t28 18.5t33.5 6.5t34 -6.5t28.5 -18.5t19 -28t6.5 -34 q0 -17 -6.5 -32.5t-19 -27.5t-28.5 -18.5t-34 -6.5t-33.5 6.5t-28 18.5t-19 27.5t-6.5 32.5v0zM565 0h-383v79l110 15v146l-188 355l-83 16v79h322v-79l-81 -12l115 -240h1l113 238l-82 14v79h317v-79l-83 -13l-188 -360v-144l110 -15v-79z" />
<glyph unicode="&#x17d;" horiz-adv-x="647" d="M133 891h127l76 -62l76 62h124v-3l-153 -132h-97l-153 132v3zM225 101h259l76 185l76 -16l-40 -270h-568v73l388 516h-237l-80 -156l-78 24l53 233l1 -1v1h536v-79z" />
<glyph unicode="&#x17e;" horiz-adv-x="547" d="M82 711h127l76 -62l76 62h124v-3l-153 -132h-97l-153 132v3zM222 91h174l56 127l69 -16l-35 -202h-455v57l280 352h-147l-62 -106l-68 15l41 182h418v-62z" />
<glyph unicode="&#x192;" horiz-adv-x="515" d="M35 312l99 26l8 58q8 55 26 95.5t45 66.5t60.5 38t72.5 12q36 0 65.5 -9t50.5 -25t32 -36.5t11 -42.5q0 -14 -5 -26t-13 -20.5t-19 -13.5t-23 -5q-25 0 -38 9t-24 26t-18.5 24.5t-23.5 7.5q-19 0 -30.5 -10.5t-17 -29.5t-7.5 -40.5t-5 -71.5h117l-12 -98h-114v-3 l-39 -273q-6 -42 -21 -80t-41.5 -68.5t-66.5 -48.5t-92 -18q-23 0 -44.5 5t-39 16t-28 28t-10.5 41q0 14 4.5 26t13 21t19 14t21.5 5q12 0 21 -3.5t20 -11t19 -11t18 -3.5q13 0 22.5 6t17 18.5t12.5 32.5t9 49l35 258h-95z" />
<glyph unicode="&#x2c6;" d="M374 576l-77 63l-75 -63h-124v4l153 131h97l153 -131v-4h-127z" />
<glyph unicode="&#x2c7;" d="M98 711h127l76 -62l76 62h124v-3l-153 -132h-97l-153 132v3z" />
<glyph unicode="&#x2d8;" d="M476 709q0 -34 -12 -60t-34.5 -44t-55.5 -27.5t-75 -9.5t-75 9.5t-55.5 27.5t-34 44t-11.5 60h103q0 -16 4.5 -29t13.5 -22t22.5 -14t32.5 -5t33 5t23 14t13.5 22t4.5 29h103z" />
<glyph unicode="&#x2d9;" d="M212 661q0 18 6.5 34t19 28t28 18.5t33.5 6.5t34 -6.5t28.5 -18.5t19 -28t6.5 -34q0 -17 -6.5 -32.5t-19 -27.5t-28.5 -18.5t-34 -6.5t-33.5 6.5t-28 18.5t-19 27.5t-6.5 32.5v0z" />
<glyph unicode="&#x2da;" d="M300 774q23 0 43 -7.5t34.5 -22t22.5 -33.5t8 -41t-8 -41t-22.5 -33.5t-34.5 -22t-43 -7.5t-43 7.5t-34.5 22t-22.5 33.5t-8 41t8 41t22.5 33.5t34.5 22t43 7.5v0zM300 724q-11 0 -20 -4.5t-15.5 -12t-10 -17t-3.5 -20.5t3.5 -21t10 -17.5t15.5 -11.5t20 -4t20 4 t15.5 11.5t10 17.5t3.5 21t-3.5 20.5t-10 17t-15.5 12t-20 4.5v0z" />
<glyph unicode="&#x2db;" d="M347 43l5 -43q-19 -1 -34 -8t-26 -18.5t-16.5 -25.5t-5.5 -29q0 -16 4.5 -27t12.5 -18t18.5 -10.5t22.5 -3.5q8 0 15 1t14.5 3.5t14.5 6t14 8.5l30 -67q-11 -6 -22.5 -11t-25 -8.5t-27.5 -5.5t-28 -2q-26 0 -49.5 7t-42 22t-29 37.5t-10.5 52.5q0 28 13 54t36.5 46 t53.5 30t62 9v0z" />
<glyph unicode="&#x2dc;" d="M197 582h-84q0 28 6.5 50t20 38.5t34 25.5t48.5 9q19 0 38 -6.5t44.5 -19t38 -17.5t23.5 -5q7 0 14 3t12 8.5t8 13.5t3 18h84q0 -33 -8.5 -57t-23.5 -38.5t-34 -21.5t-42 -7q-19 0 -38 6.5t-45 19t-37.5 17.5t-22.5 5q-8 0 -15 -3t-12.5 -8t-8.5 -13t-3 -18v0z" />
<glyph unicode="&#x2dd;" d="M509 707l-138 -131h-100v4l114 131h124v-4zM323 707l-114 -131h-98v4l95 131h117v-4z" />
<glyph unicode="&#x2000;" horiz-adv-x="477" />
<glyph unicode="&#x2001;" horiz-adv-x="954" />
<glyph unicode="&#x2002;" horiz-adv-x="477" />
<glyph unicode="&#x2003;" horiz-adv-x="954" />
<glyph unicode="&#x2004;" horiz-adv-x="318" />
<glyph unicode="&#x2005;" horiz-adv-x="238" />
<glyph unicode="&#x2006;" horiz-adv-x="159" />
<glyph unicode="&#x2007;" horiz-adv-x="159" />
<glyph unicode="&#x2008;" horiz-adv-x="119" />
<glyph unicode="&#x2009;" horiz-adv-x="190" />
<glyph unicode="&#x200a;" horiz-adv-x="53" />
<glyph unicode="&#x2010;" horiz-adv-x="385" d="M50 369h285v-103h-285v103z" />
<glyph unicode="&#x2011;" horiz-adv-x="385" d="M50 369h285v-103h-285v103z" />
<glyph unicode="&#x2012;" horiz-adv-x="385" d="M50 369h285v-103h-285v103z" />
<glyph unicode="&#x2013;" horiz-adv-x="484" d="M50 369h384v-103h-384v103z" />
<glyph unicode="&#x2014;" horiz-adv-x="966" d="M50 369h866v-103h-866v103z" />
<glyph unicode="&#x2018;" horiz-adv-x="272" d="M208 710q-13 -9 -24 -20.5t-19.5 -25t-14.5 -27.5t-8 -28q17 0 32 -6t26 -17.5t17 -25.5t6 -29q0 -17 -6.5 -32t-18 -26.5t-26.5 -18t-31 -6.5q-18 0 -34 6.5t-27 19.5t-17.5 31.5t-6.5 41.5q0 34 7.5 65t22 57.5t36 47.5t48.5 36z" />
<glyph unicode="&#x2019;" horiz-adv-x="272" d="M70 485q13 9 24 20.5t19.5 25t14.5 27.5t8 28q-17 0 -32 6t-26 17.5t-17 25.5t-6 29q0 17 6.5 32t18 26.5t26.5 18t31 6.5q18 0 34 -6.5t27 -19.5t17.5 -31.5t6.5 -41.5q0 -34 -7.5 -65t-22 -57.5t-36 -47.5t-48.5 -36z" />
<glyph unicode="&#x201a;" horiz-adv-x="272" d="M70 -116q13 9 24 20.5t19.5 25t14.5 27.5t8 28q-17 0 -32 6t-26 17.5t-17 25.5t-6 29q0 17 6.5 32t18 26.5t26.5 18t31 6.5q18 0 34 -6.5t27 -19.5t17.5 -31.5t6.5 -41.5q0 -34 -7.5 -65t-22 -57.5t-36 -47.5t-48.5 -36z" />
<glyph unicode="&#x201c;" horiz-adv-x="472" d="M404 710q-13 -9 -24 -20.5t-19.5 -25t-14.5 -27.5t-8 -28q17 0 32 -6t26 -17.5t17 -25.5t6 -29q0 -17 -6.5 -32t-18 -26.5t-26.5 -18t-31 -6.5q-18 0 -34 6.5t-27 19.5t-17.5 31.5t-6.5 41.5q0 34 7.5 65t22 57.5t36 47.5t48.5 36zM208 710q-13 -9 -24 -20.5t-19.5 -25 t-14.5 -27.5t-8 -28q17 0 32 -6t26 -17.5t17 -25.5t6 -29q0 -17 -6.5 -32t-18 -26.5t-26.5 -18t-31 -6.5q-18 0 -34 6.5t-27 19.5t-17.5 31.5t-6.5 41.5q0 34 7.5 65t22 57.5t36 47.5t48.5 36z" />
<glyph unicode="&#x201d;" horiz-adv-x="472" d="M266 485q13 9 24 20.5t19.5 25t14.5 27.5t8 28q-17 0 -32 6t-26 17.5t-17 25.5t-6 29q0 17 6.5 32t18 26.5t26.5 18t31 6.5q18 0 34 -6.5t27 -19.5t17.5 -31.5t6.5 -41.5q0 -34 -7.5 -65t-22 -57.5t-36 -47.5t-48.5 -36zM70 485q13 9 24 20.5t19.5 25t14.5 27.5t8 28 q-17 0 -32 6t-26 17.5t-17 25.5t-6 29q0 17 6.5 32t18 26.5t26.5 18t31 6.5q18 0 34 -6.5t27 -19.5t17.5 -31.5t6.5 -41.5q0 -34 -7.5 -65t-22 -57.5t-36 -47.5t-48.5 -36z" />
<glyph unicode="&#x201e;" horiz-adv-x="472" d="M266 -116q13 9 24 20.5t19.5 25t14.5 27.5t8 28q-17 0 -32 6t-26 17.5t-17 25.5t-6 29q0 17 6.5 32t18 26.5t26.5 18t31 6.5q18 0 34 -6.5t27 -19.5t17.5 -31.5t6.5 -41.5q0 -34 -7.5 -65t-22 -57.5t-36 -47.5t-48.5 -36zM70 -116q13 9 24 20.5t19.5 25t14.5 27.5t8 28 q-17 0 -32 6t-26 17.5t-17 25.5t-6 29q0 17 6.5 32t18 26.5t26.5 18t31 6.5q18 0 34 -6.5t27 -19.5t17.5 -31.5t6.5 -41.5q0 -34 -7.5 -65t-22 -57.5t-36 -47.5t-48.5 -36z" />
<glyph unicode="&#x2020;" horiz-adv-x="399" d="M122 734h154l-10 -156h89v-97h-94l-8 -286h-108l-8 286h-93v97h88z" />
<glyph unicode="&#x2021;" horiz-adv-x="399" d="M44 481v97h87l-9 156h154l-9 -156h88v-97h-94l-1 -26l1 -29h94v-98h-89l6 -133h-146l6 133h-88v98h93l2 29l-2 26h-93z" />
<glyph unicode="&#x2022;" horiz-adv-x="377" d="M53 335q0 28 10.5 52.5t29 43t43.5 29t54 10.5q28 0 52.5 -10.5t43 -29t28.5 -43t10 -52.5q0 -27 -10 -51.5t-28.5 -43t-43 -29t-52.5 -10.5q-29 0 -54 10.5t-43.5 29t-29 43t-10.5 51.5v0z" />
<glyph unicode="&#x2026;" horiz-adv-x="823" d="M598 69q0 18 6.5 33.5t18.5 27.5t28.5 18.5t34.5 6.5t34 -6.5t28.5 -18.5t19 -27.5t6.5 -33.5t-6.5 -33.5t-19 -28t-28.5 -19t-34 -6.5t-34.5 6.5t-28.5 18.5t-18.5 28t-6.5 34v0zM324 69q0 18 6.5 33.5t18.5 27.5t28 18.5t34 6.5t34.5 -6.5t28.5 -18.5t19 -27.5t7 -33.5 t-7 -33.5t-19 -28t-28.5 -19t-34.5 -6.5t-34 6.5t-28 19t-18.5 28t-6.5 33.5v0zM49 69q0 18 6.5 33.5t19 27.5t28.5 18.5t34 6.5t34 -6.5t28.5 -18.5t19 -27.5t6.5 -33.5t-6.5 -33.5t-19 -28t-28.5 -19t-34 -6.5t-34 6.5t-28.5 19t-19 28t-6.5 33.5v0z" />
<glyph unicode="&#x202f;" horiz-adv-x="190" />
<glyph unicode="&#x2030;" horiz-adv-x="1454" d="M23 490q0 49 13.5 89.5t39 69t61 44t79.5 15.5q43 0 78.5 -15.5t60.5 -44t38 -69t13 -89.5t-13.5 -89t-39 -69t-61.5 -44.5t-79 -15.5q-44 0 -79.5 15.5t-60 44.5t-37.5 69t-13 89v0zM407 0h-119l325 691h119zM123 491q0 -32 6.5 -57.5t19 -42.5t29 -25.5t36.5 -8.5 t36.5 8.5t28.5 25.5t19 42.5t7 57.5t-7 57t-19 41.5t-29 25t-37 8.5t-36.5 -8.5t-28.5 -25t-18.5 -41.5t-6.5 -57v0zM808 -15q-44 0 -79.5 15.5t-60 44.5t-37.5 69t-13 89t13.5 89.5t39 69t61 44t79.5 15.5q43 0 78.5 -15.5t60.5 -44t38 -69t13 -89.5t-13.5 -89t-39 -69 t-61.5 -44.5t-79 -15.5v0zM1238 -15q-44 0 -79.5 15.5t-60 44.5t-37.5 69t-13 89t13.5 89.5t39 69t61 44t79.5 15.5q43 0 78.5 -15.5t60.5 -44t38 -69t13 -89.5t-13.5 -89t-39 -69t-61.5 -44.5t-79 -15.5v0zM809 70q20 0 36.5 8.5t28.5 25.5t19 42.5t7 57.5t-7 57t-19 41.5 t-29 25t-37 8.5t-36.5 -8.5t-28.5 -25t-18.5 -41.5t-6.5 -57t6.5 -57.5t19 -42.5t29 -25.5t36.5 -8.5v0zM1239 70q20 0 36.5 8.5t28.5 25.5t19 42.5t7 57.5t-7 57t-19 41.5t-29 25t-37 8.5t-36.5 -8.5t-28.5 -25t-18.5 -41.5t-6.5 -57t6.5 -57.5t19 -42.5t29 -25.5 t36.5 -8.5v0z" />
<glyph unicode="&#x2039;" horiz-adv-x="376" d="M344 495l-180 -245l183 -250h-133l-186 244v7l187 244h129z" />
<glyph unicode="&#x203a;" horiz-adv-x="376" d="M32 0l180 245l-183 250h133l186 -244v-7l-187 -244h-129z" />
<glyph unicode="&#x2044;" horiz-adv-x="484" d="M444 691l-325 -691h-119l325 691h119z" />
<glyph unicode="&#x205f;" horiz-adv-x="238" />
<glyph unicode="&#x20ac;" horiz-adv-x="691" d="M12 341v72h72q10 65 36.5 117t67 88.5t90 55.5t104.5 19q22 0 42.5 -5.5t37.5 -15.5t31.5 -23t25.5 -29l14 74h79l46 -251l-79 -18l-25 47q-15 26 -31 44.5t-34 31t-39 19t-45 6.5q-31 0 -57.5 -10.5t-46.5 -30.5t-34 -50t-20 -69h218l-28 -72h-195v-1v-11.5t0.5 -11 t1 -10t0.5 -11.5h180l-25 -72h-142q10 -33 26.5 -57.5t37.5 -40t45 -23t51 -7.5q33 0 58 7.5t44.5 21t34 33t27.5 45.5l84 -34q-14 -47 -37.5 -82.5t-56 -60t-75.5 -37t-96 -12.5q-54 0 -103 16t-89.5 47.5t-70 78t-44.5 105.5h-81v72h69q-1 5 -1.5 10.5t-0.5 11v10.5v13 h-67z" />
<glyph unicode="&#x2122;" horiz-adv-x="1030" d="M66 549l-50 14l25 127h327l25 -127l-50 -14l-45 75h-39v-245l55 -8v-52h-217v52l53 8v245h-41zM748 690h249v-53l-54 -7v-252l54 -7v-52h-190v52l40 8v171l-108 -233h-64l-105 224l1 -163l41 -7v-52h-190v52l53 8v250l-53 8v53h256v-53l-53 -6l89 -195l87 193l-53 8v53z " />
<glyph unicode="&#x215f;" horiz-adv-x="879" d="M27 340l77 10v225l-66 -34l-30 51l141 110l55 -7v-345l74 -10v-53h-251v53zM310 0h-119l325 691h119z" />
<glyph unicode="&#x2212;" horiz-adv-x="494" d="M50 264v95h394v-95h-394z" />
<glyph unicode="&#x2248;" horiz-adv-x="494" d="M330 309q-23 0 -42.5 4.5t-45 13t-43.5 12.5t-39 4q-11 0 -23.5 -1.5t-26 -4.5t-27.5 -8.5t-26 -13.5v90q10 6 23 11t27 8t28 4.5t28 1.5q24 0 44 -4.5t46.5 -13t44.5 -12.5t40 -4q11 0 23 1.5t25 4.5t26.5 8.5t24.5 13.5v-90q-11 -6 -23.5 -11t-27 -8t-28.5 -4.5 t-28 -1.5v0zM330 175q-23 0 -42.5 4.5t-45 13t-43.5 12.5t-39 4q-11 0 -23.5 -1.5t-26 -4.5t-27.5 -8.5t-26 -13.5v90q10 6 23 11t27 8t28 4.5t28 1.5q24 0 44 -4.5t46.5 -13t44.5 -12.5t40 -4q11 0 23 1.5t25 4.5t26.5 8.5t24.5 13.5v-90q-11 -6 -23.5 -11t-27 -8 t-28.5 -4.5t-28 -1.5v0z" />
<glyph unicode="&#x2260;" horiz-adv-x="494" d="M47 329v96h233l53 68h113l-54 -68h49v-96h-124l-32 -41h156v-95h-230l-52 -66h-112l51 66h-51v95h126l32 41h-158z" />
<glyph unicode="&#xe000;" horiz-adv-x="500" d="M0 500h500v-500h-500v500z" />
</font>
</defs>
</svg>
