<?xml version="1.0" standalone="no"?>
<!DOCTYPE svg PUBLIC "-//W3C//DTD SVG 1.1//EN" "http://www.w3.org/Graphics/SVG/1.1/DTD/svg11.dtd" >
<svg xmlns="http://www.w3.org/2000/svg">
<metadata></metadata>
<defs>
<font id="shiftbook" horiz-adv-x="771" >
<font-face units-per-em="1000" ascent="750" descent="-250" />
<missing-glyph horiz-adv-x="202" />
<glyph unicode="fi" horiz-adv-x="770" d="M532 654q0 11 4 21t11.5 17.5t17.5 11.5t21 4t21 -4t17.5 -11.5t12 -17.5t4.5 -21t-4.5 -21t-12 -17.5t-17.5 -11.5t-21 -4t-21 4t-17.5 11.5t-11.5 17.5t-4 21v0zM43 474l101 13v82q0 46 10.5 79.5t30 55t46.5 31.5t61 10q17 0 32 -3t28 -8t23.5 -12t19.5 -15 q6 -5 10.5 -11t7.5 -12t4.5 -12t1.5 -12q0 -9 -3 -16t-8 -12.5t-12 -8t-15 -2.5q-6 0 -11.5 2.5t-10.5 6t-8.5 8.5t-6.5 10q-5 9 -10.5 15.5t-12.5 11.5t-15.5 7.5t-18.5 2.5q-17 0 -30 -6t-22 -18t-14 -30t-5 -43q0 -8 0.5 -17.5t1 -23.5t0.5 -21.5v-13.5v-22h143v-55h-143 v-383l137 -12v-40h-312v40l101 12v383h-101v39zM433 40l117 12v368q-15 -6 -31.5 -8.5t-33.5 -3t-33.5 1.5t-31.5 6v31q24 -1 46 2.5t43 11.5t40 21t36 30l39 -9v-451l111 -12v-40h-302v40z" />
<glyph unicode="fl" horiz-adv-x="763" d="M435 40l112 12v608q-7 -3 -14.5 -5t-15 -3.5t-15 -2t-14.5 -0.5q-6 0 -12.5 0.5t-13 1.5t-13 2.5t-12.5 3.5v32q24 0 44 4t38 12t34 20.5t30 28.5l38 -8v-695l107 -11v-40h-293v40zM43 474l101 13v82q0 47 12 81t32.5 55t47 30.5t57.5 9.5q25 0 46 -7t35.5 -18.5 t22 -23.5t7.5 -23q0 -8 -3 -14.5t-8 -11.5t-11.5 -7.5t-13.5 -2.5q-10 0 -17 5.5t-18.5 18t-21.5 18.5t-23 6q-16 0 -29.5 -6.5t-23 -19t-15 -31t-5.5 -42.5q0 -3 0.5 -10.5t1 -22.5t1 -24t0.5 -13v-26h144v-55h-144v-383l140 -12v-40h-315v40l101 12v383h-101v39z" />
<glyph unicode=" "  horiz-adv-x="202" />
<glyph unicode="&#x09;" horiz-adv-x="202" />
<glyph unicode="&#xa0;" horiz-adv-x="202" />
<glyph unicode="!" horiz-adv-x="221" d="M66 733h89q0 -15 -3 -98t-7 -188.5t-7.5 -182t-4.5 -80.5h-44q-1 4 -4.5 81t-8 182.5t-7.5 188t-3 97.5v0zM57 39q0 11 4 20.5t11.5 16.5t17 11t20.5 4t21 -4t17.5 -11t11.5 -16.5t4 -20.5t-4 -20.5t-11.5 -17t-17.5 -11.5t-21 -4t-20.5 4t-17 11.5t-11.5 17t-4 20.5v0z " />
<glyph unicode="&#x22;" horiz-adv-x="304" d="M250 505h-61l-13 229h87zM114 505h-60l-14 229h87z" />
<glyph unicode="#" horiz-adv-x="635" d="M244 424l-46 -173h191l46 173h-191zM569 674l-53 -197h119l-15 -53h-118l-46 -173h119l-14 -54h-120l-52 -197h-67l52 197h-191l-52 -197h-67l52 197h-116l15 54h116l46 173h-118l14 53h118l52 197h68l-53 -197h191l52 197h68z" />
<glyph unicode="$" horiz-adv-x="632" d="M146 516q0 -25 9 -45t26 -34.5t40 -26t55 -22.5v238q-30 -2 -53.5 -9.5t-41 -21.5t-26.5 -34t-9 -45v0zM464 174q0 29 -12 50t-32 35.5t-44 24.5t-59 21v-249q36 2 63.5 11.5t46 25t28 36t9.5 45.5v0zM276 -99v97q-34 3 -65 11t-57.5 22t-46 33.5t-31.5 43.5 q-3 5 -5 10.5t-3.5 11t-2.5 11t-1 9.5q0 6 2 12.5t7 12t12 8.5t17 3t17 -3.5t11 -10t15 -33.5q9 -21 22.5 -36.5t30 -25t36 -14.5t42.5 -7v262q-47 16 -80.5 31.5t-60 37t-41.5 52.5t-15 73q0 39 14 70t40 53t62 34t81 14v95h41v-95q31 -2 59 -8.5t52.5 -18t43.5 -29 t31 -40.5q3 -5 5 -10.5l4 -11t3 -11t1 -9.5q0 -6 -2 -12.5t-6.5 -12t-11.5 -9t-17 -3.5q-11 0 -18 4t-11 10.5t-9 19t-6 14.5q-8 18 -20.5 31t-27.5 21t-32.5 12.5t-37.5 5.5v-252q54 -18 87.5 -31t64 -34t49 -52.5t18.5 -74.5q0 -40 -15 -73.5t-43 -58t-69 -38.5t-92 -15 v-96h-41z" />
<glyph unicode="%" horiz-adv-x="971" d="M34 488q0 49 13 88.5t36.5 67.5t56.5 42.5t72 14.5t71.5 -14.5t56.5 -42.5t36.5 -67.5t12.5 -88.5t-13 -89t-37 -68t-57 -42.5t-72 -14.5t-71.5 14.5t-56 42.5t-36 68t-12.5 89v0zM350 0h-63l325 691h63zM91 489q0 -41 9 -72.5t25.5 -52.5t38.5 -31.5t47 -10.5t47 10.5 t38.5 31.5t25.5 52.5t9 72.5q0 40 -9 71t-26 51.5t-38.5 30.5t-47.5 10q-25 0 -46.5 -10t-38 -30.5t-25.5 -51.5t-9 -71v0zM759 -13q-39 0 -71.5 14.5t-56 42.5t-36 68t-12.5 89t13 88.5t36.5 67.5t56.5 42.5t72 14.5t71.5 -14.5t56.5 -42.5t36.5 -67.5t12.5 -88.5t-13 -89 t-37 -68t-57 -42.5t-72 -14.5v0zM760 35q25 0 47 10.5t38.5 31.5t25.5 52.5t9 72.5q0 40 -9 71t-26 51.5t-38.5 30.5t-47.5 10q-25 0 -46.5 -10t-38 -30.5t-25.5 -51.5t-9 -71q0 -41 9 -72.5t25.5 -52.5t38.5 -31.5t47 -10.5v0z" />
<glyph unicode="&#x26;" horiz-adv-x="743" d="M198 556q0 -15 2.5 -31.5t7.5 -34.5t12 -36.5t16 -38.5q35 21 59 37.5t43.5 35t30.5 39.5t11 45q0 18 -5.5 33t-17 25.5t-27.5 16.5t-36 6q-22 0 -40 -6.5t-30.5 -18.5t-19 -30.5t-6.5 -41.5v0zM254 39q27 0 49.5 4.5t41 13t34 20.5t28.5 28q-30 22 -58 48t-53 54 t-46.5 58t-40.5 61q-26 -18 -46 -35.5t-35 -37t-23.5 -41.5t-8.5 -47q0 -30 12 -53.5t34 -40t50.5 -24.5t61.5 -8v0zM519 324q13 27 27.5 47.5t32 35t39.5 22t48 7.5q13 0 24 -2.5t19.5 -7.5t13.5 -13t5 -18t-3 -17.5t-8.5 -12t-12 -7t-13.5 -2.5q-6 0 -19.5 2t-22 3 t-18.5 -1.5t-19 -9.5q-18 -15 -32.5 -39t-43 -93.5t-42.5 -95.5q26 -16 52.5 -28.5t54 -21.5t56 -14t57.5 -5v-55q-33 -1 -66 3t-65.5 13.5t-63 23.5t-60.5 32q-16 -21 -36.5 -37.5t-45.5 -28.5t-56.5 -18.5t-68.5 -6.5q-49 0 -90.5 12t-73 35.5t-48.5 58.5t-17 80 q0 37 12.5 68t34 57t48.5 47t61 43q-11 24 -20 47t-15 45t-9 42.5t-3 39.5q0 36 11 64.5t32 49t52 31t70 10.5q33 0 61.5 -9t49 -26.5t32 -42t11.5 -54.5q0 -36 -15.5 -66t-41 -55t-53.5 -44t-77 -50q16 -28 36 -55t42.5 -53.5t48 -50.5t52.5 -45q9 17 18 36t22 49t20 46.5 t16 34.5v0z" />
<glyph unicode="'" horiz-adv-x="168" d="M114 505h-60l-14 229h87z" />
<glyph unicode="(" horiz-adv-x="329" d="M294 656q-49 -24 -84 -58t-58 -80.5t-34.5 -106t-11.5 -135.5t11.5 -135.5t34.5 -106t58 -80.5t84 -58l-16 -40q-52 16 -96 50t-77 87t-51 124.5t-18 158.5t18 158.5t51 124.5t77 87t96 50z" />
<glyph unicode=")" horiz-adv-x="329" d="M223 276q0 76 -11.5 135.5t-34.5 106t-58 80.5t-84 58l16 40q52 -16 96 -50t77 -87t51 -124.5t18 -158.5t-18 -158.5t-51 -124.5t-77 -87t-96 -50l-16 40q49 24 84 58t58 80.5t34.5 106t11.5 135.5v0z" />
<glyph unicode="*" horiz-adv-x="460" d="M230 506l-91 -129l-54 34l99 125l-145 42l15 56l146 -50l-5 154h70l-6 -153l146 49l16 -56l-146 -42l101 -125l-55 -35z" />
<glyph unicode="+" horiz-adv-x="473" d="M206 496h61v-160h156v-52h-156v-160h-61v160h-156v52h156v160z" />
<glyph unicode="," horiz-adv-x="220" d="M63 -118q12 10 21.5 22.5t16 26t10 27.5t4.5 28q-12 -1 -22.5 2.5t-18.5 11t-12.5 17.5t-4.5 20q0 11 4 21t11.5 17t17 11t20.5 4q12 0 21.5 -4.5t17 -12.5t11.5 -19t4 -25q0 -28 -5.5 -53.5t-16 -48t-25.5 -40.5t-34 -29z" />
<glyph unicode="-" horiz-adv-x="373" d="M50 340h273v-55h-273v55z" />
<glyph unicode="." horiz-adv-x="219" d="M56 39q0 11 4 20.5t11.5 16.5t17 11t20.5 4t21 -4t17.5 -11t11.5 -16.5t4 -20.5t-4 -20.5t-11.5 -17t-17.5 -11.5t-21 -4t-20.5 4t-17 11.5t-11.5 17t-4 20.5v0z" />
<glyph unicode="/" horiz-adv-x="400" d="M431 760l-410 -928h-75l410 928h75z" />
<glyph unicode="0" horiz-adv-x="676" d="M57 337q0 83 20.5 149t58.5 112.5t89.5 70.5t113.5 24q61 0 113 -24t89.5 -70.5t58 -112.5t20.5 -149t-20.5 -149.5t-58.5 -113.5t-90 -71t-114 -24t-113.5 24t-89 70.5t-57.5 113.5t-20 150v0zM132 337q0 -72 15.5 -128t44 -93.5t65.5 -56.5t80 -19t80.5 19t65.5 56.5 t43.5 93.5t15.5 128t-15.5 128t-43.5 93t-65.5 55.5t-80.5 18.5t-80 -18.5t-65.5 -55.5t-44 -93t-15.5 -128v0z" />
<glyph unicode="1" horiz-adv-x="443" d="M53 40l129 12v531l-127 -87l-24 33l184 161l42 -10v-628l133 -12v-40h-337v40z" />
<glyph unicode="2" horiz-adv-x="594" d="M305 252q-45 -28 -76 -53.5t-50 -48.5t-29.5 -45.5t-16.5 -48.5h313l67 179l38 -9l-48 -226h-452v17q2 47 20 88.5t48 76t67 64t83 58.5q43 28 73 51t50 46t30 48.5t10 54.5t-9.5 53t-28.5 41.5t-47 27t-65 9.5q-42 0 -74.5 -14.5t-54 -41.5t-31 -62.5t-5.5 -76.5l-53 -6 q-10 51 0 98t39 83.5t75.5 57t108.5 20.5q54 0 96 -14t69.5 -39t41.5 -59.5t14 -76.5q0 -37 -12.5 -69.5t-37.5 -62t-62.5 -58.5t-90.5 -62v0z" />
<glyph unicode="3" horiz-adv-x="566" d="M287 -20q-42 0 -76.5 7.5t-61.5 21.5t-46.5 32.5t-33.5 40.5q-4 6 -7 12t-5 12.5t-3 12t-1 11.5q0 8 2 15t6.5 12.5t11 8.5t15.5 3q11 0 18 -4t11 -10t14 -35q7 -19 21.5 -34.5t34 -26.5t44 -16.5t51.5 -5.5q39 0 69.5 11t51.5 31t32 47.5t11 60.5q0 34 -12.5 60 t-36.5 44t-57.5 27.5t-75.5 10.5l-69 1v52l68 2q39 1 68.5 11.5t48.5 28t28.5 41t9.5 50.5q0 25 -9.5 46.5t-28 38t-46.5 26t-64 9.5q-29 0 -53.5 -7t-44.5 -21.5t-34.5 -37t-24.5 -52.5l-52 12q6 38 23.5 68.5t45 51.5t64.5 32.5t83 11.5q52 0 92.5 -14t68 -38t41 -55.5 t13.5 -66.5q0 -24 -6.5 -47t-20.5 -44t-35.5 -38.5t-49.5 -29.5q33 -8 59 -23.5t44 -38t27.5 -50.5t9.5 -61q0 -46 -16 -84t-46.5 -65.5t-73.5 -42.5t-97 -15v0z" />
<glyph unicode="4" horiz-adv-x="606" d="M267 40l109 12v142h-352v51l352 432h75v-429h114v-54h-114v-142l114 -12v-40h-298v40zM101 248h275v337z" />
<glyph unicode="5" horiz-adv-x="571" d="M288 -20q-41 0 -75.5 8t-62 22.5t-47.5 33t-34 41.5q-3 6 -6 11.5t-5 11.5t-3 11.5t-1 10.5q0 8 2.5 15t6.5 12.5t11 8.5t15 3q10 0 17 -3.5t11 -9.5t16 -36q8 -20 22.5 -36t34.5 -26.5t43.5 -16t49.5 -5.5q42 0 75.5 13t56.5 36.5t34.5 55t11.5 67.5t-10.5 66t-32.5 51 t-55 32.5t-76 11.5q-27 0 -51 -3.5t-43.5 -10.5t-35.5 -17t-28 -22l-55 6l45 351h376v-57h-322l-30 -234q15 10 33 18t38 13.5t41.5 8.5t43.5 3q54 0 98 -14.5t75 -42t47 -67t16 -89.5q0 -51 -17 -93.5t-49 -73.5t-78 -48t-103 -17v0z" />
<glyph unicode="6" horiz-adv-x="616" d="M567 218q0 -49 -17 -92.5t-49 -76.5t-77.5 -51.5t-100.5 -18.5q-61 0 -110 23t-84.5 68t-54 110.5t-18.5 148.5t19 150t55 115t88.5 73.5t118.5 25.5q29 0 55 -4.5t48.5 -13.5t40.5 -21.5t31 -27.5q4 -5 8 -11t7 -12t4.5 -12.5t1.5 -12.5q0 -8 -2.5 -14.5t-7.5 -11.5 t-11.5 -7.5t-14.5 -2.5t-13.5 2.5t-10 7t-5.5 6.5t-13 21q-10 15 -22.5 26t-27.5 17.5t-31.5 9.5t-35.5 3q-49 0 -88 -21t-65.5 -60.5t-40 -97t-13.5 -129.5v-16q14 29 36 51.5t49.5 38.5t59 24t65.5 8q47 0 88 -14.5t72 -42t48.5 -68t17.5 -90.5v0zM328 376q-30 0 -60 -9.5 t-56 -28t-45.5 -45.5t-29.5 -62q8 -48 24.5 -84.5t40 -60.5t54 -36t66.5 -12q40 0 71.5 13.5t53.5 38t33.5 57t11.5 70.5q0 39 -13.5 69.5t-36.5 50.5t-52.5 29.5t-61.5 9.5v0z" />
<glyph unicode="7" horiz-adv-x="569" d="M183 0q5 78 26 160.5t55 163.5t79.5 155.5t98.5 137.5h-292l-57 -164l-40 10l42 210h425v-49q-62 -71 -109 -148.5t-79 -157.5t-50.5 -159.5t-23.5 -158.5h-75z" />
<glyph unicode="8" horiz-adv-x="599" d="M300 -21q-53 0 -98 14.5t-78.5 41.5t-51.5 65t-18 84q0 32 10 61t28 52.5t43.5 40t56.5 25.5q-26 11 -45.5 27t-32 36t-19 42t-6.5 45q0 36 13 68.5t39.5 57.5t66.5 39.5t92 14.5t92 -14.5t66 -39.5t39 -57.5t13 -68.5q0 -23 -6.5 -45t-19 -42t-32 -36t-45.5 -27 q31 -9 56.5 -25.5t44 -40t28.5 -52.5t10 -61q0 -46 -18.5 -84t-51.5 -65t-78 -41.5t-98 -14.5v0zM300 389q38 0 65.5 11t43.5 29.5t23.5 39.5t7.5 41q0 26 -8.5 48.5t-26 39.5t-44 27t-61.5 10t-62 -10t-44.5 -27t-26.5 -39.5t-9 -48.5q0 -20 7.5 -41t24 -39.5t44 -29.5 t66.5 -11v0zM128 182q0 -33 12.5 -60t36 -46t55 -29t68.5 -10q36 0 67 10t54 29t36 46t13 60t-11.5 60t-33.5 46t-53.5 29.5t-71.5 10.5t-72 -10.5t-54.5 -29.5t-34 -46t-11.5 -60v0z" />
<glyph unicode="9" horiz-adv-x="608" d="M283 296q30 0 60 9t55.5 27.5t45 45.5t29.5 61q-8 49 -24 86t-39.5 61t-54 36t-66.5 12q-39 0 -70.5 -13.5t-53 -38t-33 -57t-11.5 -70.5q0 -39 13.5 -69.5t36 -50.5t51.5 -29.5t61 -9.5v0zM274 37q49 0 87.5 21t65 61t40 97t13.5 130v6v2t-0.5 2.5t-0.5 3v2.5 q-14 -30 -35.5 -53t-49 -38.5t-59 -23.5t-65.5 -8q-46 0 -86.5 14.5t-71 42.5t-47.5 68.5t-17 90.5q0 49 16.5 92.5t48 76t76 51t99.5 18.5q61 0 110 -23t84.5 -68t54 -110t18.5 -148t-19 -150.5t-55 -115.5t-88.5 -73.5t-118.5 -25.5q-29 0 -55.5 5t-49 14t-40.5 21.5 t-31 28.5q-5 6 -8.5 11.5t-6 11.5t-4 11.5t-1.5 11.5q0 8 2.5 14.5t7.5 11.5t12 7.5t15 2.5q7 0 12.5 -2.5t10 -7t7 -8.5t12.5 -18q10 -16 23 -27t28 -17.5t31.5 -9.5t34.5 -3v0z" />
<glyph unicode=":" horiz-adv-x="219" d="M56 449q0 11 4 20.5t11.5 16.5t17 11t20.5 4t21 -4t17.5 -11t11.5 -16.5t4 -20.5t-4 -20.5t-11.5 -17t-17.5 -11.5t-21 -4t-20.5 4t-17 11.5t-11.5 17t-4 20.5v0zM56 39q0 11 4 20.5t11.5 16.5t17 11t20.5 4t21 -4t17.5 -11t11.5 -16.5t4 -20.5t-4 -20.5t-11.5 -17 t-17.5 -11.5t-21 -4t-20.5 4t-17 11.5t-11.5 17t-4 20.5v0z" />
<glyph unicode=";" horiz-adv-x="219" d="M56 449q0 11 4 20.5t11.5 16.5t17 11t20.5 4t21 -4t17.5 -11t11.5 -16.5t4 -20.5t-4 -20.5t-11.5 -17t-17.5 -11.5t-21 -4t-20.5 4t-17 11.5t-11.5 17t-4 20.5v0zM62 -118q12 10 21.5 22.5t16 26t10 27.5t4.5 28q-12 -1 -22.5 2.5t-18.5 11t-12.5 17.5t-4.5 20q0 11 4 21 t11.5 17t17 11t20.5 4q12 0 21.5 -4.5t17 -12.5t11.5 -19t4 -25q0 -28 -5.5 -53.5t-16 -48t-25.5 -40.5t-34 -29z" />
<glyph unicode="&#x3c;" horiz-adv-x="473" d="M376 481l-206 -173l207 -174l-35 -39l-246 207v7l246 209z" />
<glyph unicode="=" horiz-adv-x="473" d="M50 338v52h372v-52h-372zM50 226v52h372v-52h-372z" />
<glyph unicode="&#x3e;" horiz-adv-x="473" d="M131 95l-34 37l204 173l-205 173l35 40l246 -207v-8z" />
<glyph unicode="?" horiz-adv-x="477" d="M256 268q0 -8 2.5 -14.5t7.5 -11t11.5 -7t13.5 -2.5h3h2.5t3 0.5t2.5 0.5l-11 -39q-3 -1 -6.5 -2t-6.5 -1.5t-6 -0.5h-6q-15 0 -28.5 5.5t-23.5 15.5t-16 24t-6 30q0 40 25 64t80.5 60t84 70.5t28.5 88.5q0 29 -11 54.5t-32.5 44.5t-51.5 29.5t-67 10.5q-38 0 -66.5 -9 t-47 -24.5t-28 -34.5t-11.5 -40q-1 -11 0 -19.5t4 -23t3.5 -16t0.5 -6.5t-2 -11t-6 -11t-11.5 -8.5t-17.5 -3.5q-11 0 -20 6t-15 16t-9.5 23t-3.5 28q0 44 17.5 79.5t49.5 60.5t75 38t94 13q55 0 98 -14t72.5 -40.5t44.5 -61.5t15 -77q0 -62 -31 -104.5t-110 -95.5t-83 -56 t-4 -28v0zM198 39q0 11 4 20.5t11.5 16.5t17 11t20.5 4t21 -4t17.5 -11t11.5 -16.5t4 -20.5t-4 -20.5t-11.5 -17t-17.5 -11.5t-21 -4t-20.5 4t-17 11.5t-11.5 17t-4 20.5v0z" />
<glyph unicode="@" horiz-adv-x="812" d="M609 83q-17 0 -32 3.5t-27 10t-21 16t-15 22.5q-9 -17 -22.5 -30.5t-30 -23t-35.5 -14t-39 -4.5q-34 0 -63 12.5t-50.5 36t-33 55.5t-11.5 70q0 40 12 73t34 57t52 37t64 13q17 0 33 -3.5t30.5 -10t26.5 -16t22 -22.5l14 47h43v-213q0 -19 4.5 -32.5t13 -23t21 -14 t27.5 -4.5q17 0 33 8t29 25.5t20.5 46t7.5 68.5q0 68 -21.5 123.5t-61.5 95.5t-96 61t-124 21q-66 0 -123.5 -21.5t-101 -64t-68 -104t-24.5 -139.5q0 -79 25.5 -141.5t70.5 -105t105 -64t128 -21.5q29 0 58 4.5t56 12.5t51 20.5t44 28.5l18 -25q-20 -19 -45 -33t-54.5 -24 t-61.5 -15t-65 -5q-77 0 -145 24t-119.5 71.5t-80 116.5t-28.5 156q0 86 27.5 154.5t77 116t114.5 72t140 24.5q77 0 141 -24t110 -69t70.5 -107.5t24.5 -137.5q0 -50 -12.5 -87t-33.5 -60t-47.5 -33.5t-55.5 -10.5v0zM403 112q15 0 29.5 3.5t27 10.5t22 17.5t16.5 24.5v151 q-7 12 -17 21t-22.5 15.5t-26.5 10t-29 3.5q-25 0 -45.5 -9t-36 -26t-23.5 -41t-8 -53q0 -30 8.5 -54t24 -40.5t36 -25t44.5 -8.5v0z" />
<glyph unicode="A" d="M383 597l-110 -316h222l-110 316h-2zM329 42v-42h-309v42l102 12l208 582l-135 12v42h383v-42l-137 -12l209 -582l101 -12v-42h-308v42l131 12l-61 174h-259l-60 -174z" />
<glyph unicode="B" horiz-adv-x="748" d="M671 517q0 -28 -7.5 -53t-22 -46t-35 -36.5t-46.5 -26.5q32 -8 56.5 -23.5t41.5 -36.5t26 -47t9 -56q0 -41 -14 -76.5t-40 -61.5t-63.5 -40t-83.5 -14h-449v42l138 12v581l-138 13v42h431q46 0 83 -12.5t62.5 -35.5t38.5 -55t13 -70v0zM449 636h-188v-255h187 q33 0 60.5 9.5t47 26.5t29.5 41.5t10 54.5q0 28 -10 51t-29 39t-46 24.5t-61 8.5v0zM458 325h-197v-271h202q35 0 63 10t47.5 28t30 44t10.5 57t-10.5 55.5t-31 41.5t-49.5 26t-65 9v0z" />
<glyph unicode="C" horiz-adv-x="699" d="M364 -21q-65 0 -122 24.5t-100 71.5t-67 116t-23 154q0 84 24 152t66.5 115.5t98 72t117.5 24.5q30 0 58 -6t52.5 -18t45.5 -28.5t37 -37.5l6 89h39l48 -274l-39 -9l-24 56q-17 40 -37.5 70.5t-46.5 51.5t-58 32.5t-70 11.5q-51 0 -94 -20t-75.5 -58.5t-50.5 -95.5 t-18 -129q0 -74 19 -131.5t52.5 -96t78 -57.5t96.5 -19q46 0 81 12.5t60.5 35t44 53t33.5 70.5l43 -16q-14 -48 -37 -87.5t-57 -68.5t-79 -44.5t-102 -15.5v0z" />
<glyph unicode="D" horiz-adv-x="768" d="M411 690q72 0 130 -24t99.5 -68.5t63.5 -107t22 -137.5q0 -77 -23 -142t-65.5 -112.5t-101 -73t-128.5 -25.5h-365v42l138 12v581l-138 13v42h368zM397 636h-136v-582h139q55 0 101 21.5t78.5 61t50 94.5t17.5 120q0 64 -16.5 116.5t-49 90.5t-79 58t-105.5 20v0z" />
<glyph unicode="E" horiz-adv-x="740" d="M43 0v42l138 12v581l-138 13v42h577l69 -217l-39 -11l-91 174h-298v-253h186l18 120h41v-290h-41l-19 116h-185v-275h327l79 220l38 -8l-55 -266h-607z" />
<glyph unicode="F" horiz-adv-x="704" d="M412 42v-42h-369v42l138 12v581l-138 13v42h586l56 -234l-39 -11l-79 191h-306v-257h187l18 121h41v-290h-41l-18 115h-187v-271z" />
<glyph unicode="G" horiz-adv-x="762" d="M753 287l-99 -9v-283h-41l-23 114q-15 -30 -37 -54t-51 -41t-63 -26t-72 -9q-63 0 -120 24t-100.5 71t-68.5 115t-25 153t24.5 153.5t68 116.5t100.5 72.5t120 24.5q33 0 62 -7t54 -19.5t46 -30.5t39 -40l6 96h39l48 -274l-40 -9l-23 56q-16 39 -37.5 69.5t-49.5 52 t-61 33t-71 11.5q-51 0 -96 -19.5t-78.5 -58t-52.5 -95.5t-19 -130q0 -72 18.5 -129t52 -96t78 -59t95.5 -20q38 0 74 13t65.5 39.5t47 67t17.5 92.5v24l-138 11v43h311v-43z" />
<glyph unicode="H" horiz-adv-x="885" d="M485 42l139 12v275h-363v-275l139 -12v-42h-357v42l138 12v581l-138 13v42h357v-42l-139 -12v-251h363v251l-139 12v42h357v-42l-139 -13v-581l139 -12v-42h-357v42z" />
<glyph unicode="I" horiz-adv-x="444" d="M401 0h-358v42l139 12v581l-139 13v42h358v-42l-139 -13v-581l139 -12v-42z" />
<glyph unicode="J" horiz-adv-x="577" d="M215 39q31 0 56 10.5t42.5 31.5t27 51.5t9.5 69.5v433l-142 13v42h349v-42l-129 -12v-440q0 -50 -15 -90.5t-43 -69t-67.5 -43t-87.5 -14.5q-31 0 -58.5 7t-50.5 19.5t-41.5 30t-31.5 39.5q-3 6 -6 11.5t-5 11t-3 10.5t-1 10q0 9 2.5 16.5t8 13t13 8.5t16.5 3 q10 0 16.5 -3.5t10.5 -9.5t14 -35q6 -15 16 -28t24.5 -23t33.5 -15.5t42 -5.5v0z" />
<glyph unicode="K" horiz-adv-x="792" d="M368 0h-325v42l138 13v580l-138 13v42h329v-42l-111 -12v-339l317 339l-120 12v42h303v-42l-100 -12l-227 -239l229 -343l98 -12v-42h-306v42l123 11l-195 291l-122 -129v-162l107 -11v-42z" />
<glyph unicode="L" horiz-adv-x="723" d="M43 690h362v-42l-143 -13v-581h318l82 220l39 -8l-58 -266h-600v42l139 12v581l-139 13v42z" />
<glyph unicode="M" horiz-adv-x="1113" d="M698 690h372v-42l-134 -12v-582l134 -12v-42h-321v42l114 12v538l-279 -595h-55l-281 598l1 -541l115 -12v-42h-321v42l134 12v582l-134 12v42h373v-42l-116 -11l258 -554l257 553l-117 12v42z" />
<glyph unicode="N" horiz-adv-x="885" d="M489 690h353v-42l-138 -13v-638h-58l-395 586l2 -529l146 -12v-42h-356v42l137 12v581l-137 13v42h361v-42l-114 -10l344 -512l-1 509l-144 13v42z" />
<glyph unicode="O" d="M719 344q0 -84 -25.5 -152t-71 -115.5t-107 -72.5t-131.5 -25q-69 0 -129.5 25t-106 72.5t-71 115.5t-25.5 152t25.5 152t71.5 115.5t107 72.5t131 25q69 0 129.5 -25t106 -72.5t71 -115.5t25.5 -152v0zM131 344q0 -72 19.5 -129t54.5 -96t81 -59t99 -20t99 20t81 59 t54.5 96t19.5 129t-19.5 129t-54.5 95.5t-81 58.5t-99 20t-99 -20t-81 -58.5t-54.5 -95.5t-19.5 -129v0z" />
<glyph unicode="P" horiz-adv-x="722" d="M408 42v-42h-365v42l138 12v581l-138 13v42h439q46 0 83.5 -14.5t63.5 -41.5t40 -64.5t14 -81.5q0 -46 -14.5 -84.5t-41.5 -66.5t-64.5 -43t-83.5 -15h-219v-225zM457 635h-197v-301h203q33 0 59.5 11.5t44.5 32t27 49t9 62.5t-10 61t-29 46t-46 29t-61 10v0z" />
<glyph unicode="Q" horiz-adv-x="770" d="M752 -29l23 -24q-8 -17 -19 -30t-25.5 -22t-32.5 -13.5t-38 -4.5q-23 0 -43.5 5.5t-40.5 18.5t-40.5 36.5t-41.5 59.5q-13 -4 -26 -7.5t-27 -6t-28 -3.5t-28 -1q-69 0 -129.5 25t-106 72.5t-71 115.5t-25.5 151q0 84 25.5 152.5t71 116t106.5 72.5t130 25q70 0 130.5 -25 t106 -72.5t71 -115.5t25.5 -151q0 -56 -11.5 -105.5t-33.5 -90t-52 -72t-67 -53.5q15 -26 29 -44t28 -29t29 -16.5t33 -5.5q12 0 23 3t21 8.5t19 13t15 17.5v0zM131 344q0 -38 5.5 -72t16 -63t25 -53.5t33.5 -43.5q4 27 16.5 48.5t31.5 36t41.5 22t46.5 7.5t46 -7.5t43 -24 t42.5 -44.5t44.5 -69q27 18 48.5 44t36.5 59t23.5 73.5t8.5 86.5q0 72 -19.5 129t-54.5 95.5t-81.5 58.5t-99.5 20t-99 -20t-81 -58.5t-54.5 -95.5t-19.5 -129v0zM385 39q11 0 21 1t20 2.5t20 3.5t19 5q-18 34 -34.5 56t-31.5 35.5t-30.5 19t-33.5 5.5q-15 0 -29.5 -4.5 t-27.5 -14.5t-22 -26t-12 -39q15 -11 32 -19t34.5 -13.5t36.5 -8.5t38 -3v0z" />
<glyph unicode="R" horiz-adv-x="803" d="M469 635h-208v-283h210q36 0 64 10t46.5 29.5t28 46t9.5 59.5q0 32 -10.5 57.5t-30 43.5t-47.5 27.5t-62 9.5v0zM407 42v-42h-364v42l138 12v581l-138 13v42h457q45 0 81.5 -14t62.5 -40t40 -61.5t14 -78.5q0 -41 -12.5 -75.5t-36 -61t-56 -42.5t-71.5 -20l118 -238 l143 -17v-42h-193l-145 296h-184v-241z" />
<glyph unicode="S" horiz-adv-x="633" d="M525 438l-33 71q-18 38 -40.5 65t-49.5 43.5t-56.5 24.5t-61.5 8q-31 0 -57 -7.5t-45 -22t-29.5 -36.5t-10.5 -50q0 -35 15.5 -60t42 -41.5t56.5 -27t75 -23.5q62 -18 101 -32t73 -37t54 -57.5t20 -84.5q0 -43 -15 -78.5t-44 -61t-70.5 -39t-92.5 -13.5q-40 0 -75 9 t-64 25t-52 39t-41 52l-2 -112h-41l-41 267l37 10l34 -65q23 -43 48 -74.5t53 -52t61 -30.5t72 -10q37 0 66.5 9t50 26.5t31 42t10.5 54.5q0 34 -13.5 57t-38 39t-56.5 27t-87 26q-49 13 -87.5 27.5t-74 38t-57.5 60t-22 86.5q0 42 16 75.5t45 56.5t66.5 35t80.5 12 q35 0 66 -8t57 -22t46 -33.5t35 -42.5l3 106h40l42 -262z" />
<glyph unicode="T" horiz-adv-x="707" d="M56 445l-38 10l54 235h563l54 -238l-38 -10l-78 194h-179v-582l139 -12v-42h-357v42l139 12v582h-180z" />
<glyph unicode="U" horiz-adv-x="814" d="M451 690h343v-42l-128 -13v-419q0 -55 -18.5 -99t-52.5 -75t-81.5 -47t-105.5 -16q-60 0 -108 15.5t-82 46.5t-52 75t-18 100v419l-128 13v42h344v-42l-138 -13v-416q0 -41 12 -74t35 -56.5t57.5 -36t79.5 -12.5q44 0 78.5 12.5t58 36t35.5 56.5t12 74v416l-143 13v42z " />
<glyph unicode="V" d="M443 648v42h308v-42l-101 -12l-226 -638h-78l-225 638l-100 12v42h308v-42l-131 -12l189 -551l190 550z" />
<glyph unicode="W" horiz-adv-x="1099" d="M325 -2l-211 638l-94 12v42h285v-42l-115 -12l172 -541h1l150 540l-119 13v42h317v-42l-119 -12l153 -544l170 544l-115 12v42h279v-42l-94 -12l-209 -638h-69l-158 557l-154 -557h-70z" />
<glyph unicode="X" horiz-adv-x="742" d="M23 648v42h300v-42l-117 -11l167 -236l164 236l-117 11v42h298v-42l-102 -13l-202 -280l222 -302l85 -11v-42h-304v42l136 11l-185 257l-183 -256l135 -12v-42h-300v42l84 11l222 304l-201 278z" />
<glyph unicode="Y" horiz-adv-x="727" d="M541 0h-356v42l139 12v206l-199 375l-105 13v42h289v-42l-106 -11l162 -316l162 315l-108 12v42h287v-42l-105 -13l-198 -377v-204l138 -12v-42z" />
<glyph unicode="Z" horiz-adv-x="636" d="M552 0h-512v37l438 599h-319l-80 -185l-39 11l59 228h475v-40l-437 -596h352l85 209l38 -8z" />
<glyph unicode="[" horiz-adv-x="356" d="M74 690h232v-40l-161 -14v-712l161 -14v-40h-232v820z" />
<glyph unicode="\" horiz-adv-x="400" d="M365 -168l-410 928h77l409 -928h-76z" />
<glyph unicode="]" horiz-adv-x="356" d="M50 690h232v-820h-232v40l161 14v712l-161 14v40z" />
<glyph unicode="^" horiz-adv-x="600" d="M273 665h53l172 -290v-3h-66l-133 225l-132 -225h-66v3z" />
<glyph unicode="_" horiz-adv-x="452" d="M-4 -76h461v-55h-461v55z" />
<glyph unicode="`" horiz-adv-x="600" d="M329 576l-139 128v3h83l112 -128v-3h-56z" />
<glyph unicode="a" horiz-adv-x="578" d="M214 36q24 0 47.5 6t44 16.5t38 23.5t29.5 27v127q-71 -1 -121.5 -11.5t-79.5 -28.5t-42 -39.5t-13 -45.5q0 -18 7.5 -32t20.5 -23.5t30.5 -14.5t38.5 -5v0zM260 512q49 0 85 -12.5t58.5 -36t33 -56.5t10.5 -75v-211q0 -22 3 -36.5t8.5 -23t14 -12.5t20.5 -4q7 0 13.5 2 t11.5 5.5t8.5 9t6.5 11.5l23 -11q-5 -17 -12.5 -29.5t-19 -21.5t-26 -13.5t-32.5 -4.5q-17 0 -31.5 4.5t-26 12.5t-19.5 20.5t-12 28.5q-14 -17 -32.5 -31.5t-41 -25.5t-49.5 -17t-56 -6q-33 0 -61 9t-48.5 26t-32 41t-11.5 54q0 44 23 77.5t66 56t103.5 34t135.5 11.5v48 q0 30 -8 53t-23 38t-36.5 22.5t-49.5 7.5q-21 0 -37 -3t-28 -10t-21.5 -17t-17.5 -24q-1 -3 -7 -15t-10.5 -18.5t-11.5 -10.5t-17 -4q-8 0 -15.5 3t-12.5 8t-8 12t-3 15q0 5 1.5 12.5t6 17t13 20.5t21.5 22q14 12 30.5 20.5t35 14.5t40 9t45.5 3v0z" />
<glyph unicode="b" horiz-adv-x="599" d="M550 249q0 -59 -17.5 -109t-49.5 -86t-75.5 -55.5t-95.5 -19.5q-28 0 -52 5.5t-44.5 16.5t-37 25.5t-29.5 33.5l-25 -60h-34v662q-15 -6 -31.5 -9t-33.5 -3.5t-33.5 1.5t-32.5 6v32q25 -1 48 2.5t44.5 12t40 21t35.5 29.5l38 -8v-323q13 21 30 37.5t38.5 28t46 17.5 t52.5 6q50 0 90 -19t69 -54t44 -83.5t15 -106.5v0zM312 453q-26 0 -48.5 -6.5t-41.5 -18.5t-33.5 -30t-23.5 -41v-250q10 -17 24.5 -30.5t32.5 -23t38 -14.5t42 -5q39 0 71 15t55 43.5t35.5 68t12.5 86.5t-11 85.5t-32.5 65.5t-52 41t-68.5 14v0z" />
<glyph unicode="c" horiz-adv-x="543" d="M295 -21q-55 0 -101 19t-78.5 54.5t-50 84.5t-17.5 107q0 60 17.5 109.5t50 85t77.5 54.5t100 19q38 0 68.5 -8t54 -22.5t40 -33t28.5 -39.5q3 -6 5.5 -12t4.5 -12t3 -11t1 -10q0 -8 -3 -15.5t-7.5 -13t-11.5 -8.5t-14 -3q-11 0 -18 3.5t-11.5 10t-14.5 35.5 q-7 20 -19 35t-28 25.5t-35 15.5t-40 5q-40 0 -72.5 -14.5t-56 -42.5t-35.5 -66.5t-12 -86.5q0 -47 12.5 -86t36 -66.5t58 -42.5t77.5 -15q29 0 53.5 7t44.5 21t35 34t26 46l42 -16q-11 -35 -30 -62t-45 -46t-60 -29t-75 -10v0z" />
<glyph unicode="d" horiz-adv-x="622" d="M288 36q24 0 46.5 6.5t41 18.5t33.5 29.5t24 40.5v251q-10 17 -24.5 31t-32.5 23.5t-38 14.5t-42 5q-39 0 -71.5 -15t-55.5 -43.5t-35.5 -67.5t-12.5 -86q0 -49 11.5 -87.5t33.5 -65.5t53 -41t69 -14v0zM507 746v-705h104v-39l-169 -13l-4 2l-2 83q-13 -23 -31.5 -40.5 t-40 -30t-46.5 -18.5t-52 -6q-50 0 -90.5 19t-69 54t-43.5 83.5t-15 105.5q0 60 17 110t48.5 86t74.5 55.5t95 19.5q22 0 43.5 -4.5t40.5 -13.5t36 -22t30 -29v220q-15 -6 -32 -9.5t-34.5 -4t-34.5 1.5t-33 6v32q25 -1 48.5 2.5t45 12t40.5 21t35 29.5z" />
<glyph unicode="e" horiz-adv-x="558" d="M305 35q28 0 51.5 6t42 17.5t33 28.5t24.5 39l42 -16q-10 -30 -27 -54t-42 -41t-58.5 -26.5t-74.5 -9.5q-55 0 -101 19t-79 55t-50.5 85t-17.5 107t17 107.5t49 85t76 55t97 19.5q52 0 93.5 -19t69.5 -51.5t42 -74t14 -85.5v-9v-9t-0.5 -10t-0.5 -10h-385v-5 q0 -47 12.5 -84.5t36 -64.5t58 -41t78.5 -14v0zM287 456q-33 0 -60.5 -11t-48.5 -32t-34.5 -50.5t-19.5 -65.5h313q-1 40 -14 70t-34 50t-47.5 29.5t-54.5 9.5v0z" />
<glyph unicode="f" horiz-adv-x="390" d="M43 474l101 13v81q0 45 10.5 79t30 55.5t46.5 32t61 10.5q17 0 32 -3t28 -8t23.5 -12t19.5 -15q6 -5 10.5 -11t7.5 -12t4.5 -12t1.5 -12q0 -9 -3 -16t-8 -12.5t-12 -8t-15 -2.5q-6 0 -11.5 2.5t-10.5 6t-8.5 8.5t-6.5 10q-5 9 -11 16.5t-13.5 12t-15.5 7t-17 2.5 q-17 0 -30 -6t-22 -17.5t-14 -30t-5 -42.5q0 -8 0.5 -17.5t1 -24t0.5 -22.5v-14v-22h143v-55h-143v-383l137 -12v-40h-312v40l101 12v383h-101v39z" />
<glyph unicode="g" horiz-adv-x="528" d="M268 138h-41q-27 0 -45 -2.5t-28.5 -7t-14.5 -10.5t-4 -13q0 -14 12 -22t32 -11.5t61.5 -7.5t45.5 -4q41 -4 76 -12.5t65 -25t48.5 -44t18.5 -66.5q0 -33 -14 -61t-43 -48.5t-73.5 -32t-103.5 -11.5q-58 0 -102.5 11t-73.5 30.5t-43.5 45t-14.5 55.5q0 21 7 40t20 35 t31 28t40 19q-13 6 -23 14t-16.5 17t-9.5 19t-3 20q0 13 5 25.5t14.5 23t23 17.5t31.5 10q-19 11 -34 27t-26.5 36t-17.5 43.5t-6 49.5q0 39 14.5 73t41 59.5t64 40t81.5 14.5q17 0 33 -2t31 -6.5t28.5 -10.5t25.5 -14q1 19 8 38t19 34t28 24t33 9q9 0 16.5 -1.5t14 -5.5 t10 -12t3.5 -19q0 -19 -9.5 -25t-32.5 -13t-34.5 -19.5t-11.5 -42.5v-8q9 -12 16 -25t11.5 -27.5t7 -30t2.5 -31.5q0 -39 -14 -73.5t-39.5 -59.5t-61.5 -39t-79 -14v0zM264 459q-29 0 -54.5 -10.5t-43.5 -29t-28 -43t-10 -52.5t10.5 -53t29 -43t44 -28t54.5 -10 q30 0 54.5 10.5t41 28.5t25.5 42.5t9 51.5q0 28 -9.5 53t-27 43.5t-42 29t-53.5 10.5v0zM287 -3l-108 9q-21 -7 -37 -17t-26.5 -23t-16 -27t-5.5 -29q0 -21 10.5 -39t32 -31t54 -20.5t74.5 -7.5q40 0 70 7t49 19.5t28.5 29t9.5 36.5t-9.5 36t-27 28t-42.5 19t-56 10v0z" />
<glyph unicode="h" horiz-adv-x="724" d="M407 38l105 13v273q0 30 -7.5 53t-22 39.5t-35.5 25t-48 8.5q-26 0 -51 -8t-47 -22.5t-41 -34t-33 -43.5v-291l103 -13v-38h-287v40l109 12v611q-15 -6 -31.5 -9.5t-34 -4t-34.5 1.5t-34 6v32q25 -1 49 2.5t45.5 12t40.5 21t35 29.5l39 -8v-343q17 25 38 45t46.5 34 t53.5 22t58 8q42 0 73 -13.5t51.5 -37.5t30 -56t9.5 -69v-284l101 -12v-40h-281v38z" />
<glyph unicode="i" horiz-adv-x="375" d="M139 654q0 11 4 21t11.5 17.5t17.5 11.5t21 4t21 -4t17.5 -11.5t12 -17.5t4.5 -21t-4.5 -21t-12 -17.5t-17.5 -11.5t-21 -4t-21 4t-17.5 11.5t-11.5 17.5t-4 21v0zM43 40l113 12v369q-15 -6 -32 -9.5t-34.5 -3.5t-34.5 2t-33 6v31q24 -1 47 2.5t44.5 11.5t41 21t35.5 30 l41 -9v-451l109 -12v-40h-297v40z" />
<glyph unicode="j" horiz-adv-x="305" d="M129 654q0 11 4 21t11.5 17.5t17.5 11.5t21 4t21 -4t17.5 -11.5t12 -17.5t4.5 -21t-4.5 -21t-12 -17.5t-17.5 -11.5t-21 -4t-21 4t-17.5 11.5t-11.5 17.5t-4 21v0zM76 -233q-28 0 -51 7t-39.5 19t-25.5 26.5t-9 28.5q0 8 3 15t8 12t11.5 7.5t14.5 2.5q13 0 19.5 -6.5 t16.5 -21.5t21.5 -23t31.5 -8q17 0 30 6t22.5 17.5t14 30t4.5 42.5v10.5t-0.5 16t-0.5 18v14.5v440q-15 -6 -32 -9.5t-34.5 -3.5t-35 2t-33.5 6v31q24 -1 47.5 2.5t45 11.5t41 21t36.5 30l39 -9v-559q0 -45 -10 -79t-28.5 -55.5t-45.5 -32t-61 -10.5v0z" />
<glyph unicode="k" horiz-adv-x="657" d="M389 38l76 10l-135 202l-102 -99v-101l82 -12v-38h-267v40l110 12v611q-15 -6 -32 -9.5t-34.5 -4t-34.5 1.5t-33 6v32q25 -1 48.5 2.5t45 12t41 21t35.5 29.5l39 -8v-523l215 218l-99 11v38h270v-40l-89 -10l-148 -144l168 -246l86 -10v-40h-242v38z" />
<glyph unicode="l" horiz-adv-x="369" d="M43 40l110 12v611q-15 -6 -32 -9t-34.5 -3.5t-34.5 1t-33 5.5v32q25 -1 48.5 2.5t45 12t40.5 21t35 29.5l40 -8v-695l106 -11v-40h-291v40z" />
<glyph unicode="m" horiz-adv-x="1017" d="M392 38l89 12v270q0 31 -5.5 55t-17 40.5t-30 25.5t-45.5 9q-23 0 -45 -7.5t-41.5 -21.5t-36 -33t-29.5 -41v-297l82 -12v-38h-270v40l113 12v369q-15 -6 -32 -9.5t-34.5 -3.5t-34.5 2t-33 6v31q24 -1 47 2.5t44 12t40 21t35 29.5l39 -8v-105q16 25 36 46t43 36t49 23 t53 8q29 0 51.5 -8t39.5 -22.5t28.5 -34.5t18.5 -44q16 25 36 45t43 34.5t50 22t56 7.5q39 0 67.5 -13t46.5 -36.5t26.5 -54.5t8.5 -68v-289l102 -13v-38h-260v38l83 12v272q0 30 -5.5 53.5t-17 40.5t-30.5 25.5t-46 8.5q-23 0 -44 -6t-40 -18t-36 -30t-32 -42q0 -2 0.5 -5 t0.5 -5.5v-4.5v-6v-282l90 -13v-38h-253v38z" />
<glyph unicode="n" horiz-adv-x="728" d="M411 38l105 13v273q0 30 -7.5 53t-22 39.5t-35.5 25t-48 8.5q-26 0 -51 -8t-47 -22.5t-41 -34.5t-33 -44v-290l103 -13v-38h-291v40l113 12v369q-15 -6 -32 -9.5t-34.5 -3.5t-34.5 2t-33 6v31q25 -1 48 2.5t44 12t39.5 21t34.5 29.5l39 -8v-107q17 26 38.5 47t47 36 t54.5 23.5t60 8.5q42 0 73 -13.5t51.5 -37.5t30 -56t9.5 -69v-284l102 -12v-40h-282v38z" />
<glyph unicode="o" horiz-adv-x="595" d="M48 246q0 58 17.5 107t51 85t79.5 55t102 19q55 0 101 -19t79 -55t50.5 -85t17.5 -107t-17.5 -107.5t-51 -85t-79.5 -55t-102 -19.5q-55 0 -101 19.5t-79 55t-50.5 85t-17.5 107.5v0zM122 245q0 -47 12 -86t35 -66.5t55.5 -42.5t72.5 -15t72.5 14.5t56 42.5t35.5 66.5 t12 86.5t-12 87t-35.5 66.5t-56 42.5t-72.5 15t-72.5 -14.5t-55.5 -42.5t-35 -67t-12 -87v0z" />
<glyph unicode="p" horiz-adv-x="639" d="M344 35q39 0 71 15t55 43t35.5 67.5t12.5 86.5t-11 85.5t-32 65.5t-51.5 41.5t-68.5 14.5q-26 0 -49 -7t-42 -20.5t-34 -32t-24 -41.5v-242q10 -18 24.5 -32t32 -24t38.5 -15t43 -5v0zM26 -178l105 12v587q-15 -6 -32 -9.5t-34.5 -3.5t-34.5 2t-33 6v31q25 -1 48 2.5 t44 12t40 21t35 29.5l38 -8v-91q13 23 30.5 41.5t39 31.5t47 19.5t54.5 6.5q49 0 89.5 -19t69 -54t43.5 -83.5t15 -105.5q0 -59 -17 -109t-49 -86.5t-75 -56t-93 -19.5q-23 0 -44.5 4t-40.5 12t-35.5 20t-29.5 28v-209l112 -12v-40h-292v40z" />
<glyph unicode="q" horiz-adv-x="600" d="M508 501v-667l108 -12l-1 -40h-299v39l117 13v233q-13 -21 -30.5 -37.5t-38.5 -27.5t-45.5 -17t-51.5 -6q-50 0 -90.5 19t-69.5 54t-44 83t-15 105q0 60 17.5 110t49.5 86.5t75.5 56t95.5 19.5q26 0 49.5 -5.5t44 -16t37 -25.5t29.5 -34l29 70h33zM286 36q26 0 48.5 6.5 t41.5 18.5t33.5 29t23.5 39l1 244q-10 19 -25 34.5t-33 26.5t-39 16.5t-44 5.5q-39 0 -70.5 -15t-54.5 -43.5t-35 -67.5t-12 -86q0 -48 11.5 -87t33.5 -66t52.5 -41t67.5 -14v0z" />
<glyph unicode="r" horiz-adv-x="484" d="M346 438q-17 0 -33 -7.5t-31 -22.5t-28 -35.5t-23 -46.5v-275l116 -11v-40h-305v40l114 12v369q-15 -6 -32 -9.5t-34.5 -3.5t-34.5 2t-33 6v31q25 -1 48 2.5t44 12t39.5 21t34.5 29.5l39 -8v-109q12 26 28 47t35.5 37t42 24.5t46.5 8.5q16 0 30.5 -4t25.5 -11.5t17 -18 t6 -22.5q0 -8 -3 -15.5t-9 -13.5t-13.5 -9t-15.5 -3t-14 2.5t-16 8.5t-19.5 9t-21.5 3v0z" />
<glyph unicode="s" horiz-adv-x="509" d="M446 323l-37 -7l-30 51q-14 24 -28.5 41t-31.5 28t-38 16.5t-46 5.5q-28 0 -49 -6.5t-34 -17.5t-19 -25.5t-6 -30.5q0 -22 12 -38.5t31.5 -27.5t41 -18t56.5 -16q47 -12 80 -24.5t58 -30.5t38.5 -43t13.5 -60q0 -28 -11 -53.5t-33 -45.5t-55 -31t-74 -11q-30 0 -55.5 6 t-47 17.5t-39.5 28.5t-33 39v-81h-40l-32 194l38 8l28 -47q18 -30 37 -51t40 -34.5t44 -20t49 -6.5t47.5 5.5t36 16.5t22.5 26.5t8 35.5q0 22 -10 38t-28.5 28t-44 21t-62.5 19q-36 9 -65 19.5t-57 28t-45.5 44.5t-17.5 64q0 28 11.5 52.5t33 43t51.5 28.5t66 10 q27 0 50 -5.5t42 -15t34 -23t27 -30.5l4 75h38z" />
<glyph unicode="t" horiz-adv-x="420" d="M360 121l39 -19q-6 -28 -19.5 -50.5t-33.5 -39t-46.5 -25t-58.5 -8.5t-59.5 10.5t-48 32t-32 55t-11.5 77.5v281h-95v39l95 13l36 174h39v-171h173v-55h-173v-293q0 -26 6.5 -46t18 -33t28 -19.5t36.5 -6.5q19 0 35.5 5.5t30 16.5t23.5 26.5t17 35.5v0z" />
<glyph unicode="u" horiz-adv-x="653" d="M272 -21q-43 0 -75 13.5t-51.5 37.5t-29 56t-9.5 69v262q-14 -5 -28.5 -7t-30 -2t-30 2t-28.5 6v31q23 -1 43.5 2.5t39.5 11.5t36.5 21t34.5 30l37 -8v-341q0 -28 7.5 -51t22 -39t36 -24.5t48.5 -8.5q26 0 50.5 7t46.5 20.5t40.5 31.5t33.5 40v281q-15 -6 -31.5 -8.5 t-33.5 -3t-33.5 1.5t-31.5 6v31q24 -1 46.5 2.5t44 11.5t40.5 21t36 30l38 -8v-463h101v-39l-168 -13l-3 2l-2 98q-16 -25 -37.5 -45t-47 -34.5t-54 -22.5t-58.5 -8v0z" />
<glyph unicode="v" horiz-adv-x="613" d="M598 451l-75 -10l-182 -444h-70l-180 444l-77 10v39h253v-38l-103 -11l143 -372l143 372l-105 11v38h253v-39z" />
<glyph unicode="w" horiz-adv-x="863" d="M315 490h235v-38l-79 -11l113 -358h4l117 357l-77 12v38h221v-39l-79 -11l-154 -441h-65l-120 378l-120 -378h-63l-156 442l-78 10v39h223v-38l-76 -11l117 -358h4l113 358l-80 11v38z" />
<glyph unicode="x" horiz-adv-x="626" d="M29 40l76 9l165 198l-163 194l-74 10v39h243v-38l-88 -10l127 -153l125 153l-86 10v38h239v-39l-74 -10l-164 -195l166 -197l76 -9v-40h-248v38l92 10l-131 157l-129 -157l90 -10v-38h-242v40z" />
<glyph unicode="y" horiz-adv-x="620" d="M260 -33l17 42l-188 432l-75 9v40h253v-39l-102 -10l149 -352h1l142 351l-112 11v39h260v-40l-77 -9l-192 -461q-25 -60 -50 -101t-51.5 -65t-56 -35t-64.5 -11q-26 0 -47.5 5t-37 14t-23.5 21t-8 25q0 9 3 16.5t8 12.5t12 7.5t14 2.5q12 0 19 -5t18.5 -16t22.5 -17 t28 -6t34 7t34 23t34.5 43t34.5 66v0z" />
<glyph unicode="z" horiz-adv-x="535" d="M454 0h-407v32l329 407h-229l-59 -116l-33 7l41 160h375v-34l-327 -405h258l58 140l33 -7z" />
<glyph unicode="{" horiz-adv-x="381" d="M146 166q0 18 -4.5 33t-14 26.5t-25.5 17.5t-39 6h-49v54h49q23 0 39 6t25.5 17.5t14 26.5t4.5 33t-4 36.5t-12 51t-12.5 56t-4.5 48.5q0 35 14 59.5t38.5 39t55.5 19.5t64 2v-46q-29 1 -49.5 -5t-33 -17t-18.5 -25.5t-6 -30.5q0 -18 4 -38t12.5 -53t12.5 -55.5t4 -43.5 q0 -19 -5 -36.5t-15 -31t-23.5 -24t-31.5 -16.5q18 -6 31.5 -16.5t23.5 -24.5t15 -31t5 -36q0 -21 -4 -43.5t-12.5 -55.5t-12.5 -53t-4 -38q0 -16 6 -30.5t18.5 -25.5t33 -17t49.5 -5v-46q-32 -3 -63 2t-55.5 20t-39 39.5t-14.5 58.5q0 25 4.5 48.5t12.5 56t12 51t4 36.5v0z " />
<glyph unicode="|" horiz-adv-x="234" d="M152 -168h-71v927h71v-927z" />
<glyph unicode="}" horiz-adv-x="381" d="M318 249q-23 0 -39 -6t-25.5 -17.5t-14 -26.5t-4.5 -33t4 -36.5t12 -51t12.5 -56t4.5 -48.5q0 -34 -14.5 -58.5t-39 -39.5t-55.5 -20t-63 -2v46q29 -1 49.5 5t33 17t18.5 25.5t6 30.5q0 18 -4 38t-12.5 53t-12.5 55.5t-4 43.5q0 19 5 36t15 31t23.5 24.5t31.5 16.5 q-18 6 -31.5 16.5t-23.5 24t-15 31t-5 36.5q0 21 4 43.5t12.5 55.5t12.5 53t4 38q0 16 -6 30.5t-18.5 25.5t-33 17t-49.5 5v46q33 3 64 -2t55.5 -19.5t38.5 -39t14 -59.5q0 -25 -4.5 -48.5t-12.5 -56t-12 -51t-4 -36.5t4.5 -33t14 -26.5t25.5 -17.5t39 -6h49v-54h-49z" />
<glyph unicode="~" horiz-adv-x="558" d="M390 310q-31 0 -57 12.5t-59.5 37t-55 36.5t-47.5 12q-16 0 -29.5 -6t-23 -17t-14.5 -26.5t-5 -34.5h-55q0 33 8.5 59t24.5 44t39 27.5t51 9.5q34 0 61.5 -13t62 -38t53.5 -36t42 -11q16 0 29.5 6t23.5 17t15 26.5t5 34.5h55q1 -33 -7.5 -59t-25 -44t-40 -27.5 t-51.5 -9.5v0z" />
<glyph unicode="&#xa1;" horiz-adv-x="221" d="M110 446q-11 0 -20.5 4t-17 11t-11.5 16.5t-4 20.5t4 20.5t11.5 17t17 11.5t20.5 4t21 -4t17.5 -11.5t11.5 -17t4 -20.5t-4 -20.5t-11.5 -16.5t-17.5 -11t-21 -4v0zM155 -196h-89q0 15 3 97.5t7.5 188t8 182.5t4.5 81h44q1 -4 4.5 -80.5t7.5 -182t7 -188.5t3 -98v0z" />
<glyph unicode="&#xa2;" horiz-adv-x="554" d="M267 -100v98q-49 4 -89.5 25t-69.5 55.5t-44.5 80.5t-15.5 99q0 56 15.5 103t44 82t69.5 56t90 25v103h41v-102q33 -1 60.5 -9.5t50.5 -23t40 -34t28 -43.5q2 -5 4 -9.5t3.5 -9t2.5 -9.5t1 -9q0 -9 -3 -16.5t-7.5 -12.5t-11.5 -8t-14 -3q-12 0 -19 4t-11.5 10.5 t-13.5 34.5q-6 17 -17 31.5t-25 24.5t-31.5 16.5t-36.5 7.5v-416q28 1 52 8.5t43 21t34 33.5t26 45q14 -5 22 -8t14.5 -5.5l6.5 -2.5q-11 -33 -29 -59.5t-42.5 -45.5t-56.5 -29.5t-70 -11.5v-97h-41zM120 258q0 -42 10 -77t29 -61.5t46 -43t62 -22.5v412q-34 -5 -61 -22 t-46.5 -44t-29.5 -63t-10 -79v0z" />
<glyph unicode="&#xa3;" horiz-adv-x="615" d="M148 27q14 0 27.5 4t25 12t20 19.5t12.5 25.5q-11 10 -21.5 17.5t-21 13t-22.5 8.5t-25 3q-14 0 -25.5 -3.5t-20 -10t-13 -16t-4.5 -21.5t5 -22t14.5 -16.5t22 -10t26.5 -3.5v0zM50 280v43h91q-12 22 -21.5 42t-16.5 41.5t-11 43t-4 43.5q0 42 14 78t42 62t69 40.5 t93 14.5q48 0 85 -12t62 -33t37.5 -47.5t12.5 -56.5q0 -13 -2.5 -25t-8 -21.5t-13.5 -15t-18 -5.5t-17 3t-12 7.5t-7 10.5t-2 12q0 4 0.5 8t2 12t2.5 13.5t1 11.5q0 16 -8 31t-24 26.5t-40 18t-54 6.5q-36 0 -63 -10t-45 -28.5t-27 -43t-9 -54.5q0 -22 5 -44t13 -43.5 t18 -41t24 -44.5h216v-43h-191q13 -22 22 -40.5t16.5 -37.5t12 -38t4.5 -38v-4.5t-0.5 -5.5t-0.5 -5v-4q18 -16 31.5 -26.5t29.5 -19.5t34.5 -14.5t39.5 -5.5q25 0 45 6.5t35 18.5t26 30t18 41l43 -13q-6 -28 -19 -53t-33 -44.5t-48.5 -31t-65.5 -11.5q-26 0 -48 5t-41 14 t-34.5 20.5t-32.5 25.5q-10 -16 -23.5 -28.5t-30 -21.5t-35.5 -13.5t-39 -4.5q-27 0 -50.5 7t-41 20t-27 31.5t-9.5 40.5q0 23 8.5 42t24.5 33t38 21.5t48 7.5q12 0 24 -1.5t22.5 -4.5t20.5 -7.5t20 -9.5q-5 13 -11.5 27t-14 28t-21.5 37t-16 27h-115z" />
<glyph unicode="&#xa5;" horiz-adv-x="749" d="M418 670h300v-42l-114 -13l-115 -214h138v-43h-161l-30 -56h191v-43h-212v-205l137 -12v-42h-356v42l139 12v204l-1 1h-212v43h189l-30 56h-159v43h136l-115 214l-111 13v42h301v-42l-112 -11l154 -296l156 295l-113 12v42z" />
<glyph unicode="&#xa6;" horiz-adv-x="234" d="M152 324h-71v435h71v-435zM152 -167h-71v434h71v-434z" />
<glyph unicode="&#xa7;" horiz-adv-x="488" d="M243 373q-3 1 -8.5 3l-5.5 2l-7.5 3t-21.5 8q-21 -3 -37.5 -11.5t-28.5 -22t-18.5 -31t-6.5 -38.5q0 -26 9 -44.5t26 -32t40.5 -23.5t58.5 -21q2 -1 4 -1.5t14.5 -4.5t20 -6.5t12.5 -4.5q20 3 36 10.5t28 20t18 29.5t6 39q0 26 -10 45t-27.5 33t-41 24t-60.5 24v0z M452 253q0 -25 -6 -46.5t-18 -38t-28.5 -29t-36.5 -20.5q17 -9 30 -20.5t23 -25.5t15 -31t5 -38q0 -35 -14 -62.5t-40 -46t-60 -27.5t-74 -9q-50 0 -89 13.5t-65 34t-38.5 43.5t-12.5 42q0 7 2.5 14t7 12.5t11.5 8.5t16 3q11 0 18 -4.5t11 -11t13 -32.5q6 -16 17.5 -29 t27.5 -22t36 -13.5t42 -4.5q27 0 49 6t38 18t24.5 28t8.5 35q0 24 -12.5 41.5t-34 30t-36 18t-73.5 26.5q-38 14 -65.5 26.5t-50.5 31t-37 45.5t-14 64q0 24 6 45.5t18 40t29.5 32t39.5 21.5q-15 10 -27.5 22t-21 26.5t-13.5 32t-5 37.5q0 28 10 54.5t31.5 48t55.5 34 t80 12.5t82 -12.5t59 -32t34 -41.5t11 -41q0 -8 -2.5 -15t-7.5 -12t-11.5 -7.5t-14.5 -2.5q-12 0 -19 5t-11 12t-7.5 18.5t-3.5 12.5q-5 14 -15 25t-24 19t-32 12.5t-39 4.5q-28 0 -48.5 -7t-34.5 -19.5t-20.5 -29t-6.5 -34.5q0 -25 10.5 -43t29 -31t39.5 -22t56 -21 q46 -16 73.5 -27.5t53 -30.5t41 -47.5t15.5 -68.5v0z" />
<glyph unicode="&#xa8;" horiz-adv-x="600" d="M336 644q0 11 4 21t11.5 17.5t17.5 11.5t21 4t21 -4t17.5 -11.5t12 -17.5t4.5 -21t-4.5 -21t-12 -17.5t-17.5 -11.5t-21 -4t-21 4t-17.5 11.5t-11.5 17.5t-4 21v0zM157 644q0 11 4 21t11.5 17.5t17.5 11.5t21 4t21 -4t17.5 -11.5t12 -17.5t4.5 -21t-4.5 -21t-12 -17.5 t-17.5 -11.5t-21 -4t-21 4t-17.5 11.5t-11.5 17.5t-4 21v0z" />
<glyph unicode="&#xa9;" horiz-adv-x="769" d="M24 344q0 77 27.5 144t77 116.5t115 77t139.5 27.5t139.5 -27.5t115.5 -77t77.5 -116.5t27.5 -144q0 -76 -27.5 -143t-77.5 -116.5t-115.5 -77t-139.5 -27.5t-139.5 27.5t-115 77t-77 116t-27.5 143.5v0zM64 343q0 -69 24.5 -128.5t68.5 -104.5t102 -69.5t124 -24.5 t124.5 24.5t102.5 69t68.5 105t24.5 129.5t-24.5 129.5t-68.5 105t-102.5 69.5t-124.5 25t-124.5 -24.5t-102.5 -69.5t-68 -105.5t-24 -130.5v0zM386 140q-43 0 -78 14.5t-60.5 41.5t-39 64.5t-13.5 81.5q0 46 13.5 84.5t38.5 66t60 43t77 15.5q24 0 45.5 -5t39 -13.5 t31.5 -20t24 -24.5q3 -5 6.5 -11t6.5 -13t5 -15t2 -16q0 -7 -2.5 -13.5t-7 -10.5t-10 -6.5t-12.5 -2.5q-10 0 -16 3t-9 8.5t-0.5 -2.5t-10.5 32q-4 14 -12.5 25t-20.5 19t-27 12t-31 4q-30 0 -54 -11t-41 -32t-25.5 -50.5t-8.5 -65.5q0 -35 9 -63.5t26.5 -49t42 -31.5 t55.5 -11q23 0 42.5 5.5t35.5 16.5t27.5 27t19.5 37q12 -5 19 -7.5t12.5 -4.5l5.5 -2q-9 -28 -23.5 -50t-35.5 -37.5t-47.5 -23.5t-58.5 -8v0z" />
<glyph unicode="&#xaa;" horiz-adv-x="451" d="M172 352q17 0 33.5 4.5t31.5 12t27 17t21 19.5v91q-51 0 -86.5 -7.5t-56.5 -19.5t-30.5 -27.5t-9.5 -32.5q0 -13 5 -24t14.5 -18t22.5 -11t28 -4v0zM204 704q37 0 64 -9t44.5 -26.5t26 -43t8.5 -57.5v-155q0 -16 2 -26.5t6 -16.5t9.5 -9t14.5 -3q6 0 10.5 1.5t8.5 4 t6.5 6.5t4.5 9l15 -14q-3 -12 -9 -21t-15 -15.5t-20 -10t-24 -3.5t-24 3.5t-20 9.5t-15 15.5t-9 21.5q-11 -12 -24 -23t-29.5 -19t-36 -13t-40.5 -5q-24 0 -45.5 6.5t-37 19.5t-24.5 31.5t-9 41.5q0 33 17 57.5t49 41t77 24.5t100 8v36q0 22 -5.5 39t-16.5 27.5t-27 16 t-36 5.5q-14 0 -25.5 -2.5t-20 -7t-15.5 -12t-13 -18.5q-11 -21 -15 -25.5t-9 -7t-12 -2.5t-12.5 2t-9.5 6t-6.5 9.5t-2.5 12.5q0 5 1.5 11t5 13.5t10 16t16.5 15.5q11 9 24 15.5t27.5 10.5t29.5 6t31 2v0z" />
<glyph unicode="&#xab;" horiz-adv-x="525" d="M488 485l-192 -241l193 -244h-71l-191 240v5l193 240h68zM297 485l-193 -241l192 -244h-70l-193 239v6l195 240h69z" />
<glyph unicode="&#xad;" horiz-adv-x="373" d="M50 340h273v-55h-273v55z" />
<glyph unicode="&#xae;" horiz-adv-x="442" d="M23 508q0 42 15 79t42 64t63.5 42t77.5 15t77.5 -15t64 -42t42.5 -64t15 -79q0 -43 -15 -79.5t-42.5 -63.5t-64 -42t-77.5 -15t-77.5 15t-63.5 42t-42 63.5t-15 79.5v0zM50 507q0 -36 13 -68.5t37 -56.5t55.5 -37t66.5 -13q36 0 67 13t54.5 37t36.5 56.5t13 69.5 q0 36 -13 68.5t-37 56.5t-55.5 37.5t-66.5 13.5t-66.5 -13.5t-55 -37.5t-36.5 -56.5t-13 -69.5v0zM234 579h-49v-67h50q7 0 13 2.5t10.5 7t6.5 10.5t2 13q0 8 -2.5 14.5t-6.5 11t-10 6.5t-14 2v0zM225 430v-20h-112v20l36 4v147l-36 4v20h130q14 0 25.5 -4t19.5 -12t12 -19 t4 -25q0 -11 -3 -20.5t-8.5 -16.5t-13 -12t-16.5 -8l28 -53l37 -5v-20h-62l-37 75h-44v-51z" />
<glyph unicode="&#xaf;" horiz-adv-x="600" d="M173 658h255v-45h-255v45z" />
<glyph unicode="&#xb0;" horiz-adv-x="362" d="M44 561q0 27 10 51.5t28.5 43t44 28.5t54.5 10q30 0 55.5 -10t43.5 -28t28 -42.5t10 -52.5t-10 -52.5t-28.5 -43t-43.5 -28.5t-55 -10q-29 0 -54.5 10t-44 28.5t-28.5 43t-10 52.5v0zM270 561q0 19 -6.5 35.5t-18.5 28.5t-28.5 19t-35.5 7t-35.5 -7t-28 -19t-18 -28.5 t-6.5 -35.5t6.5 -36t18 -29.5t28 -19.5t35.5 -7t35.5 7t28.5 19.5t18.5 29.5t6.5 36v0z" />
<glyph unicode="&#xb1;" horiz-adv-x="473" d="M206 496h61v-157h156v-52h-156v-158h-61v158h-156v52h156v157zM50 0v51h373v-51h-373z" />
<glyph unicode="&#xb2;" horiz-adv-x="371" d="M193 434q-25 -16 -42 -28.5t-28 -24.5t-18 -24t-11 -27h182l41 101l29 -8l-30 -136h-285v12q0 30 13 57t33 48t40.5 37t46.5 33q28 18 45.5 31t29.5 25.5t18 26.5t6 30q0 15 -5.5 28t-16.5 22.5t-27 14.5t-37 5q-25 0 -44.5 -8t-32 -23t-17.5 -34.5t-3 -42.5l-41 -5 q-6 32 0 60t24.5 50t48.5 34.5t69 12.5q34 0 60 -8t43.5 -23t26 -36t8.5 -46t-8.5 -45.5t-25 -38.5t-38.5 -34t-54 -36v0z" />
<glyph unicode="&#xb3;" horiz-adv-x="355" d="M178 275q-25 0 -46.5 4.5t-38.5 12t-29.5 18.5t-21.5 24l-4 8t-3.5 8t-2.5 8t-1 8q0 6 1.5 11t5 9t8 6t11.5 2q8 0 13 -3t7.5 -7t5.5 -11t3 -8q5 -11 13.5 -19.5t20 -14t25.5 -8.5t29 -3q23 0 41 5.5t30.5 16.5t19 25t6.5 31q0 18 -7.5 32t-21 24t-33.5 15t-44 6l-43 1 v41h42q23 1 40.5 6.5t29 15t17 22t5.5 27.5q0 14 -5.5 26.5t-16.5 21.5t-27.5 14t-38.5 5q-17 0 -31.5 -4t-26 -12t-20 -20.5t-14.5 -29.5l-40 10q4 23 15 42t28.5 32.5t41 20.5t52.5 7q34 0 60 -8.5t43.5 -24t26.5 -35t9 -40.5q0 -14 -4 -28t-12.5 -26.5t-21.5 -22.5 t-30 -17q20 -4 35.5 -13.5t26.5 -23t16.5 -30t5.5 -35.5q0 -27 -10.5 -49.5t-30 -39t-47.5 -25t-62 -8.5v0z" />
<glyph unicode="&#xb4;" horiz-adv-x="600" d="M412 704l-139 -128h-58v3l112 128h85v-3z" />
<glyph unicode="&#xb6;" horiz-adv-x="702" d="M322 -105v313h-58q-51 0 -94 17.5t-73.5 50.5t-46.5 77.5t-16 98.5q0 52 16 96t45.5 76t71 49t91.5 17h395v-42l-122 -13v-740l129 -12v-42h-198v794h-70v-794h-194v42z" />
<glyph unicode="&#xb7;" horiz-adv-x="219" d="M56 311q0 11 4 20.5t11.5 16.5t17 11t20.5 4t21 -4t17.5 -11t11.5 -16.5t4 -20.5t-4 -20.5t-11.5 -17t-17.5 -11.5t-21 -4t-20.5 4t-17 11.5t-11.5 17t-4 20.5v0z" />
<glyph unicode="&#xb8;" horiz-adv-x="600" d="M191 -166l28 26q8 -12 16 -21t18 -14.5t22 -8.5t26 -3q13 0 25 3t21.5 9t14.5 15.5t5 21.5q0 13 -6 23t-18 16t-29.5 7.5t-39.5 -3.5l-11 9l33 86h43l-24 -61q20 2 38.5 -3t33 -15t23 -24.5t8.5 -33.5q0 -21 -9 -37.5t-24.5 -27.5t-36.5 -17t-44 -6q-17 0 -33 3.5 t-31 10.5t-27.5 18t-21.5 27v0z" />
<glyph unicode="&#xb9;" horiz-adv-x="280" d="M32 318l79 8v292l-75 -47l-19 28l119 99l32 -6v-366l80 -8v-31h-216v31z" />
<glyph unicode="&#xba;" horiz-adv-x="465" d="M44 505q0 43 13.5 80t38.5 63.5t60 41t77 14.5q41 0 76 -14.5t59.5 -41t38 -63.5t13.5 -80t-13.5 -80t-38.5 -64t-60 -41.5t-77 -14.5q-41 0 -76 14.5t-59.5 41.5t-38 64t-13.5 80v0zM106 504q0 -35 9 -63t25.5 -48.5t39.5 -31t52 -10.5t52.5 10.5t40 30.5t25.5 48.5 t9 63.5t-9 63.5t-25.5 49t-40 31t-52.5 10.5t-52 -10.5t-39.5 -31t-25.5 -49t-9 -63.5v0z" />
<glyph unicode="&#xbb;" horiz-adv-x="525" d="M34 0l192 241l-193 244h71l191 -240v-5l-193 -240h-68zM225 0l193 241l-192 244h70l193 -239v-6l-195 -240h-69z" />
<glyph unicode="&#xbc;" horiz-adv-x="799" d="M32 318l79 8v292l-75 -47l-19 28l119 99l32 -6v-366l80 -8v-31h-216v31zM241 0h-63l325 691h63zM773 0h-190v31l67 8v73h-216v39l216 252h55v-249h68v-42h-68v-74l68 -7v-31zM494 154h156v183z" />
<glyph unicode="&#xbd;" horiz-adv-x="828" d="M32 318l79 8v292l-75 -47l-19 28l119 99l32 -6v-366l80 -8v-31h-216v31zM241 0h-63l325 691h63zM650 147q-25 -16 -42 -28.5t-28 -24.5t-18 -24t-11 -27h182l41 101l29 -8l-30 -136h-285v12q0 30 13 57t33 48t40.5 37t46.5 33q28 18 45.5 31t29.5 25.5t18 26.5t6 30 q0 15 -5.5 28t-16.5 22.5t-27 14.5t-37 5q-25 0 -44.5 -8t-32 -23t-17.5 -34.5t-3 -42.5l-41 -5q-6 32 0 60t24.5 50t48.5 34.5t69 12.5q34 0 60 -8t43.5 -23t26 -36t8.5 -46t-8.5 -45.5t-25 -38.5t-38.5 -34t-54 -36v0z" />
<glyph unicode="&#xbe;" horiz-adv-x="906" d="M667 691l-325 -691h-63l325 691h63zM880 0h-190v31l67 8v73h-216v39l216 252h55v-249h68v-42h-68v-74l68 -7v-31zM178 275q-25 0 -46.5 4.5t-38.5 12t-29.5 18.5t-21.5 24l-4 8t-3.5 8t-2.5 8t-1 8q0 6 1.5 11t5 9t8 6t11.5 2q8 0 13 -3t7.5 -7t5.5 -11t3 -8 q5 -11 13.5 -19.5t20 -14t25.5 -8.5t29 -3q23 0 41 5.5t30.5 16.5t19 25t6.5 31q0 18 -7.5 32t-21 24t-33.5 15t-44 6l-43 1v41h42q23 1 40.5 6.5t29 15t17 22t5.5 27.5q0 14 -5.5 26.5t-16.5 21.5t-27.5 14t-38.5 5q-17 0 -31.5 -4t-26 -12t-20 -20.5t-14.5 -29.5l-40 10 q4 23 15 42t28.5 32.5t41 20.5t52.5 7q34 0 60 -8.5t43.5 -24t26.5 -35t9 -40.5q0 -14 -4 -28t-12.5 -26.5t-21.5 -22.5t-30 -17q20 -4 35.5 -13.5t26.5 -23t16.5 -30t5.5 -35.5q0 -27 -10.5 -49.5t-30 -39t-47.5 -25t-62 -8.5v0zM601 154h156v183z" />
<glyph unicode="&#xbf;" horiz-adv-x="477" d="M294 498q0 -11 -4 -20.5t-11.5 -16.5t-17 -11t-20.5 -4t-21 4t-17.5 11t-11.5 16.5t-4 20.5t4 20.5t11.5 17t17.5 11.5t21 4t20.5 -4t17 -11.5t11.5 -17t4 -20.5v0zM236 269q0 8 -2.5 14.5t-7.5 11t-11.5 7t-13.5 2.5h-3h-2.5t-3 -0.5t-2.5 -0.5l11 39q3 1 6.5 2t6.5 1.5 t6 0.5h6q15 0 28.5 -5.5t23.5 -15.5t16 -24t6 -30q0 -40 -25 -64t-80.5 -60t-84 -70.5t-28.5 -88.5q0 -29 11 -54.5t32.5 -44.5t51.5 -29.5t67 -10.5q38 0 66.5 9t47 24.5t28 34.5t11.5 40q1 11 0 19.5t-4 23t-3.5 16t-0.5 6.5t2 11t6 11t11.5 8.5t17.5 3.5q11 0 20 -6 t15 -16t9.5 -23t3.5 -28q0 -44 -17.5 -79.5t-49.5 -60.5t-75 -38t-94 -13q-55 0 -98 14t-72.5 40.5t-44.5 61.5t-15 77q0 62 31 104.5t110 95.5t83 56t4 28v0z" />
<glyph unicode="&#xc0;" d="M393 766l-139 128v3h83l112 -128v-3h-56zM383 597l-110 -316h222l-110 316h-2zM329 42v-42h-309v42l102 12l208 582l-135 12v42h383v-42l-137 -12l209 -582l101 -12v-42h-308v42l131 12l-61 174h-259l-60 -174z" />
<glyph unicode="&#xc1;" d="M522 894l-139 -128h-58v3l112 128h85v-3zM383 597l-110 -316h222l-110 316h-2zM329 42v-42h-309v42l102 12l208 582l-135 12v42h383v-42l-137 -12l209 -582l101 -12v-42h-308v42l131 12l-61 174h-259l-60 -174z" />
<glyph unicode="&#xc2;" d="M481 766l-97 87l-95 -87h-64v3l135 129h51l135 -129v-3h-65zM383 597l-110 -316h222l-110 316h-2zM329 42v-42h-309v42l102 12l208 582l-135 12v42h383v-42l-137 -12l209 -582l101 -12v-42h-308v42l131 12l-61 174h-259l-60 -174z" />
<glyph unicode="&#xc3;" d="M269 785h-48q0 24 7 43t19 31.5t29 18.5t36 6t37 -8t41.5 -23.5t38 -23t30.5 -7.5q9 0 16.5 4t13.5 11t9 17t3 22h48q0 -27 -7 -46t-19.5 -31t-28 -17.5t-32.5 -5.5q-20 0 -38 8t-42.5 24t-38 23t-28.5 7q-10 0 -18.5 -3.5t-14.5 -11t-9.5 -17t-3.5 -21.5v0zM383 597 l-110 -316h222l-110 316h-2zM329 42v-42h-309v42l102 12l208 582l-135 12v42h383v-42l-137 -12l209 -582l101 -12v-42h-308v42l131 12l-61 174h-259l-60 -174z" />
<glyph unicode="&#xc4;" d="M421 834q0 11 4 21t11.5 17.5t17.5 11.5t21 4t21 -4t17.5 -11.5t12 -17.5t4.5 -21t-4.5 -21t-12 -17.5t-17.5 -11.5t-21 -4t-21 4t-17.5 11.5t-11.5 17.5t-4 21v0zM242 834q0 11 4 21t11.5 17.5t17.5 11.5t21 4t21 -4t17.5 -11.5t12 -17.5t4.5 -21t-4.5 -21t-12 -17.5 t-17.5 -11.5t-21 -4t-21 4t-17.5 11.5t-11.5 17.5t-4 21v0zM383 597l-110 -316h222l-110 316h-2zM329 42v-42h-309v42l102 12l208 582l-135 12v42h383v-42l-137 -12l209 -582l101 -12v-42h-308v42l131 12l-61 174h-259l-60 -174z" />
<glyph unicode="&#xc5;" d="M385 933q20 0 37 -7t29.5 -19t19.5 -28.5t7 -35.5q0 -20 -7 -36.5t-19.5 -29t-29.5 -19.5t-37 -7t-37 7t-29.5 19.5t-19.5 29t-7 36.5q0 19 7 35.5t19.5 28.5t29.5 19t37 7v0zM385 901q-12 0 -22 -4.5t-17 -12.5t-11 -18.5t-4 -22.5q0 -13 4 -23.5t11 -18.5t17 -12.5 t22 -4.5t22 4.5t17 12.5t11 18.5t4 23.5q0 12 -4 22.5t-11 18.5t-17 12.5t-22 4.5v0zM383 597l-110 -316h222l-110 316h-2zM329 42v-42h-309v42l102 12l208 582l-135 12v42h383v-42l-137 -12l209 -582l101 -12v-42h-308v42l131 12l-61 174h-259l-60 -174z" />
<glyph unicode="&#xc6;" horiz-adv-x="1038" d="M387 607l-121 -326h225l-102 326h-2zM443 0v42l120 11l-55 175h-261l-64 -174l141 -12v-42h-308v42l94 11l219 584l-138 11v42h728l62 -217l-40 -11l-82 174h-407l79 -246h216l17 121h41v-290h-41l-17 115h-199l91 -282h249l77 220l38 -8l-54 -266h-506z" />
<glyph unicode="&#xc7;" horiz-adv-x="699" d="M248 -166l28 26q8 -12 16 -21t18 -14.5t22 -8.5t26 -3q13 0 25 3t21.5 9t14.5 15.5t5 21.5q0 13 -6 23t-18 16t-29.5 7.5t-39.5 -3.5l-11 9l25 66q-62 3 -115.5 29t-94 73t-62.5 113.5t-21 149.5q0 84 24 152t66.5 115.5t98 72t117.5 24.5q30 0 58 -6t52.5 -18 t45.5 -28.5t37 -37.5l6 89h39l48 -274l-39 -9l-24 56q-17 40 -37.5 70.5t-46.5 51.5t-58 32.5t-70 11.5q-51 0 -94 -20t-75.5 -58.5t-50.5 -95.5t-18 -129q0 -74 19 -131.5t52.5 -96t78 -57.5t96.5 -19q46 0 81 12.5t60.5 35t44 53t33.5 70.5l43 -16q-13 -46 -34.5 -83.5 t-52.5 -66t-72 -45.5t-92 -20l-16 -41q20 2 38.5 -3t33 -15t23 -24.5t8.5 -33.5q0 -21 -9 -37.5t-24.5 -27.5t-36.5 -17t-44 -6q-17 0 -33 3.5t-31 10.5t-27.5 18t-21.5 27v0z" />
<glyph unicode="&#xc8;" horiz-adv-x="740" d="M400 766l-139 128v3h83l112 -128v-3h-56zM43 0v42l138 12v581l-138 13v42h577l69 -217l-39 -11l-91 174h-298v-253h186l18 120h41v-290h-41l-19 116h-185v-275h327l79 220l38 -8l-55 -266h-607z" />
<glyph unicode="&#xc9;" horiz-adv-x="740" d="M529 894l-139 -128h-58v3l112 128h85v-3zM43 0v42l138 12v581l-138 13v42h577l69 -217l-39 -11l-91 174h-298v-253h186l18 120h41v-290h-41l-19 116h-185v-275h327l79 220l38 -8l-55 -266h-607z" />
<glyph unicode="&#xca;" horiz-adv-x="740" d="M489 766l-97 87l-95 -87h-64v3l135 129h51l135 -129v-3h-65zM43 0v42l138 12v581l-138 13v42h577l69 -217l-39 -11l-91 174h-298v-253h186l18 120h41v-290h-41l-19 116h-185v-275h327l79 220l38 -8l-55 -266h-607z" />
<glyph unicode="&#xcb;" horiz-adv-x="740" d="M428 834q0 11 4 21t11.5 17.5t17.5 11.5t21 4t21 -4t17.5 -11.5t12 -17.5t4.5 -21t-4.5 -21t-12 -17.5t-17.5 -11.5t-21 -4t-21 4t-17.5 11.5t-11.5 17.5t-4 21v0zM249 834q0 11 4 21t11.5 17.5t17.5 11.5t21 4t21 -4t17.5 -11.5t12 -17.5t4.5 -21t-4.5 -21t-12 -17.5 t-17.5 -11.5t-21 -4t-21 4t-17.5 11.5t-11.5 17.5t-4 21v0zM43 0v42l138 12v581l-138 13v42h577l69 -217l-39 -11l-91 174h-298v-253h186l18 120h41v-290h-41l-19 116h-185v-275h327l79 220l38 -8l-55 -266h-607z" />
<glyph unicode="&#xcc;" horiz-adv-x="444" d="M229 766l-139 128v3h83l112 -128v-3h-56zM401 0h-358v42l139 12v581l-139 13v42h358v-42l-139 -13v-581l139 -12v-42z" />
<glyph unicode="&#xcd;" horiz-adv-x="444" d="M358 894l-139 -128h-58v3l112 128h85v-3zM401 0h-358v42l139 12v581l-139 13v42h358v-42l-139 -13v-581l139 -12v-42z" />
<glyph unicode="&#xce;" horiz-adv-x="444" d="M318 766l-97 87l-95 -87h-64v3l135 129h51l135 -129v-3h-65zM401 0h-358v42l139 12v581l-139 13v42h358v-42l-139 -13v-581l139 -12v-42z" />
<glyph unicode="&#xcf;" horiz-adv-x="444" d="M257 834q0 11 4 21t11.5 17.5t17.5 11.5t21 4t21 -4t17.5 -11.5t12 -17.5t4.5 -21t-4.5 -21t-12 -17.5t-17.5 -11.5t-21 -4t-21 4t-17.5 11.5t-11.5 17.5t-4 21v0zM78 834q0 11 4 21t11.5 17.5t17.5 11.5t21 4t21 -4t17.5 -11.5t12 -17.5t4.5 -21t-4.5 -21t-12 -17.5 t-17.5 -11.5t-21 -4t-21 4t-17.5 11.5t-11.5 17.5t-4 21v0zM401 0h-358v42l139 12v581l-139 13v42h358v-42l-139 -13v-581l139 -12v-42z" />
<glyph unicode="&#xd0;" horiz-adv-x="768" d="M411 690q72 0 130 -24t99.5 -68.5t63.5 -107t22 -137.5q0 -77 -23 -142t-65.5 -112.5t-101 -73t-128.5 -25.5h-365v42l138 12v275h-139v51h139v255l-138 13v42h368zM397 636h-136v-256h156v-51h-156v-275h139q55 0 101 21.5t78.5 61t50 94.5t17.5 120q0 64 -16.5 116.5 t-49 90.5t-79 58t-105.5 20v0z" />
<glyph unicode="&#xd1;" horiz-adv-x="885" d="M327 785h-48q0 24 7 43t19 31.5t29 18.5t36 6t37 -8t41.5 -23.5t38 -23t30.5 -7.5q9 0 16.5 4t13.5 11t9 17t3 22h48q0 -27 -7 -46t-19.5 -31t-28 -17.5t-32.5 -5.5q-20 0 -38 8t-42.5 24t-38 23t-28.5 7q-10 0 -18.5 -3.5t-14.5 -11t-9.5 -17t-3.5 -21.5v0zM489 690h353 v-42l-138 -13v-638h-58l-395 586l2 -529l146 -12v-42h-356v42l137 12v581l-137 13v42h361v-42l-114 -10l344 -512l-1 509l-144 13v42z" />
<glyph unicode="&#xd2;" d="M393 766l-139 128v3h83l112 -128v-3h-56zM719 344q0 -84 -25.5 -152t-71 -115.5t-107 -72.5t-131.5 -25q-69 0 -129.5 25t-106 72.5t-71 115.5t-25.5 152t25.5 152t71.5 115.5t107 72.5t131 25q69 0 129.5 -25t106 -72.5t71 -115.5t25.5 -152v0zM131 344q0 -72 19.5 -129 t54.5 -96t81 -59t99 -20t99 20t81 59t54.5 96t19.5 129t-19.5 129t-54.5 95.5t-81 58.5t-99 20t-99 -20t-81 -58.5t-54.5 -95.5t-19.5 -129v0z" />
<glyph unicode="&#xd3;" d="M521 894l-139 -128h-58v3l112 128h85v-3zM719 344q0 -84 -25.5 -152t-71 -115.5t-107 -72.5t-131.5 -25q-69 0 -129.5 25t-106 72.5t-71 115.5t-25.5 152t25.5 152t71.5 115.5t107 72.5t131 25q69 0 129.5 -25t106 -72.5t71 -115.5t25.5 -152v0zM131 344q0 -72 19.5 -129 t54.5 -96t81 -59t99 -20t99 20t81 59t54.5 96t19.5 129t-19.5 129t-54.5 95.5t-81 58.5t-99 20t-99 -20t-81 -58.5t-54.5 -95.5t-19.5 -129v0z" />
<glyph unicode="&#xd4;" d="M481 766l-97 87l-95 -87h-64v3l135 129h51l135 -129v-3h-65zM719 344q0 -84 -25.5 -152t-71 -115.5t-107 -72.5t-131.5 -25q-69 0 -129.5 25t-106 72.5t-71 115.5t-25.5 152t25.5 152t71.5 115.5t107 72.5t131 25q69 0 129.5 -25t106 -72.5t71 -115.5t25.5 -152v0z M131 344q0 -72 19.5 -129t54.5 -96t81 -59t99 -20t99 20t81 59t54.5 96t19.5 129t-19.5 129t-54.5 95.5t-81 58.5t-99 20t-99 -20t-81 -58.5t-54.5 -95.5t-19.5 -129v0z" />
<glyph unicode="&#xd5;" d="M269 785h-48q0 24 7 43t19 31.5t29 18.5t36 6t37 -8t41.5 -23.5t38 -23t30.5 -7.5q9 0 16.5 4t13.5 11t9 17t3 22h48q0 -27 -7 -46t-19.5 -31t-28 -17.5t-32.5 -5.5q-20 0 -38 8t-42.5 24t-38 23t-28.5 7q-10 0 -18.5 -3.5t-14.5 -11t-9.5 -17t-3.5 -21.5v0zM719 344 q0 -84 -25.5 -152t-71 -115.5t-107 -72.5t-131.5 -25q-69 0 -129.5 25t-106 72.5t-71 115.5t-25.5 152t25.5 152t71.5 115.5t107 72.5t131 25q69 0 129.5 -25t106 -72.5t71 -115.5t25.5 -152v0zM131 344q0 -72 19.5 -129t54.5 -96t81 -59t99 -20t99 20t81 59t54.5 96 t19.5 129t-19.5 129t-54.5 95.5t-81 58.5t-99 20t-99 -20t-81 -58.5t-54.5 -95.5t-19.5 -129v0z" />
<glyph unicode="&#xd6;" d="M421 834q0 11 4 21t11.5 17.5t17.5 11.5t21 4t21 -4t17.5 -11.5t12 -17.5t4.5 -21t-4.5 -21t-12 -17.5t-17.5 -11.5t-21 -4t-21 4t-17.5 11.5t-11.5 17.5t-4 21v0zM242 834q0 11 4 21t11.5 17.5t17.5 11.5t21 4t21 -4t17.5 -11.5t12 -17.5t4.5 -21t-4.5 -21t-12 -17.5 t-17.5 -11.5t-21 -4t-21 4t-17.5 11.5t-11.5 17.5t-4 21v0zM719 344q0 -84 -25.5 -152t-71 -115.5t-107 -72.5t-131.5 -25q-69 0 -129.5 25t-106 72.5t-71 115.5t-25.5 152t25.5 152t71.5 115.5t107 72.5t131 25q69 0 129.5 -25t106 -72.5t71 -115.5t25.5 -152v0zM131 344 q0 -72 19.5 -129t54.5 -96t81 -59t99 -20t99 20t81 59t54.5 96t19.5 129t-19.5 129t-54.5 95.5t-81 58.5t-99 20t-99 -20t-81 -58.5t-54.5 -95.5t-19.5 -129v0z" />
<glyph unicode="&#xd7;" horiz-adv-x="473" d="M418 165l-40 -38l-145 143l-143 -143l-36 37l143 142l-141 140l40 39l140 -140l143 142l36 -36l-142 -142z" />
<glyph unicode="&#xd8;" d="M748 690l-100 -109q17 -23 30 -49t22 -56t14 -63t5 -69q0 -84 -25.5 -152t-71 -115.5t-107 -72.5t-131.5 -25q-31 0 -61 5t-57.5 15.5t-52.5 25.5t-47 34l-55 -59h-77l93 101q-18 23 -32 50t-23.5 57.5t-14.5 64.5t-5 71q0 84 25.5 152t71.5 115.5t107 72.5t131 25 q32 0 62.5 -5.5t58.5 -16.5t53.5 -26.5t47.5 -36.5l61 66h78zM131 344q0 -29 3 -55t9 -49.5t15 -44.5t20 -39l383 416q-17 18 -37 32t-42.5 23.5t-47 14.5t-49.5 5q-53 0 -99 -20t-81 -58.5t-54.5 -95.5t-19.5 -129v0zM639 344q0 27 -3 52t-8.5 48t-13.5 43t-18 38 l-383 -415q17 -17 36.5 -30t41.5 -22t45.5 -13.5t48.5 -4.5q53 0 99 20t81 59t54.5 96t19.5 129v0z" />
<glyph unicode="&#xd9;" horiz-adv-x="814" d="M415 766l-139 128v3h83l112 -128v-3h-56zM451 690h343v-42l-128 -13v-419q0 -55 -18.5 -99t-52.5 -75t-81.5 -47t-105.5 -16q-60 0 -108 15.5t-82 46.5t-52 75t-18 100v419l-128 13v42h344v-42l-138 -13v-416q0 -41 12 -74t35 -56.5t57.5 -36t79.5 -12.5q44 0 78.5 12.5 t58 36t35.5 56.5t12 74v416l-143 13v42z" />
<glyph unicode="&#xda;" horiz-adv-x="814" d="M543 894l-139 -128h-58v3l112 128h85v-3zM451 690h343v-42l-128 -13v-419q0 -55 -18.5 -99t-52.5 -75t-81.5 -47t-105.5 -16q-60 0 -108 15.5t-82 46.5t-52 75t-18 100v419l-128 13v42h344v-42l-138 -13v-416q0 -41 12 -74t35 -56.5t57.5 -36t79.5 -12.5q44 0 78.5 12.5 t58 36t35.5 56.5t12 74v416l-143 13v42z" />
<glyph unicode="&#xdb;" horiz-adv-x="814" d="M503 766l-97 87l-95 -87h-64v3l135 129h51l135 -129v-3h-65zM451 690h343v-42l-128 -13v-419q0 -55 -18.5 -99t-52.5 -75t-81.5 -47t-105.5 -16q-60 0 -108 15.5t-82 46.5t-52 75t-18 100v419l-128 13v42h344v-42l-138 -13v-416q0 -41 12 -74t35 -56.5t57.5 -36 t79.5 -12.5q44 0 78.5 12.5t58 36t35.5 56.5t12 74v416l-143 13v42z" />
<glyph unicode="&#xdc;" horiz-adv-x="814" d="M442 834q0 11 4 21t11.5 17.5t17.5 11.5t21 4t21 -4t17.5 -11.5t12 -17.5t4.5 -21t-4.5 -21t-12 -17.5t-17.5 -11.5t-21 -4t-21 4t-17.5 11.5t-11.5 17.5t-4 21v0zM263 834q0 11 4 21t11.5 17.5t17.5 11.5t21 4t21 -4t17.5 -11.5t12 -17.5t4.5 -21t-4.5 -21t-12 -17.5 t-17.5 -11.5t-21 -4t-21 4t-17.5 11.5t-11.5 17.5t-4 21v0zM451 690h343v-42l-128 -13v-419q0 -55 -18.5 -99t-52.5 -75t-81.5 -47t-105.5 -16q-60 0 -108 15.5t-82 46.5t-52 75t-18 100v419l-128 13v42h344v-42l-138 -13v-416q0 -41 12 -74t35 -56.5t57.5 -36t79.5 -12.5 q44 0 78.5 12.5t58 36t35.5 56.5t12 74v416l-143 13v42z" />
<glyph unicode="&#xdd;" horiz-adv-x="727" d="M499 894l-139 -128h-58v3l112 128h85v-3zM541 0h-356v42l139 12v206l-199 375l-105 13v42h289v-42l-106 -11l162 -316l162 315l-108 12v42h287v-42l-105 -13l-198 -377v-204l138 -12v-42z" />
<glyph unicode="&#xde;" horiz-adv-x="715" d="M408 689v-42l-148 -13v-90h217q47 0 85 -13.5t64 -39t40 -61t14 -77.5q0 -44 -14.5 -80t-42.5 -62.5t-66.5 -41t-85.5 -14.5h-211v-101l148 -12v-42h-365v42l138 12v580l-138 13v42h365zM457 490h-197v-281h195q34 0 61 10.5t45.5 30t28 45.5t9.5 57t-10 56.5t-28.5 44 t-45 28t-58.5 9.5v0z" />
<glyph unicode="&#xdf;" horiz-adv-x="716" d="M43 40l101 12v383h-101v38l101 14v35q0 55 17 97t48.5 70t75 42t95.5 14q47 0 85 -10t65.5 -30t42.5 -49t15 -66q0 -52 -25 -81.5t-75 -56.5t-70 -43t-20 -47q0 -20 10.5 -34t29 -24t37 -16t61.5 -18q33 -10 58.5 -21.5t46.5 -28.5t33.5 -42t12.5 -59q0 -31 -11 -57 t-31.5 -44.5t-49 -28.5t-61.5 -10q-27 0 -51.5 6.5t-45 19t-37 30t-29.5 38.5l2 -77h-39l-23 186l31 5l24 -43q15 -26 31 -46.5t34.5 -35t39.5 -22t46 -7.5q23 0 41.5 6t31.5 16.5t19.5 26.5t6.5 35q0 22 -8.5 37.5t-23 26.5t-33 19t-45.5 16q-55 18 -76.5 25.5t-46 22.5 t-39 39t-14.5 58q0 44 24 69t70.5 50.5t69.5 47t23 61.5q0 23 -9.5 41.5t-28 31.5t-45 19.5t-59.5 6.5q-37 0 -66 -10.5t-49.5 -31t-31 -51t-10.5 -70.5v-476l55 -9l-1 -40h-229v40z" />
<glyph unicode="&#xe0;" horiz-adv-x="578" d="M265 576l-139 128v3h83l112 -128v-3h-56zM214 36q24 0 47.5 6t44 16.5t38 23.5t29.5 27v127q-71 -1 -121.5 -11.5t-79.5 -28.5t-42 -39.5t-13 -45.5q0 -18 7.5 -32t20.5 -23.5t30.5 -14.5t38.5 -5v0zM260 512q49 0 85 -12.5t58.5 -36t33 -56.5t10.5 -75v-211 q0 -22 3 -36.5t8.5 -23t14 -12.5t20.5 -4q7 0 13.5 2t11.5 5.5t8.5 9t6.5 11.5l23 -11q-5 -17 -12.5 -29.5t-19 -21.5t-26 -13.5t-32.5 -4.5q-17 0 -31.5 4.5t-26 12.5t-19.5 20.5t-12 28.5q-14 -17 -32.5 -31.5t-41 -25.5t-49.5 -17t-56 -6q-33 0 -61 9t-48.5 26t-32 41 t-11.5 54q0 44 23 77.5t66 56t103.5 34t135.5 11.5v48q0 30 -8 53t-23 38t-36.5 22.5t-49.5 7.5q-21 0 -37 -3t-28 -10t-21.5 -17t-17.5 -24q-1 -3 -7 -15t-10.5 -18.5t-11.5 -10.5t-17 -4q-8 0 -15.5 3t-12.5 8t-8 12t-3 15q0 5 1.5 12.5t6 17t13 20.5t21.5 22 q14 12 30.5 20.5t35 14.5t40 9t45.5 3v0z" />
<glyph unicode="&#xe1;" horiz-adv-x="578" d="M393 704l-139 -128h-58v3l112 128h85v-3zM214 36q24 0 47.5 6t44 16.5t38 23.5t29.5 27v127q-71 -1 -121.5 -11.5t-79.5 -28.5t-42 -39.5t-13 -45.5q0 -18 7.5 -32t20.5 -23.5t30.5 -14.5t38.5 -5v0zM260 512q49 0 85 -12.5t58.5 -36t33 -56.5t10.5 -75v-211 q0 -22 3 -36.5t8.5 -23t14 -12.5t20.5 -4q7 0 13.5 2t11.5 5.5t8.5 9t6.5 11.5l23 -11q-5 -17 -12.5 -29.5t-19 -21.5t-26 -13.5t-32.5 -4.5q-17 0 -31.5 4.5t-26 12.5t-19.5 20.5t-12 28.5q-14 -17 -32.5 -31.5t-41 -25.5t-49.5 -17t-56 -6q-33 0 -61 9t-48.5 26t-32 41 t-11.5 54q0 44 23 77.5t66 56t103.5 34t135.5 11.5v48q0 30 -8 53t-23 38t-36.5 22.5t-49.5 7.5q-21 0 -37 -3t-28 -10t-21.5 -17t-17.5 -24q-1 -3 -7 -15t-10.5 -18.5t-11.5 -10.5t-17 -4q-8 0 -15.5 3t-12.5 8t-8 12t-3 15q0 5 1.5 12.5t6 17t13 20.5t21.5 22 q14 12 30.5 20.5t35 14.5t40 9t45.5 3v0z" />
<glyph unicode="&#xe2;" horiz-adv-x="578" d="M353 576l-97 87l-95 -87h-64v3l135 129h51l135 -129v-3h-65zM214 36q24 0 47.5 6t44 16.5t38 23.5t29.5 27v127q-71 -1 -121.5 -11.5t-79.5 -28.5t-42 -39.5t-13 -45.5q0 -18 7.5 -32t20.5 -23.5t30.5 -14.5t38.5 -5v0zM260 512q49 0 85 -12.5t58.5 -36t33 -56.5 t10.5 -75v-211q0 -22 3 -36.5t8.5 -23t14 -12.5t20.5 -4q7 0 13.5 2t11.5 5.5t8.5 9t6.5 11.5l23 -11q-5 -17 -12.5 -29.5t-19 -21.5t-26 -13.5t-32.5 -4.5q-17 0 -31.5 4.5t-26 12.5t-19.5 20.5t-12 28.5q-14 -17 -32.5 -31.5t-41 -25.5t-49.5 -17t-56 -6q-33 0 -61 9 t-48.5 26t-32 41t-11.5 54q0 44 23 77.5t66 56t103.5 34t135.5 11.5v48q0 30 -8 53t-23 38t-36.5 22.5t-49.5 7.5q-21 0 -37 -3t-28 -10t-21.5 -17t-17.5 -24q-1 -3 -7 -15t-10.5 -18.5t-11.5 -10.5t-17 -4q-8 0 -15.5 3t-12.5 8t-8 12t-3 15q0 5 1.5 12.5t6 17t13 20.5 t21.5 22q14 12 30.5 20.5t35 14.5t40 9t45.5 3v0z" />
<glyph unicode="&#xe3;" horiz-adv-x="578" d="M141 595h-48q0 24 7 43t19 31.5t29 18.5t36 6t37 -8t41.5 -23.5t38 -23t30.5 -7.5q9 0 16.5 4t13.5 11t9 17t3 22h48q0 -27 -7 -46t-19.5 -31t-28 -17.5t-32.5 -5.5q-20 0 -38 8t-42.5 24t-38 23t-28.5 7q-10 0 -18.5 -3.5t-14.5 -11t-9.5 -17t-3.5 -21.5v0zM214 36 q24 0 47.5 6t44 16.5t38 23.5t29.5 27v127q-71 -1 -121.5 -11.5t-79.5 -28.5t-42 -39.5t-13 -45.5q0 -18 7.5 -32t20.5 -23.5t30.5 -14.5t38.5 -5v0zM260 512q49 0 85 -12.5t58.5 -36t33 -56.5t10.5 -75v-211q0 -22 3 -36.5t8.5 -23t14 -12.5t20.5 -4q7 0 13.5 2t11.5 5.5 t8.5 9t6.5 11.5l23 -11q-5 -17 -12.5 -29.5t-19 -21.5t-26 -13.5t-32.5 -4.5q-17 0 -31.5 4.5t-26 12.5t-19.5 20.5t-12 28.5q-14 -17 -32.5 -31.5t-41 -25.5t-49.5 -17t-56 -6q-33 0 -61 9t-48.5 26t-32 41t-11.5 54q0 44 23 77.5t66 56t103.5 34t135.5 11.5v48q0 30 -8 53 t-23 38t-36.5 22.5t-49.5 7.5q-21 0 -37 -3t-28 -10t-21.5 -17t-17.5 -24q-1 -3 -7 -15t-10.5 -18.5t-11.5 -10.5t-17 -4q-8 0 -15.5 3t-12.5 8t-8 12t-3 15q0 5 1.5 12.5t6 17t13 20.5t21.5 22q14 12 30.5 20.5t35 14.5t40 9t45.5 3v0z" />
<glyph unicode="&#xe4;" horiz-adv-x="578" d="M292 644q0 11 4 21t11.5 17.5t17.5 11.5t21 4t21 -4t17.5 -11.5t12 -17.5t4.5 -21t-4.5 -21t-12 -17.5t-17.5 -11.5t-21 -4t-21 4t-17.5 11.5t-11.5 17.5t-4 21v0zM113 644q0 11 4 21t11.5 17.5t17.5 11.5t21 4t21 -4t17.5 -11.5t12 -17.5t4.5 -21t-4.5 -21t-12 -17.5 t-17.5 -11.5t-21 -4t-21 4t-17.5 11.5t-11.5 17.5t-4 21v0zM214 36q24 0 47.5 6t44 16.5t38 23.5t29.5 27v127q-71 -1 -121.5 -11.5t-79.5 -28.5t-42 -39.5t-13 -45.5q0 -18 7.5 -32t20.5 -23.5t30.5 -14.5t38.5 -5v0zM260 512q49 0 85 -12.5t58.5 -36t33 -56.5t10.5 -75 v-211q0 -22 3 -36.5t8.5 -23t14 -12.5t20.5 -4q7 0 13.5 2t11.5 5.5t8.5 9t6.5 11.5l23 -11q-5 -17 -12.5 -29.5t-19 -21.5t-26 -13.5t-32.5 -4.5q-17 0 -31.5 4.5t-26 12.5t-19.5 20.5t-12 28.5q-14 -17 -32.5 -31.5t-41 -25.5t-49.5 -17t-56 -6q-33 0 -61 9t-48.5 26 t-32 41t-11.5 54q0 44 23 77.5t66 56t103.5 34t135.5 11.5v48q0 30 -8 53t-23 38t-36.5 22.5t-49.5 7.5q-21 0 -37 -3t-28 -10t-21.5 -17t-17.5 -24q-1 -3 -7 -15t-10.5 -18.5t-11.5 -10.5t-17 -4q-8 0 -15.5 3t-12.5 8t-8 12t-3 15q0 5 1.5 12.5t6 17t13 20.5t21.5 22 q14 12 30.5 20.5t35 14.5t40 9t45.5 3v0z" />
<glyph unicode="&#xe5;" horiz-adv-x="578" d="M257 743q20 0 37 -7t29.5 -19t19.5 -28.5t7 -35.5q0 -20 -7 -36.5t-19.5 -29t-29.5 -19.5t-37 -7t-37 7t-29.5 19.5t-19.5 29t-7 36.5q0 19 7 35.5t19.5 28.5t29.5 19t37 7v0zM257 711q-12 0 -22 -4.5t-17 -12.5t-11 -18.5t-4 -22.5q0 -13 4 -23.5t11 -18.5t17 -12.5 t22 -4.5t22 4.5t17 12.5t11 18.5t4 23.5q0 12 -4 22.5t-11 18.5t-17 12.5t-22 4.5v0zM214 36q24 0 47.5 6t44 16.5t38 23.5t29.5 27v127q-71 -1 -121.5 -11.5t-79.5 -28.5t-42 -39.5t-13 -45.5q0 -18 7.5 -32t20.5 -23.5t30.5 -14.5t38.5 -5v0zM260 512q49 0 85 -12.5 t58.5 -36t33 -56.5t10.5 -75v-211q0 -22 3 -36.5t8.5 -23t14 -12.5t20.5 -4q7 0 13.5 2t11.5 5.5t8.5 9t6.5 11.5l23 -11q-5 -17 -12.5 -29.5t-19 -21.5t-26 -13.5t-32.5 -4.5q-17 0 -31.5 4.5t-26 12.5t-19.5 20.5t-12 28.5q-14 -17 -32.5 -31.5t-41 -25.5t-49.5 -17 t-56 -6q-33 0 -61 9t-48.5 26t-32 41t-11.5 54q0 44 23 77.5t66 56t103.5 34t135.5 11.5v48q0 30 -8 53t-23 38t-36.5 22.5t-49.5 7.5q-21 0 -37 -3t-28 -10t-21.5 -17t-17.5 -24q-1 -3 -7 -15t-10.5 -18.5t-11.5 -10.5t-17 -4q-8 0 -15.5 3t-12.5 8t-8 12t-3 15 q0 5 1.5 12.5t6 17t13 20.5t21.5 22q14 12 30.5 20.5t35 14.5t40 9t45.5 3v0z" />
<glyph unicode="&#xe6;" horiz-adv-x="879" d="M624 35q28 0 51.5 6t42 17.5t33 28.5t24.5 39l42 -16q-10 -30 -27 -54t-42 -41t-58 -26.5t-74 -9.5q-32 0 -61 6.5t-54 19t-46 30.5t-37 41q-15 -19 -35 -36t-45.5 -31t-57 -22t-65.5 -8q-36 0 -66.5 9t-53 26t-35 42t-12.5 56q0 44 22.5 78t64.5 57t101.5 34.5 t133.5 12.5v39q0 30 -7 53t-21.5 39t-36 24t-50.5 8q-16 0 -31 -3t-28 -9.5t-24 -17.5t-19 -28q-13 -26 -17.5 -31.5t-11 -9t-15.5 -3.5t-16 3t-12.5 8t-8 12t-2.5 15q0 17 11.5 37.5t35 39t60 30.5t84.5 12q31 0 56.5 -5.5t46.5 -17t36 -29t24 -40.5q15 22 34.5 39.5t43 29 t50 17.5t55.5 6q52 0 93.5 -19.5t69.5 -52.5t42 -75t14 -86v-8v-10t-0.5 -11.5t-0.5 -8.5h-386v-2q1 -47 13.5 -84.5t36 -64.5t58 -41t77.5 -14v0zM607 456q-33 0 -61 -11.5t-49.5 -32.5t-35 -51t-18.5 -67h313q-1 40 -13.5 70.5t-34 51t-47.5 30.5t-54 10v0zM226 36 q26 0 51.5 6.5t47.5 17.5t40 25t31 29q-6 14 -11 28.5t-8.5 30.5t-5 33t-1.5 35q-64 0 -111.5 -10t-78 -27t-45.5 -39.5t-15 -47.5q0 -19 8 -34.5t22.5 -26t33.5 -15.5t42 -5v0z" />
<glyph unicode="&#xe7;" horiz-adv-x="543" d="M179 -166l28 26q8 -12 16 -21t18 -14.5t22 -8.5t26 -3q13 0 25 3t21.5 9t14.5 15.5t5 21.5q0 13 -6 23t-18 16t-29.5 7.5t-39.5 -3.5l-11 9l25 66q-52 3 -94 23.5t-72 55.5t-46 82t-16 103q0 60 17.5 109.5t50 85t77.5 54.5t100 19q38 0 68.5 -8t54 -22.5t40 -33 t28.5 -39.5q3 -6 5.5 -12t4.5 -12t3 -11t1 -10q0 -8 -3 -15.5t-7.5 -13t-11.5 -8.5t-14 -3q-11 0 -18 3.5t-11.5 10t-14.5 35.5q-7 20 -19 35t-28 25.5t-35 15.5t-40 5q-40 0 -72.5 -14.5t-56 -42.5t-35.5 -66.5t-12 -86.5q0 -47 12.5 -86t36 -66.5t58 -42.5t77.5 -15 q29 0 53.5 7t44.5 21t35 34t26 46l42 -16q-11 -32 -27.5 -57.5t-40 -44.5t-53 -30t-65.5 -14l-16 -41q20 2 38.5 -3t33 -15t23 -24.5t8.5 -33.5q0 -21 -9 -37.5t-24.5 -27.5t-36.5 -17t-44 -6q-17 0 -33 3.5t-31 10.5t-27.5 18t-21.5 27v0z" />
<glyph unicode="&#xe8;" horiz-adv-x="558" d="M299 576l-139 128v3h83l112 -128v-3h-56zM305 35q28 0 51.5 6t42 17.5t33 28.5t24.5 39l42 -16q-10 -30 -27 -54t-42 -41t-58.5 -26.5t-74.5 -9.5q-55 0 -101 19t-79 55t-50.5 85t-17.5 107t17 107.5t49 85t76 55t97 19.5q52 0 93.5 -19t69.5 -51.5t42 -74t14 -85.5v-9 v-9t-0.5 -10t-0.5 -10h-385v-5q0 -47 12.5 -84.5t36 -64.5t58 -41t78.5 -14v0zM287 456q-33 0 -60.5 -11t-48.5 -32t-34.5 -50.5t-19.5 -65.5h313q-1 40 -14 70t-34 50t-47.5 29.5t-54.5 9.5v0z" />
<glyph unicode="&#xe9;" horiz-adv-x="558" d="M427 704l-139 -128h-58v3l112 128h85v-3zM305 35q28 0 51.5 6t42 17.5t33 28.5t24.5 39l42 -16q-10 -30 -27 -54t-42 -41t-58.5 -26.5t-74.5 -9.5q-55 0 -101 19t-79 55t-50.5 85t-17.5 107t17 107.5t49 85t76 55t97 19.5q52 0 93.5 -19t69.5 -51.5t42 -74t14 -85.5v-9 v-9t-0.5 -10t-0.5 -10h-385v-5q0 -47 12.5 -84.5t36 -64.5t58 -41t78.5 -14v0zM287 456q-33 0 -60.5 -11t-48.5 -32t-34.5 -50.5t-19.5 -65.5h313q-1 40 -14 70t-34 50t-47.5 29.5t-54.5 9.5v0z" />
<glyph unicode="&#xea;" horiz-adv-x="558" d="M387 576l-97 87l-95 -87h-64v3l135 129h51l135 -129v-3h-65zM305 35q28 0 51.5 6t42 17.5t33 28.5t24.5 39l42 -16q-10 -30 -27 -54t-42 -41t-58.5 -26.5t-74.5 -9.5q-55 0 -101 19t-79 55t-50.5 85t-17.5 107t17 107.5t49 85t76 55t97 19.5q52 0 93.5 -19t69.5 -51.5 t42 -74t14 -85.5v-9v-9t-0.5 -10t-0.5 -10h-385v-5q0 -47 12.5 -84.5t36 -64.5t58 -41t78.5 -14v0zM287 456q-33 0 -60.5 -11t-48.5 -32t-34.5 -50.5t-19.5 -65.5h313q-1 40 -14 70t-34 50t-47.5 29.5t-54.5 9.5v0z" />
<glyph unicode="&#xeb;" horiz-adv-x="558" d="M326 644q0 11 4 21t11.5 17.5t17.5 11.5t21 4t21 -4t17.5 -11.5t12 -17.5t4.5 -21t-4.5 -21t-12 -17.5t-17.5 -11.5t-21 -4t-21 4t-17.5 11.5t-11.5 17.5t-4 21v0zM147 644q0 11 4 21t11.5 17.5t17.5 11.5t21 4t21 -4t17.5 -11.5t12 -17.5t4.5 -21t-4.5 -21t-12 -17.5 t-17.5 -11.5t-21 -4t-21 4t-17.5 11.5t-11.5 17.5t-4 21v0zM305 35q28 0 51.5 6t42 17.5t33 28.5t24.5 39l42 -16q-10 -30 -27 -54t-42 -41t-58.5 -26.5t-74.5 -9.5q-55 0 -101 19t-79 55t-50.5 85t-17.5 107t17 107.5t49 85t76 55t97 19.5q52 0 93.5 -19t69.5 -51.5t42 -74 t14 -85.5v-9v-9t-0.5 -10t-0.5 -10h-385v-5q0 -47 12.5 -84.5t36 -64.5t58 -41t78.5 -14v0zM287 456q-33 0 -60.5 -11t-48.5 -32t-34.5 -50.5t-19.5 -65.5h313q-1 40 -14 70t-34 50t-47.5 29.5t-54.5 9.5v0z" />
<glyph unicode="&#xec;" horiz-adv-x="375" d="M201 576l-139 128v3h83l112 -128v-3h-56zM43 40l113 12v369q-15 -6 -32 -9.5t-34.5 -3.5t-34.5 2t-33 6v31q24 -1 47 2.5t44.5 11.5t41 21t35.5 30l41 -9v-451l109 -12v-40h-297v40z" />
<glyph unicode="&#xed;" horiz-adv-x="375" d="M329 704l-139 -128h-58v3l112 128h85v-3zM43 40l113 12v369q-15 -6 -32 -9.5t-34.5 -3.5t-34.5 2t-33 6v31q24 -1 47 2.5t44.5 11.5t41 21t35.5 30l41 -9v-451l109 -12v-40h-297v40z" />
<glyph unicode="&#xee;" horiz-adv-x="375" d="M289 576l-97 87l-95 -87h-64v3l135 129h51l135 -129v-3h-65zM43 40l113 12v369q-15 -6 -32 -9.5t-34.5 -3.5t-34.5 2t-33 6v31q24 -1 47 2.5t44.5 11.5t41 21t35.5 30l41 -9v-451l109 -12v-40h-297v40z" />
<glyph unicode="&#xef;" horiz-adv-x="375" d="M228 644q0 11 4 21t11.5 17.5t17.5 11.5t21 4t21 -4t17.5 -11.5t12 -17.5t4.5 -21t-4.5 -21t-12 -17.5t-17.5 -11.5t-21 -4t-21 4t-17.5 11.5t-11.5 17.5t-4 21v0zM49 644q0 11 4 21t11.5 17.5t17.5 11.5t21 4t21 -4t17.5 -11.5t12 -17.5t4.5 -21t-4.5 -21t-12 -17.5 t-17.5 -11.5t-21 -4t-21 4t-17.5 11.5t-11.5 17.5t-4 21v0zM43 40l113 12v369q-15 -6 -32 -9.5t-34.5 -3.5t-34.5 2t-33 6v31q24 -1 47 2.5t44.5 11.5t41 21t35.5 30l41 -9v-451l109 -12v-40h-297v40z" />
<glyph unicode="&#xf0;" horiz-adv-x="601" d="M222 565l111 72q-17 13 -35.5 23t-39.5 18.5t-44 14.5t-49 9l14 48q30 -3 58 -8.5t54.5 -15t51 -22.5t46.5 -30l111 73l15 -23l-104 -68q32 -29 56.5 -65t42 -81t26.5 -98.5t9 -115.5v-10q0 -68 -18 -125t-51 -97.5t-79 -62.5t-101 -22t-101 19t-79 54t-50.5 83.5 t-17.5 106.5q0 57 18.5 105.5t52 83.5t79.5 54t100 19q26 0 49.5 -5t43 -14.5t36 -22.5t30.5 -30q-7 28 -16.5 54t-22 49.5t-28.5 44.5t-35 39l-119 -78zM473 279q0 9 -0.5 17.5t-1 17.5t-1 17t-1.5 20q-13 25 -30.5 44t-38.5 31.5t-45 18.5t-52 6q-38 0 -71.5 -14.5 t-58.5 -42t-38.5 -66t-13.5 -84.5q0 -47 12.5 -86t35.5 -66.5t55.5 -42t72.5 -14.5t72.5 16.5t55.5 48t35.5 77t12.5 102.5v0z" />
<glyph unicode="&#xf1;" horiz-adv-x="728" d="M283 595h-48q0 24 7 43t19 31.5t29 18.5t36 6t37 -8t41.5 -23.5t38 -23t30.5 -7.5q9 0 16.5 4t13.5 11t9 17t3 22h48q0 -27 -7 -46t-19.5 -31t-28 -17.5t-32.5 -5.5q-20 0 -38 8t-42.5 24t-38 23t-28.5 7q-10 0 -18.5 -3.5t-14.5 -11t-9.5 -17t-3.5 -21.5v0zM411 38 l105 13v273q0 30 -7.5 53t-22 39.5t-35.5 25t-48 8.5q-26 0 -51 -8t-47 -22.5t-41 -34.5t-33 -44v-290l103 -13v-38h-291v40l113 12v369q-15 -6 -32 -9.5t-34.5 -3.5t-34.5 2t-33 6v31q25 -1 48 2.5t44 12t39.5 21t34.5 29.5l39 -8v-107q17 26 38.5 47t47 36t54.5 23.5 t60 8.5q42 0 73 -13.5t51.5 -37.5t30 -56t9.5 -69v-284l102 -12v-40h-282v38z" />
<glyph unicode="&#xf2;" horiz-adv-x="595" d="M305 576l-139 128v3h83l112 -128v-3h-56zM48 246q0 58 17.5 107t51 85t79.5 55t102 19q55 0 101 -19t79 -55t50.5 -85t17.5 -107t-17.5 -107.5t-51 -85t-79.5 -55t-102 -19.5q-55 0 -101 19.5t-79 55t-50.5 85t-17.5 107.5v0zM122 245q0 -47 12 -86t35 -66.5t55.5 -42.5 t72.5 -15t72.5 14.5t56 42.5t35.5 66.5t12 86.5t-12 87t-35.5 66.5t-56 42.5t-72.5 15t-72.5 -14.5t-55.5 -42.5t-35 -67t-12 -87v0z" />
<glyph unicode="&#xf3;" horiz-adv-x="595" d="M433 704l-139 -128h-58v3l112 128h85v-3zM48 246q0 58 17.5 107t51 85t79.5 55t102 19q55 0 101 -19t79 -55t50.5 -85t17.5 -107t-17.5 -107.5t-51 -85t-79.5 -55t-102 -19.5q-55 0 -101 19.5t-79 55t-50.5 85t-17.5 107.5v0zM122 245q0 -47 12 -86t35 -66.5t55.5 -42.5 t72.5 -15t72.5 14.5t56 42.5t35.5 66.5t12 86.5t-12 87t-35.5 66.5t-56 42.5t-72.5 15t-72.5 -14.5t-55.5 -42.5t-35 -67t-12 -87v0z" />
<glyph unicode="&#xf4;" horiz-adv-x="595" d="M393 576l-97 87l-95 -87h-64v3l135 129h51l135 -129v-3h-65zM48 246q0 58 17.5 107t51 85t79.5 55t102 19q55 0 101 -19t79 -55t50.5 -85t17.5 -107t-17.5 -107.5t-51 -85t-79.5 -55t-102 -19.5q-55 0 -101 19.5t-79 55t-50.5 85t-17.5 107.5v0zM122 245q0 -47 12 -86 t35 -66.5t55.5 -42.5t72.5 -15t72.5 14.5t56 42.5t35.5 66.5t12 86.5t-12 87t-35.5 66.5t-56 42.5t-72.5 15t-72.5 -14.5t-55.5 -42.5t-35 -67t-12 -87v0z" />
<glyph unicode="&#xf5;" horiz-adv-x="595" d="M181 595h-48q0 24 7 43t19 31.5t29 18.5t36 6t37 -8t41.5 -23.5t38 -23t30.5 -7.5q9 0 16.5 4t13.5 11t9 17t3 22h48q0 -27 -7 -46t-19.5 -31t-28 -17.5t-32.5 -5.5q-20 0 -38 8t-42.5 24t-38 23t-28.5 7q-10 0 -18.5 -3.5t-14.5 -11t-9.5 -17t-3.5 -21.5v0zM48 246 q0 58 17.5 107t51 85t79.5 55t102 19q55 0 101 -19t79 -55t50.5 -85t17.5 -107t-17.5 -107.5t-51 -85t-79.5 -55t-102 -19.5q-55 0 -101 19.5t-79 55t-50.5 85t-17.5 107.5v0zM122 245q0 -47 12 -86t35 -66.5t55.5 -42.5t72.5 -15t72.5 14.5t56 42.5t35.5 66.5t12 86.5 t-12 87t-35.5 66.5t-56 42.5t-72.5 15t-72.5 -14.5t-55.5 -42.5t-35 -67t-12 -87v0z" />
<glyph unicode="&#xf6;" horiz-adv-x="595" d="M333 644q0 11 4 21t11.5 17.5t17.5 11.5t21 4t21 -4t17.5 -11.5t12 -17.5t4.5 -21t-4.5 -21t-12 -17.5t-17.5 -11.5t-21 -4t-21 4t-17.5 11.5t-11.5 17.5t-4 21v0zM154 644q0 11 4 21t11.5 17.5t17.5 11.5t21 4t21 -4t17.5 -11.5t12 -17.5t4.5 -21t-4.5 -21t-12 -17.5 t-17.5 -11.5t-21 -4t-21 4t-17.5 11.5t-11.5 17.5t-4 21v0zM48 246q0 58 17.5 107t51 85t79.5 55t102 19q55 0 101 -19t79 -55t50.5 -85t17.5 -107t-17.5 -107.5t-51 -85t-79.5 -55t-102 -19.5q-55 0 -101 19.5t-79 55t-50.5 85t-17.5 107.5v0zM122 245q0 -47 12 -86 t35 -66.5t55.5 -42.5t72.5 -15t72.5 14.5t56 42.5t35.5 66.5t12 86.5t-12 87t-35.5 66.5t-56 42.5t-72.5 15t-72.5 -14.5t-55.5 -42.5t-35 -67t-12 -87v0z" />
<glyph unicode="&#xf7;" horiz-adv-x="473" d="M182 450q0 11 4 20.5t11.5 16.5t17 11t20.5 4t21 -4t17.5 -11t11.5 -16.5t4 -20.5t-4 -20.5t-11.5 -16.5t-17.5 -11t-21 -4t-20.5 4t-17 11t-11.5 16.5t-4 20.5v0zM50 284v52h373v-52h-373zM184 169q0 11 4 20.5t11.5 16.5t17.5 11t21 4t20.5 -4t17 -11t11.5 -16.5 t4 -20.5t-4 -20.5t-11.5 -16.5t-17 -11t-20.5 -4t-21 4t-17.5 11t-11.5 16.5t-4 20.5v0z" />
<glyph unicode="&#xf8;" horiz-adv-x="595" d="M296 -21q-25 0 -48 4t-44 12t-40 19t-35 26l-40 -40h-64l74 74q-12 17 -21.5 36.5t-16 41t-10 45.5t-3.5 49q0 58 17.5 107t51 85t79.5 55t102 19q26 0 50 -4.5t46 -13t41 -20.5t35 -28l43 44h65l-79 -79q11 -17 20 -35.5t15 -39.5t9 -43.5t3 -46.5q0 -58 -17.5 -107.5 t-51 -85t-79.5 -55t-102 -19.5v0zM122 245q0 -18 1.5 -34.5t5 -31.5t8.5 -29t12 -26l275 276q-12 14 -25.5 24t-29.5 17.5t-34 11t-38 3.5q-40 0 -72.5 -14.5t-55.5 -42.5t-35 -67t-12 -87v0zM297 35q40 0 72.5 14.5t56 42.5t35.5 66.5t12 86.5q0 17 -1.5 32.5t-4.5 30 t-7.5 28t-10.5 25.5l-274 -275q11 -12 24.5 -21.5t29 -16t32.5 -10t36 -3.5v0z" />
<glyph unicode="&#xf9;" horiz-adv-x="653" d="M323 576l-139 128v3h83l112 -128v-3h-56zM272 -21q-43 0 -75 13.5t-51.5 37.5t-29 56t-9.5 69v262q-14 -5 -28.5 -7t-30 -2t-30 2t-28.5 6v31q23 -1 43.5 2.5t39.5 11.5t36.5 21t34.5 30l37 -8v-341q0 -28 7.5 -51t22 -39t36 -24.5t48.5 -8.5q26 0 50.5 7t46.5 20.5 t40.5 31.5t33.5 40v281q-15 -6 -31.5 -8.5t-33.5 -3t-33.5 1.5t-31.5 6v31q24 -1 46.5 2.5t44 11.5t40.5 21t36 30l38 -8v-463h101v-39l-168 -13l-3 2l-2 98q-16 -25 -37.5 -45t-47 -34.5t-54 -22.5t-58.5 -8v0z" />
<glyph unicode="&#xfa;" horiz-adv-x="653" d="M451 704l-139 -128h-58v3l112 128h85v-3zM272 -21q-43 0 -75 13.5t-51.5 37.5t-29 56t-9.5 69v262q-14 -5 -28.5 -7t-30 -2t-30 2t-28.5 6v31q23 -1 43.5 2.5t39.5 11.5t36.5 21t34.5 30l37 -8v-341q0 -28 7.5 -51t22 -39t36 -24.5t48.5 -8.5q26 0 50.5 7t46.5 20.5 t40.5 31.5t33.5 40v281q-15 -6 -31.5 -8.5t-33.5 -3t-33.5 1.5t-31.5 6v31q24 -1 46.5 2.5t44 11.5t40.5 21t36 30l38 -8v-463h101v-39l-168 -13l-3 2l-2 98q-16 -25 -37.5 -45t-47 -34.5t-54 -22.5t-58.5 -8v0z" />
<glyph unicode="&#xfb;" horiz-adv-x="653" d="M411 576l-97 87l-95 -87h-64v3l135 129h51l135 -129v-3h-65zM272 -21q-43 0 -75 13.5t-51.5 37.5t-29 56t-9.5 69v262q-14 -5 -28.5 -7t-30 -2t-30 2t-28.5 6v31q23 -1 43.5 2.5t39.5 11.5t36.5 21t34.5 30l37 -8v-341q0 -28 7.5 -51t22 -39t36 -24.5t48.5 -8.5 q26 0 50.5 7t46.5 20.5t40.5 31.5t33.5 40v281q-15 -6 -31.5 -8.5t-33.5 -3t-33.5 1.5t-31.5 6v31q24 -1 46.5 2.5t44 11.5t40.5 21t36 30l38 -8v-463h101v-39l-168 -13l-3 2l-2 98q-16 -25 -37.5 -45t-47 -34.5t-54 -22.5t-58.5 -8v0z" />
<glyph unicode="&#xfc;" horiz-adv-x="653" d="M350 644q0 11 4 21t11.5 17.5t17.5 11.5t21 4t21 -4t17.5 -11.5t12 -17.5t4.5 -21t-4.5 -21t-12 -17.5t-17.5 -11.5t-21 -4t-21 4t-17.5 11.5t-11.5 17.5t-4 21v0zM171 644q0 11 4 21t11.5 17.5t17.5 11.5t21 4t21 -4t17.5 -11.5t12 -17.5t4.5 -21t-4.5 -21t-12 -17.5 t-17.5 -11.5t-21 -4t-21 4t-17.5 11.5t-11.5 17.5t-4 21v0zM272 -21q-43 0 -75 13.5t-51.5 37.5t-29 56t-9.5 69v262q-14 -5 -28.5 -7t-30 -2t-30 2t-28.5 6v31q23 -1 43.5 2.5t39.5 11.5t36.5 21t34.5 30l37 -8v-341q0 -28 7.5 -51t22 -39t36 -24.5t48.5 -8.5q26 0 50.5 7 t46.5 20.5t40.5 31.5t33.5 40v281q-15 -6 -31.5 -8.5t-33.5 -3t-33.5 1.5t-31.5 6v31q24 -1 46.5 2.5t44 11.5t40.5 21t36 30l38 -8v-463h101v-39l-168 -13l-3 2l-2 98q-16 -25 -37.5 -45t-47 -34.5t-54 -22.5t-58.5 -8v0z" />
<glyph unicode="&#xfd;" horiz-adv-x="620" d="M443 704l-139 -128h-58v3l112 128h85v-3zM260 -33l17 42l-188 432l-75 9v40h253v-39l-102 -10l149 -352h1l142 351l-112 11v39h260v-40l-77 -9l-192 -461q-25 -60 -50 -101t-51.5 -65t-56 -35t-64.5 -11q-26 0 -47.5 5t-37 14t-23.5 21t-8 25q0 9 3 16.5t8 12.5t12 7.5 t14 2.5q12 0 19 -5t18.5 -16t22.5 -17t28 -6t34 7t34 23t34.5 43t34.5 66v0z" />
<glyph unicode="&#xfe;" horiz-adv-x="598" d="M302 35q39 0 71 15t55 43t35.5 67.5t12.5 86.5t-11 85.5t-32 65.5t-51.5 41.5t-67.5 14.5q-26 0 -49 -7t-42 -20t-34 -31.5t-24 -40.5v-246q10 -18 24.5 -31.5t32.5 -23t38 -14.5t42 -5v0zM-16 -178l106 12v829q-15 -6 -32 -9.5t-34 -4t-33.5 1.5t-31.5 6v32 q25 -1 48 2.5t44 12t40.5 21t35.5 29.5l38 -8v-326q13 22 30 39t38 29t46 18t52 6q49 0 89.5 -19t69.5 -54t44 -83.5t15 -105.5q0 -59 -17.5 -109t-49 -86.5t-75 -56t-93.5 -19.5q-23 0 -44 4t-40 11.5t-35.5 19.5t-29.5 27v-207l111 -12v-40h-292v40z" />
<glyph unicode="&#xff;" horiz-adv-x="620" d="M342 644q0 11 4 21t11.5 17.5t17.5 11.5t21 4t21 -4t17.5 -11.5t12 -17.5t4.5 -21t-4.5 -21t-12 -17.5t-17.5 -11.5t-21 -4t-21 4t-17.5 11.5t-11.5 17.5t-4 21v0zM163 644q0 11 4 21t11.5 17.5t17.5 11.5t21 4t21 -4t17.5 -11.5t12 -17.5t4.5 -21t-4.5 -21t-12 -17.5 t-17.5 -11.5t-21 -4t-21 4t-17.5 11.5t-11.5 17.5t-4 21v0zM260 -33l17 42l-188 432l-75 9v40h253v-39l-102 -10l149 -352h1l142 351l-112 11v39h260v-40l-77 -9l-192 -461q-25 -60 -50 -101t-51.5 -65t-56 -35t-64.5 -11q-26 0 -47.5 5t-37 14t-23.5 21t-8 25q0 9 3 16.5 t8 12.5t12 7.5t14 2.5q12 0 19 -5t18.5 -16t22.5 -17t28 -6t34 7t34 23t34.5 43t34.5 66v0z" />
<glyph unicode="&#x131;" horiz-adv-x="375" d="M43 40l113 12v369q-15 -6 -32 -9.5t-34.5 -3.5t-34.5 2t-33 6v31q24 -1 47 2.5t44.5 11.5t41 21t35.5 30l41 -9v-451l109 -12v-40h-297v40z" />
<glyph unicode="&#x141;" horiz-adv-x="723" d="M43 690h362v-42l-143 -13v-265l233 129v-58l-233 -129v-258h318l82 220l39 -8l-58 -266h-600v42l139 12v214l-139 -76v57l139 77v309l-139 13v42z" />
<glyph unicode="&#x142;" horiz-adv-x="369" d="M43 40l105 12v231l-106 -79v60l106 78v321q-15 -6 -31.5 -9.5t-33.5 -4t-33.5 1.5t-31.5 6v32q24 -1 47 2.5t44 12t39.5 21t34.5 29.5l40 -8v-348l111 82v-59l-111 -83v-286l111 -12v-40h-291v40z" />
<glyph unicode="&#x152;" horiz-adv-x="1137" d="M131 344q0 -72 19.5 -129t54.5 -96t81 -59t99 -20t99 20t81 59t54.5 96t19.5 129t-19.5 129t-54.5 95.5t-81 58.5t-99 20t-99 -20t-81 -58.5t-54.5 -95.5t-19.5 -129v0zM1050 462l-87 174h-372q26 -21 47 -47t37 -58t26.5 -69t13.5 -78h133l18 120h40v-290h-40l-18 116 h-131q-1 -46 -10.5 -87t-25 -75.5t-37.5 -63t-49 -50.5h392l76 220l39 -8l-53 -266h-547q-14 -5 -28 -9t-29 -6.5t-30.5 -4t-31.5 -1.5q-69 0 -129.5 25t-106 72.5t-70.5 115.5t-25 152t25.5 152t71 115.5t106.5 72.5t131 25q14 0 28.5 -1.5t28.5 -3.5t27.5 -5.5t26.5 -8.5 h526l67 -217z" />
<glyph unicode="&#x153;" horiz-adv-x="984" d="M730 35q28 0 51.5 6t42 17.5t33 28.5t24.5 39l42 -16q-10 -30 -27 -54t-42 -41t-58 -26.5t-74 -9.5q-37 0 -69.5 8.5t-59.5 24.5t-48 39.5t-36 52.5q-15 -30 -36.5 -53t-48.5 -39t-59.5 -24.5t-68.5 -8.5q-55 0 -101 19.5t-79 55t-50.5 85t-17.5 107.5t17.5 107t51 85 t79.5 55t102 19q36 0 68 -8.5t59 -24.5t48 -39.5t36 -52.5q15 29 35.5 52t46.5 39.5t57 25t65 8.5q52 0 93.5 -19t69.5 -51.5t42 -74t14 -85.5v-7.5t-0.5 -12t-1 -11.5t-0.5 -7h-384q-1 -3 -1 -4v-1q1 -47 13.5 -84.5t36 -64.5t58 -41t77.5 -14v0zM713 456q-33 0 -60.5 -11 t-48.5 -32t-34.5 -50.5t-19.5 -65.5h312q-1 40 -13.5 70t-34 50t-47.5 29.5t-54 9.5v0zM120 245q0 -47 12.5 -86t35.5 -67t55.5 -43t72.5 -15t72.5 15t56 42.5t35.5 66.5t12 87t-12 87t-35.5 66.5t-56 42.5t-72.5 15t-72.5 -14.5t-55.5 -42.5t-35.5 -67t-12.5 -87v0z" />
<glyph unicode="&#x160;" horiz-adv-x="633" d="M143 898h65l96 -87l96 87h64v-3l-135 -129h-51l-135 129v3zM525 438l-33 71q-18 38 -40.5 65t-49.5 43.5t-56.5 24.5t-61.5 8q-31 0 -57 -7.5t-45 -22t-29.5 -36.5t-10.5 -50q0 -35 15.5 -60t42 -41.5t56.5 -27t75 -23.5q62 -18 101 -32t73 -37t54 -57.5t20 -84.5 q0 -43 -15 -78.5t-44 -61t-70.5 -39t-92.5 -13.5q-40 0 -75 9t-64 25t-52 39t-41 52l-2 -112h-41l-41 267l37 10l34 -65q23 -43 48 -74.5t53 -52t61 -30.5t72 -10q37 0 66.5 9t50 26.5t31 42t10.5 54.5q0 34 -13.5 57t-38 39t-56.5 27t-87 26q-49 13 -87.5 27.5t-74 38 t-57.5 60t-22 86.5q0 42 16 75.5t45 56.5t66.5 35t80.5 12q35 0 66 -8t57 -22t46 -33.5t35 -42.5l3 106h40l42 -262z" />
<glyph unicode="&#x161;" horiz-adv-x="509" d="M77 708h65l96 -87l96 87h64v-3l-135 -129h-51l-135 129v3zM446 323l-37 -7l-30 51q-14 24 -28.5 41t-31.5 28t-38 16.5t-46 5.5q-28 0 -49 -6.5t-34 -17.5t-19 -25.5t-6 -30.5q0 -22 12 -38.5t31.5 -27.5t41 -18t56.5 -16q47 -12 80 -24.5t58 -30.5t38.5 -43t13.5 -60 q0 -28 -11 -53.5t-33 -45.5t-55 -31t-74 -11q-30 0 -55.5 6t-47 17.5t-39.5 28.5t-33 39v-81h-40l-32 194l38 8l28 -47q18 -30 37 -51t40 -34.5t44 -20t49 -6.5t47.5 5.5t36 16.5t22.5 26.5t8 35.5q0 22 -10 38t-28.5 28t-44 21t-62.5 19q-36 9 -65 19.5t-57 28t-45.5 44.5 t-17.5 64q0 28 11.5 52.5t33 43t51.5 28.5t66 10q27 0 50 -5.5t42 -15t34 -23t27 -30.5l4 75h38z" />
<glyph unicode="&#x178;" horiz-adv-x="727" d="M398 834q0 11 4 21t11.5 17.5t17.5 11.5t21 4t21 -4t17.5 -11.5t12 -17.5t4.5 -21t-4.5 -21t-12 -17.5t-17.5 -11.5t-21 -4t-21 4t-17.5 11.5t-11.5 17.5t-4 21v0zM219 834q0 11 4 21t11.5 17.5t17.5 11.5t21 4t21 -4t17.5 -11.5t12 -17.5t4.5 -21t-4.5 -21t-12 -17.5 t-17.5 -11.5t-21 -4t-21 4t-17.5 11.5t-11.5 17.5t-4 21v0zM541 0h-356v42l139 12v206l-199 375l-105 13v42h289v-42l-106 -11l162 -316l162 315l-108 12v42h287v-42l-105 -13l-198 -377v-204l138 -12v-42z" />
<glyph unicode="&#x17d;" horiz-adv-x="636" d="M172 902h65l96 -87l96 87h64v-3l-135 -129h-51l-135 129v3zM552 0h-512v37l438 599h-319l-80 -185l-39 11l59 228h475v-40l-437 -596h352l85 209l38 -8z" />
<glyph unicode="&#x17e;" horiz-adv-x="535" d="M118 708h65l96 -87l96 87h64v-3l-135 -129h-51l-135 129v3zM454 0h-407v32l329 407h-229l-59 -116l-33 7l41 160h375v-34l-327 -405h258l58 140l33 -7z" />
<glyph unicode="&#x192;" horiz-adv-x="428" d="M28 328l102 14l13 88q6 39 18 71t31.5 55t47.5 36t65 13q25 0 47 -7.5t38 -19.5t25 -26.5t9 -28.5q0 -8 -2.5 -14.5t-7.5 -11.5t-11 -7.5t-13 -2.5q-16 0 -24 7t-18.5 22.5t-21 23t-29.5 7.5q-24 0 -39 -12.5t-23.5 -34t-12 -40.5t-12.5 -77l-6 -38h136l-8 -54h-137 l-52 -338q-7 -44 -19 -78t-31.5 -58t-48.5 -37t-69 -13q-17 0 -32.5 4t-27.5 11.5t-19 18.5t-7 25q0 7 2.5 13.5t7 11.5t10.5 8t12 3q9 0 15.5 -3.5t16.5 -11.5t18.5 -12t18.5 -4q17 0 30.5 7.5t23 23t16 38t10.5 52.5l52 339h-99z" />
<glyph unicode="&#x2c6;" horiz-adv-x="600" d="M395 576l-97 87l-95 -87h-64v3l135 129h51l135 -129v-3h-65z" />
<glyph unicode="&#x2c7;" horiz-adv-x="600" d="M139 708h65l96 -87l96 87h64v-3l-135 -129h-51l-135 129v3z" />
<glyph unicode="&#x2d8;" horiz-adv-x="600" d="M459 702q-1 -31 -12.5 -55.5t-32 -41t-49.5 -25t-66 -8.5t-66 8.5t-49 25t-31.5 41t-12.5 55.5h55q2 -21 9 -37.5t20 -28t31.5 -17t43.5 -5.5t44 5.5t32 17t20 28t9 37.5h55z" />
<glyph unicode="&#x2d9;" horiz-adv-x="600" d="M246 644q0 11 4 21t11.5 17.5t17.5 11.5t21 4t21 -4t17.5 -11.5t12 -17.5t4.5 -21t-4.5 -21t-12 -17.5t-17.5 -11.5t-21 -4t-21 4t-17.5 11.5t-11.5 17.5t-4 21v0z" />
<glyph unicode="&#x2da;" horiz-adv-x="600" d="M300 743q20 0 37 -7t29.5 -19t19.5 -28.5t7 -35.5q0 -20 -7 -36.5t-19.5 -29t-29.5 -19.5t-37 -7t-37 7t-29.5 19.5t-19.5 29t-7 36.5q0 19 7 35.5t19.5 28.5t29.5 19t37 7v0zM300 711q-12 0 -22 -4.5t-17 -12.5t-11 -18.5t-4 -22.5q0 -13 4 -23.5t11 -18.5t17 -12.5 t22 -4.5t22 4.5t17 12.5t11 18.5t4 23.5q0 12 -4 22.5t-11 18.5t-17 12.5t-22 4.5v0z" />
<glyph unicode="&#x2db;" horiz-adv-x="600" d="M342 25l4 -25q-20 -1 -37 -8.5t-29.5 -20.5t-19.5 -29t-7 -33t5.5 -29t14.5 -19t20.5 -10t24.5 -3q8 0 15.5 1t15.5 3.5t15 6t14 7.5l15 -39q-9 -6 -19 -10t-20.5 -7t-21.5 -4.5t-23 -1.5q-21 0 -40 5.5t-34 17.5t-23.5 30t-8.5 42q0 26 12 49.5t31.5 41.5t44.5 27t51 8 v0z" />
<glyph unicode="&#x2dc;" horiz-adv-x="600" d="M184 595h-48q0 24 7 43t19 31.5t29 18.5t36 6t37 -8t41.5 -23.5t38 -23t30.5 -7.5q9 0 16.5 4t13.5 11t9 17t3 22h48q0 -27 -7 -46t-19.5 -31t-28 -17.5t-32.5 -5.5q-20 0 -38 8t-42.5 24t-38 23t-28.5 7q-10 0 -18.5 -3.5t-14.5 -11t-9.5 -17t-3.5 -21.5v0z" />
<glyph unicode="&#x2dd;" horiz-adv-x="600" d="M443 704l-116 -128h-55v3l99 128h72v-3zM310 704l-99 -128h-52v3l84 128h67v-3z" />
<glyph unicode="&#x2000;" horiz-adv-x="466" />
<glyph unicode="&#x2001;" horiz-adv-x="933" />
<glyph unicode="&#x2002;" horiz-adv-x="466" />
<glyph unicode="&#x2003;" horiz-adv-x="933" />
<glyph unicode="&#x2004;" horiz-adv-x="311" />
<glyph unicode="&#x2005;" horiz-adv-x="233" />
<glyph unicode="&#x2006;" horiz-adv-x="155" />
<glyph unicode="&#x2007;" horiz-adv-x="155" />
<glyph unicode="&#x2008;" horiz-adv-x="116" />
<glyph unicode="&#x2009;" horiz-adv-x="186" />
<glyph unicode="&#x200a;" horiz-adv-x="51" />
<glyph unicode="&#x2010;" horiz-adv-x="373" d="M50 340h273v-55h-273v55z" />
<glyph unicode="&#x2011;" horiz-adv-x="373" d="M50 340h273v-55h-273v55z" />
<glyph unicode="&#x2012;" horiz-adv-x="373" d="M50 340h273v-55h-273v55z" />
<glyph unicode="&#x2013;" horiz-adv-x="470" d="M50 340h370v-55h-370v55z" />
<glyph unicode="&#x2014;" horiz-adv-x="959" d="M50 340h859v-55h-859v55z" />
<glyph unicode="&#x2018;" horiz-adv-x="220" d="M159 719q-11 -10 -20.5 -22.5t-16 -26t-10.5 -27t-5 -27.5q12 1 22.5 -2.5t18 -11t12 -17.5t4.5 -20q0 -11 -4 -20.5t-11.5 -16.5t-17 -11t-19.5 -4q-12 0 -21.5 4.5t-16.5 12.5t-11 19t-4 25q0 27 5.5 52t15.5 47t24.5 40t33.5 30z" />
<glyph unicode="&#x2019;" horiz-adv-x="220" d="M63 528q11 10 20.5 22.5t16 26t10.5 27t5 27.5q-12 -1 -22.5 2.5t-18 11t-12 17.5t-4.5 20q0 11 4 20.5t11.5 16.5t17 11t19.5 4q12 0 21.5 -4.5t16.5 -12.5t11 -19t4 -25q0 -27 -5.5 -52t-15.5 -47t-24.5 -40t-33.5 -30z" />
<glyph unicode="&#x201a;" horiz-adv-x="220" d="M63 -117q11 10 20.5 22.5t16 26t10.5 27t5 27.5q-12 -1 -22.5 2.5t-18 11t-12 17.5t-4.5 20q0 11 4 20.5t11.5 16.5t17 11t19.5 4q12 0 21.5 -4.5t16.5 -12.5t11 -19t4 -25q0 -27 -5.5 -52t-15.5 -47t-24.5 -40t-33.5 -30z" />
<glyph unicode="&#x201c;" horiz-adv-x="357" d="M294 719q-11 -10 -20.5 -22.5t-16 -26t-10.5 -27t-5 -27.5q12 1 22.5 -2.5t18 -11t12 -17.5t4.5 -20q0 -11 -4 -20.5t-11.5 -16.5t-17 -11t-19.5 -4q-12 0 -21.5 4.5t-16.5 12.5t-11 19t-4 25q0 27 5.5 52t15.5 47t24.5 40t33.5 30zM159 719q-11 -10 -20.5 -22.5t-16 -26 t-10.5 -27t-5 -27.5q12 1 22.5 -2.5t18 -11t12 -17.5t4.5 -20q0 -11 -4 -20.5t-11.5 -16.5t-17 -11t-19.5 -4q-12 0 -21.5 4.5t-16.5 12.5t-11 19t-4 25q0 27 5.5 52t15.5 47t24.5 40t33.5 30z" />
<glyph unicode="&#x201d;" horiz-adv-x="357" d="M199 528q11 10 20.5 22.5t16 26t10.5 27t5 27.5q-12 -1 -22.5 2.5t-18 11t-12 17.5t-4.5 20q0 11 4 20.5t11.5 16.5t17 11t19.5 4q12 0 21.5 -4.5t16.5 -12.5t11 -19t4 -25q0 -27 -5.5 -52t-15.5 -47t-24.5 -40t-33.5 -30zM63 528q11 10 20.5 22.5t16 26t10.5 27t5 27.5 q-12 -1 -22.5 2.5t-18 11t-12 17.5t-4.5 20q0 11 4 20.5t11.5 16.5t17 11t19.5 4q12 0 21.5 -4.5t16.5 -12.5t11 -19t4 -25q0 -27 -5.5 -52t-15.5 -47t-24.5 -40t-33.5 -30z" />
<glyph unicode="&#x201e;" horiz-adv-x="357" d="M199 -117q11 10 20.5 22.5t16 26t10.5 27t5 27.5q-12 -1 -22.5 2.5t-18 11t-12 17.5t-4.5 20q0 11 4 20.5t11.5 16.5t17 11t19.5 4q12 0 21.5 -4.5t16.5 -12.5t11 -19t4 -25q0 -27 -5.5 -52t-15.5 -47t-24.5 -40t-33.5 -30zM63 -117q11 10 20.5 22.5t16 26t10.5 27 t5 27.5q-12 -1 -22.5 2.5t-18 11t-12 17.5t-4.5 20q0 11 4 20.5t11.5 16.5t17 11t19.5 4q12 0 21.5 -4.5t16.5 -12.5t11 -19t4 -25q0 -27 -5.5 -52t-15.5 -47t-24.5 -40t-33.5 -30z" />
<glyph unicode="&#x2020;" horiz-adv-x="328" d="M127 734h74l-6 -174h102v-52h-103l-1 -303h-58l-2 303h-101v52h100z" />
<glyph unicode="&#x2021;" horiz-adv-x="328" d="M32 508v52h99l-4 174h74l-6 -174h102v-52h-103l-1 -40l1 -41h103v-53h-102l5 -169h-72l4 169h-100v53h101l1 41l-1 40h-101z" />
<glyph unicode="&#x2022;" horiz-adv-x="379" d="M67 335q0 25 9.5 47.5t26.5 39t39.5 26t48.5 9.5q25 0 47 -9.5t38.5 -26t26 -39t9.5 -47.5t-9.5 -47t-26 -38.5t-38.5 -25.5t-47 -9q-26 0 -48.5 9t-39.5 25.5t-26.5 38.5t-9.5 47v0z" />
<glyph unicode="&#x2026;" horiz-adv-x="657" d="M494 39q0 11 4 20.5t11.5 16.5t17 11t20.5 4t21 -4t17.5 -11t11.5 -16.5t4 -20.5t-4 -20.5t-11.5 -17t-17.5 -11.5t-21 -4t-20.5 4t-17 11.5t-11.5 17t-4 20.5v0zM275 39q0 11 4 20.5t11.5 16.5t17 11t20.5 4t21 -4t17.5 -11t11.5 -16.5t4 -20.5t-4 -20.5t-11.5 -17 t-17.5 -11.5t-21 -4t-20.5 4t-17 11.5t-11.5 17t-4 20.5v0zM56 39q0 11 4 20.5t11.5 16.5t17 11t20.5 4t21 -4t17.5 -11t11.5 -16.5t4 -20.5t-4 -20.5t-11.5 -17t-17.5 -11.5t-21 -4t-20.5 4t-17 11.5t-11.5 17t-4 20.5v0z" />
<glyph unicode="&#x202f;" horiz-adv-x="186" />
<glyph unicode="&#x2030;" horiz-adv-x="1380" d="M34 488q0 49 13 88.5t36.5 67.5t56.5 42.5t72 14.5t71.5 -14.5t56.5 -42.5t36.5 -67.5t12.5 -88.5t-13 -89t-37 -68t-57 -42.5t-72 -14.5t-71.5 14.5t-56 42.5t-36 68t-12.5 89v0zM350 0h-63l325 691h63zM91 489q0 -41 9 -72.5t25.5 -52.5t38.5 -31.5t47 -10.5t47 10.5 t38.5 31.5t25.5 52.5t9 72.5q0 40 -9 71t-26 51.5t-38.5 30.5t-47.5 10q-25 0 -46.5 -10t-38 -30.5t-25.5 -51.5t-9 -71v0zM759 -13q-39 0 -71.5 14.5t-56 42.5t-36 68t-12.5 89t13 88.5t36.5 67.5t56.5 42.5t72 14.5t71.5 -14.5t56.5 -42.5t36.5 -67.5t12.5 -88.5t-13 -89 t-37 -68t-57 -42.5t-72 -14.5v0zM1167 -13q-39 0 -71.5 14.5t-56 42.5t-36 68t-12.5 89t13 88.5t36.5 67.5t56.5 42.5t72 14.5t71.5 -14.5t56.5 -42.5t36.5 -67.5t12.5 -88.5t-13 -89t-37 -68t-57 -42.5t-72 -14.5v0zM760 35q25 0 47 10.5t38.5 31.5t25.5 52.5t9 72.5 q0 40 -9 71t-26 51.5t-38.5 30.5t-47.5 10q-25 0 -46.5 -10t-38 -30.5t-25.5 -51.5t-9 -71q0 -41 9 -72.5t25.5 -52.5t38.5 -31.5t47 -10.5v0zM1168 35q25 0 47 10.5t38.5 31.5t25.5 52.5t9 72.5q0 40 -9 71t-26 51.5t-38.5 30.5t-47.5 10q-25 0 -46.5 -10t-38 -30.5 t-25.5 -51.5t-9 -71q0 -41 9 -72.5t25.5 -52.5t38.5 -31.5t47 -10.5v0z" />
<glyph unicode="&#x2039;" horiz-adv-x="331" d="M294 485l-190 -241l191 -244h-70l-192 239v6l193 240h68z" />
<glyph unicode="&#x203a;" horiz-adv-x="331" d="M37 0l190 241l-191 244h70l192 -239v-6l-193 -240h-68z" />
<glyph unicode="&#x2044;" horiz-adv-x="400" d="M388 691l-325 -691h-63l325 691h63z" />
<glyph unicode="&#x205f;" horiz-adv-x="233" />
<glyph unicode="&#x20ac;" horiz-adv-x="666" d="M-2 358v43h86q9 66 34.5 119.5t64 90.5t86.5 56t101 19q26 0 48 -5.5t41 -15.5t35.5 -23.5t31.5 -30.5l7 86h38l48 -248l-39 -7l-23 55q-14 31 -32 54.5t-40 40t-49 25t-59 8.5q-40 0 -75.5 -14.5t-64 -43t-47.5 -70.5t-27 -96h283l-18 -43h-269v-25v-8.5v-7.5t0.5 -7.5 t0.5 -7.5h252l-16 -43h-231q8 -53 29 -94.5t51.5 -69t68 -41t78.5 -13.5t72 9.5t53.5 26t38.5 38t30 48.5l42 -17q-13 -36 -33 -66t-49.5 -52.5t-69.5 -35.5t-90 -13q-55 0 -105 18.5t-90.5 54.5t-68 88.5t-37.5 118.5h-87v43h83q0 4 -0.5 7.5t-0.5 7.5v8v9v24h-82z" />
<glyph unicode="&#x2122;" horiz-adv-x="1022" d="M46 556l-27 7l28 127h308l28 -128l-27 -8l-44 98h-81v-296l69 -7v-30h-197v30l69 7v296h-82zM779 690h212v-30l-68 -8v-296l68 -7v-30h-180v30l58 7v255l-138 -295h-38l-140 299l1 -259l59 -7v-30h-180v30l68 7v296l-68 8v30h214v-30l-59 -7l127 -274l125 274l-61 7v30z " />
<glyph unicode="&#x215f;" horiz-adv-x="810" d="M32 318l79 8v292l-75 -47l-19 28l119 99l32 -6v-366l80 -8v-31h-216v31zM241 0h-63l325 691h63z" />
<glyph unicode="&#x2212;" horiz-adv-x="473" d="M50 284v52h373v-52h-373z" />
<glyph unicode="&#x2248;" horiz-adv-x="473" d="M318 323q-23 0 -42 4.5t-44 13t-42.5 12.5t-38.5 4q-11 0 -23 -1t-25.5 -4.5t-27 -9t-25.5 -13.5v54q10 6 22.5 11t26.5 8t28 4.5t27 1.5q24 0 43.5 -4.5t45.5 -13t43.5 -12.5t39.5 -4q11 0 22.5 1t24 4.5t25.5 9t24 13.5v-54q-10 -6 -22.5 -11t-26.5 -8t-28 -4.5 t-27 -1.5v0zM318 210q-23 0 -42 4.5t-44 13t-42.5 12.5t-38.5 4q-11 0 -23 -1t-25.5 -4.5t-27 -9t-25.5 -13.5v54q10 6 22.5 11t26.5 8t28 4.5t27 1.5q24 0 43.5 -4.5t45.5 -13t43.5 -12.5t39.5 -4q11 0 22.5 1t24 4.5t25.5 9t24 13.5v-54q-10 -6 -22.5 -11t-26.5 -8 t-28 -4.5t-27 -1.5v0z" />
<glyph unicode="&#x2260;" horiz-adv-x="473" d="M50 338v52h226l82 90h65l-82 -90h81v-52h-128l-55 -60h183v-52h-230l-78 -86h-64l78 86h-78v52h125l54 60h-179z" />
<glyph unicode="&#xe000;" horiz-adv-x="490" d="M0 490h490v-490h-490v490z" />
</font>
</defs>
</svg>
